STARTFONT 2.2
FONT -FontForge-SimSun-Book-R-Normal--19-180-75-75-P-189-ISO10646-1
SIZE 18 75 75
FONTBOUNDINGBOX 19 19 0 -3
METRICSSET 2
SWIDTH 3906 0
DWIDTH 19 0
SWIDTH1 3906 0
DWIDTH1 19 0
VVECTOR 9,15
COMMENT "Generated by fontforge, http://fontforge.sourceforge.net"
COMMENT "© Copyright ZHONGYI Electronic Co. 2001"
STARTPROPERTIES 38
FOUNDRY "FontForge"
FAMILY_NAME "SimSun"
WEIGHT_NAME "Book"
SLANT "R"
SETWIDTH_NAME "Normal"
ADD_STYLE_NAME ""
PIXEL_SIZE 19
POINT_SIZE 180
RESOLUTION_X 75
RESOLUTION_Y 75
SPACING "P"
AVERAGE_WIDTH 189
CHARSET_REGISTRY "ISO10646"
CHARSET_ENCODING "1"
FONTNAME_REGISTRY ""
CHARSET_COLLECTIONS "ASCII ISOLatin1Encoding ISO8859-5 JISX0208.1997 GB2312.1980 BIG5 ISO10646-1"
FONT_NAME "SimSun"
FACE_NAME "SimSun"
FONT_VERSION "5.00"
FONT_ASCENT 15
FONT_DESCENT 4
UNDERLINE_POSITION -1
UNDERLINE_THICKNESS 1
X_HEIGHT 9
CAP_HEIGHT 12
RAW_ASCENT 859
RAW_DESCENT 140
RELATIVE_WEIGHT 40
RELATIVE_SETWIDTH 50
SUPERSCRIPT_X 0
SUPERSCRIPT_Y 9
SUPERSCRIPT_SIZE 9
SUBSCRIPT_X 0
SUBSCRIPT_Y 1
SUBSCRIPT_SIZE 9
FIGURE_WIDTH 10
AVG_LOWERCASE_WIDTH 145
AVG_UPPERCASE_WIDTH 152
ENDPROPERTIES
CHARS 22036
STARTCHAR exclam
ENCODING 33
SWIDTH 500 0
DWIDTH 10 0
SWIDTH1 1000 0
BBX 1 13 4 0
BITMAP
80
80
80
80
80
80
80
80
80
80
00
80
80
ENDCHAR
STARTCHAR quotedbl
ENCODING 34
SWIDTH 500 0
DWIDTH 10 0
SWIDTH1 1000 0
BBX 4 5 2 9
BITMAP
90
90
90
90
90
ENDCHAR
STARTCHAR numbersign
ENCODING 35
SWIDTH 500 0
DWIDTH 10 0
SWIDTH1 1000 0
BBX 8 13 1 0
BITMAP
12
12
12
12
7F
24
24
24
FE
48
48
48
48
ENDCHAR
STARTCHAR dollar
ENCODING 36
SWIDTH 500 0
DWIDTH 10 0
SWIDTH1 1000 0
BBX 7 17 1 -2
BITMAP
10
10
38
54
92
90
90
50
38
14
12
12
92
54
38
10
10
ENDCHAR
STARTCHAR percent
ENCODING 37
SWIDTH 500 0
DWIDTH 10 0
SWIDTH1 1000 0
BBX 7 13 1 0
BITMAP
44
A4
A4
A8
A8
50
10
14
2A
2A
4A
4A
44
ENDCHAR
STARTCHAR ampersand
ENCODING 38
SWIDTH 500 0
DWIDTH 10 0
SWIDTH1 1000 0
BBX 8 13 1 0
BITMAP
38
44
44
44
48
30
50
8A
8A
8A
84
86
79
ENDCHAR
STARTCHAR quotesingle
ENCODING 39
SWIDTH 500 0
DWIDTH 10 0
SWIDTH1 1000 0
BBX 1 5 4 9
BITMAP
80
80
80
80
80
ENDCHAR
STARTCHAR parenleft
ENCODING 40
SWIDTH 500 0
DWIDTH 10 0
SWIDTH1 1000 0
BBX 4 17 4 -2
BITMAP
10
20
40
40
40
80
80
80
80
80
80
80
40
40
40
20
10
ENDCHAR
STARTCHAR parenright
ENCODING 41
SWIDTH 500 0
DWIDTH 10 0
SWIDTH1 1000 0
BBX 4 17 2 -2
BITMAP
80
40
20
20
20
10
10
10
10
10
10
10
20
20
20
40
80
ENDCHAR
STARTCHAR asterisk
ENCODING 42
SWIDTH 500 0
DWIDTH 10 0
SWIDTH1 1000 0
BBX 7 7 1 3
BITMAP
10
10
D6
38
10
28
44
ENDCHAR
STARTCHAR plus
ENCODING 43
SWIDTH 500 0
DWIDTH 10 0
SWIDTH1 1000 0
BBX 7 9 1 2
BITMAP
10
10
10
10
FE
10
10
10
10
ENDCHAR
STARTCHAR comma
ENCODING 44
SWIDTH 500 0
DWIDTH 10 0
SWIDTH1 1000 0
BBX 2 4 3 -2
BITMAP
40
40
40
80
ENDCHAR
STARTCHAR hyphen
ENCODING 45
SWIDTH 500 0
DWIDTH 10 0
SWIDTH1 1000 0
BBX 8 1 1 6
BITMAP
FF
ENDCHAR
STARTCHAR period
ENCODING 46
SWIDTH 500 0
DWIDTH 10 0
SWIDTH1 1000 0
BBX 2 2 4 0
BITMAP
C0
C0
ENDCHAR
STARTCHAR slash
ENCODING 47
SWIDTH 500 0
DWIDTH 10 0
SWIDTH1 1000 0
BBX 6 14 1 0
BITMAP
04
04
08
08
08
10
10
20
20
20
40
40
80
80
ENDCHAR
STARTCHAR zero
ENCODING 48
SWIDTH 500 0
DWIDTH 10 0
SWIDTH1 1000 0
BBX 7 13 1 0
BITMAP
38
44
44
82
82
82
82
82
82
82
44
44
38
ENDCHAR
STARTCHAR one
ENCODING 49
SWIDTH 500 0
DWIDTH 10 0
SWIDTH1 1000 0
BBX 3 13 2 0
BITMAP
20
20
E0
20
20
20
20
20
20
20
20
20
20
ENDCHAR
STARTCHAR two
ENCODING 50
SWIDTH 500 0
DWIDTH 10 0
SWIDTH1 1000 0
BBX 7 13 1 0
BITMAP
38
44
82
02
02
04
08
10
20
40
80
80
FE
ENDCHAR
STARTCHAR three
ENCODING 51
SWIDTH 500 0
DWIDTH 10 0
SWIDTH1 1000 0
BBX 7 13 1 0
BITMAP
38
44
82
02
04
38
04
02
02
02
82
44
38
ENDCHAR
STARTCHAR four
ENCODING 52
SWIDTH 500 0
DWIDTH 10 0
SWIDTH1 1000 0
BBX 7 13 1 0
BITMAP
04
0C
0C
14
14
24
24
44
44
FE
04
04
04
ENDCHAR
STARTCHAR five
ENCODING 53
SWIDTH 500 0
DWIDTH 10 0
SWIDTH1 1000 0
BBX 7 13 1 0
BITMAP
FC
80
80
80
B8
C4
82
02
02
02
82
44
38
ENDCHAR
STARTCHAR six
ENCODING 54
SWIDTH 500 0
DWIDTH 10 0
SWIDTH1 1000 0
BBX 7 13 1 0
BITMAP
38
44
82
80
B8
C4
82
82
82
82
82
44
38
ENDCHAR
STARTCHAR seven
ENCODING 55
SWIDTH 500 0
DWIDTH 10 0
SWIDTH1 1000 0
BBX 7 13 1 0
BITMAP
FE
02
04
04
08
08
10
10
20
20
20
20
20
ENDCHAR
STARTCHAR eight
ENCODING 56
SWIDTH 500 0
DWIDTH 10 0
SWIDTH1 1000 0
BBX 7 13 1 0
BITMAP
38
44
82
82
44
38
44
82
82
82
82
44
38
ENDCHAR
STARTCHAR nine
ENCODING 57
SWIDTH 500 0
DWIDTH 10 0
SWIDTH1 1000 0
BBX 7 13 1 0
BITMAP
38
44
82
82
82
82
82
46
3A
02
82
44
38
ENDCHAR
STARTCHAR colon
ENCODING 58
SWIDTH 500 0
DWIDTH 10 0
SWIDTH1 1000 0
BBX 2 9 4 2
BITMAP
C0
C0
00
00
00
00
00
C0
C0
ENDCHAR
STARTCHAR semicolon
ENCODING 59
SWIDTH 500 0
DWIDTH 10 0
SWIDTH1 1000 0
BBX 2 11 3 0
BITMAP
40
40
00
00
00
00
00
40
40
40
80
ENDCHAR
STARTCHAR less
ENCODING 60
SWIDTH 500 0
DWIDTH 10 0
SWIDTH1 1000 0
BBX 6 7 2 3
BITMAP
04
18
60
80
60
18
04
ENDCHAR
STARTCHAR equal
ENCODING 61
SWIDTH 500 0
DWIDTH 10 0
SWIDTH1 1000 0
BBX 8 5 0 4
BITMAP
FF
00
00
00
FF
ENDCHAR
STARTCHAR greater
ENCODING 62
SWIDTH 500 0
DWIDTH 10 0
SWIDTH1 1000 0
BBX 6 7 1 3
BITMAP
80
60
18
04
18
60
80
ENDCHAR
STARTCHAR question
ENCODING 63
SWIDTH 500 0
DWIDTH 10 0
SWIDTH1 1000 0
BBX 7 13 1 0
BITMAP
38
44
82
82
02
04
04
08
10
10
00
10
10
ENDCHAR
STARTCHAR at
ENCODING 64
SWIDTH 500 0
DWIDTH 10 0
SWIDTH1 1000 0
BBX 8 15 1 -1
BITMAP
3C
42
81
81
9B
A5
A5
A5
A5
A5
A5
9A
80
41
3E
ENDCHAR
STARTCHAR A
ENCODING 65
SWIDTH 500 0
DWIDTH 10 0
SWIDTH1 1000 0
BBX 9 13 0 0
BITMAP
0800
0800
1400
1400
1400
2200
2200
3E00
4100
4100
4100
8080
8080
ENDCHAR
STARTCHAR B
ENCODING 66
SWIDTH 500 0
DWIDTH 10 0
SWIDTH1 1000 0
BBX 7 13 1 0
BITMAP
F8
84
82
82
82
84
F8
84
82
82
82
84
F8
ENDCHAR
STARTCHAR C
ENCODING 67
SWIDTH 500 0
DWIDTH 10 0
SWIDTH1 1000 0
BBX 7 13 1 0
BITMAP
38
44
82
82
80
80
80
80
80
82
82
44
38
ENDCHAR
STARTCHAR D
ENCODING 68
SWIDTH 500 0
DWIDTH 10 0
SWIDTH1 1000 0
BBX 7 13 1 0
BITMAP
F8
84
82
82
82
82
82
82
82
82
82
84
F8
ENDCHAR
STARTCHAR E
ENCODING 69
SWIDTH 500 0
DWIDTH 10 0
SWIDTH1 1000 0
BBX 7 13 1 0
BITMAP
FE
80
80
80
80
80
FC
80
80
80
80
80
FE
ENDCHAR
STARTCHAR F
ENCODING 70
SWIDTH 500 0
DWIDTH 10 0
SWIDTH1 1000 0
BBX 7 13 1 0
BITMAP
FE
80
80
80
80
80
FC
80
80
80
80
80
80
ENDCHAR
STARTCHAR G
ENCODING 71
SWIDTH 500 0
DWIDTH 10 0
SWIDTH1 1000 0
BBX 7 13 1 0
BITMAP
3C
42
82
80
80
80
9E
82
82
82
82
46
3A
ENDCHAR
STARTCHAR H
ENCODING 72
SWIDTH 500 0
DWIDTH 10 0
SWIDTH1 1000 0
BBX 7 13 1 0
BITMAP
82
82
82
82
82
82
FE
82
82
82
82
82
82
ENDCHAR
STARTCHAR I
ENCODING 73
SWIDTH 500 0
DWIDTH 10 0
SWIDTH1 1000 0
BBX 7 13 1 0
BITMAP
FE
10
10
10
10
10
10
10
10
10
10
10
FE
ENDCHAR
STARTCHAR J
ENCODING 74
SWIDTH 500 0
DWIDTH 10 0
SWIDTH1 1000 0
BBX 7 13 1 0
BITMAP
02
02
02
02
02
02
02
02
02
82
82
44
38
ENDCHAR
STARTCHAR K
ENCODING 75
SWIDTH 500 0
DWIDTH 10 0
SWIDTH1 1000 0
BBX 7 13 1 0
BITMAP
82
82
84
88
90
B0
D0
88
88
84
84
82
82
ENDCHAR
STARTCHAR L
ENCODING 76
SWIDTH 500 0
DWIDTH 10 0
SWIDTH1 1000 0
BBX 7 13 1 0
BITMAP
80
80
80
80
80
80
80
80
80
80
80
80
FE
ENDCHAR
STARTCHAR M
ENCODING 77
SWIDTH 500 0
DWIDTH 10 0
SWIDTH1 1000 0
BBX 7 13 1 0
BITMAP
82
82
C6
C6
C6
AA
AA
AA
AA
92
92
92
82
ENDCHAR
STARTCHAR N
ENCODING 78
SWIDTH 500 0
DWIDTH 10 0
SWIDTH1 1000 0
BBX 7 13 1 0
BITMAP
82
82
C2
C2
A2
A2
92
92
8A
8A
86
86
82
ENDCHAR
STARTCHAR O
ENCODING 79
SWIDTH 500 0
DWIDTH 10 0
SWIDTH1 1000 0
BBX 7 13 1 0
BITMAP
38
44
82
82
82
82
82
82
82
82
82
44
38
ENDCHAR
STARTCHAR P
ENCODING 80
SWIDTH 500 0
DWIDTH 10 0
SWIDTH1 1000 0
BBX 7 13 1 0
BITMAP
F8
84
82
82
82
82
84
F8
80
80
80
80
80
ENDCHAR
STARTCHAR Q
ENCODING 81
SWIDTH 500 0
DWIDTH 10 0
SWIDTH1 1000 0
BBX 8 14 1 -1
BITMAP
38
44
82
82
82
82
82
82
82
92
8A
44
3A
01
ENDCHAR
STARTCHAR R
ENCODING 82
SWIDTH 500 0
DWIDTH 10 0
SWIDTH1 1000 0
BBX 7 13 1 0
BITMAP
F8
84
82
82
82
84
F8
84
82
82
82
82
82
ENDCHAR
STARTCHAR S
ENCODING 83
SWIDTH 500 0
DWIDTH 10 0
SWIDTH1 1000 0
BBX 7 13 1 0
BITMAP
38
44
82
82
80
60
18
04
02
82
82
44
38
ENDCHAR
STARTCHAR T
ENCODING 84
SWIDTH 500 0
DWIDTH 10 0
SWIDTH1 1000 0
BBX 7 13 1 0
BITMAP
FE
10
10
10
10
10
10
10
10
10
10
10
10
ENDCHAR
STARTCHAR U
ENCODING 85
SWIDTH 500 0
DWIDTH 10 0
SWIDTH1 1000 0
BBX 7 13 1 0
BITMAP
82
82
82
82
82
82
82
82
82
82
82
44
38
ENDCHAR
STARTCHAR V
ENCODING 86
SWIDTH 500 0
DWIDTH 10 0
SWIDTH1 1000 0
BBX 7 13 1 0
BITMAP
82
82
82
82
44
44
44
28
28
28
10
10
10
ENDCHAR
STARTCHAR W
ENCODING 87
SWIDTH 500 0
DWIDTH 10 0
SWIDTH1 1000 0
BBX 7 13 1 0
BITMAP
92
92
92
92
92
AA
AA
AA
44
44
44
44
44
ENDCHAR
STARTCHAR X
ENCODING 88
SWIDTH 500 0
DWIDTH 10 0
SWIDTH1 1000 0
BBX 7 13 1 0
BITMAP
82
82
44
44
28
28
10
28
28
44
44
82
82
ENDCHAR
STARTCHAR Y
ENCODING 89
SWIDTH 500 0
DWIDTH 10 0
SWIDTH1 1000 0
BBX 7 13 1 0
BITMAP
82
82
44
44
28
28
10
10
10
10
10
10
10
ENDCHAR
STARTCHAR Z
ENCODING 90
SWIDTH 500 0
DWIDTH 10 0
SWIDTH1 1000 0
BBX 7 13 1 0
BITMAP
FE
02
04
04
08
08
10
10
20
20
40
40
FE
ENDCHAR
STARTCHAR bracketleft
ENCODING 91
SWIDTH 500 0
DWIDTH 10 0
SWIDTH1 1000 0
BBX 3 17 4 -2
BITMAP
E0
80
80
80
80
80
80
80
80
80
80
80
80
80
80
80
E0
ENDCHAR
STARTCHAR backslash
ENCODING 92
SWIDTH 500 0
DWIDTH 10 0
SWIDTH1 1000 0
BBX 6 14 3 0
BITMAP
80
80
40
40
40
20
20
10
10
10
08
08
04
04
ENDCHAR
STARTCHAR bracketright
ENCODING 93
SWIDTH 500 0
DWIDTH 10 0
SWIDTH1 1000 0
BBX 3 17 3 -2
BITMAP
E0
20
20
20
20
20
20
20
20
20
20
20
20
20
20
20
E0
ENDCHAR
STARTCHAR asciicircum
ENCODING 94
SWIDTH 500 0
DWIDTH 10 0
SWIDTH1 1000 0
BBX 8 4 1 9
BITMAP
18
24
42
81
ENDCHAR
STARTCHAR underscore
ENCODING 95
SWIDTH 500 0
DWIDTH 10 0
SWIDTH1 1000 0
BBX 9 1 0 -2
BITMAP
FF80
ENDCHAR
STARTCHAR grave
ENCODING 96
SWIDTH 500 0
DWIDTH 10 0
SWIDTH1 1000 0
BBX 3 3 3 11
BITMAP
80
40
20
ENDCHAR
STARTCHAR a
ENCODING 97
SWIDTH 500 0
DWIDTH 10 0
SWIDTH1 1000 0
BBX 8 10 1 0
BITMAP
7C
82
82
02
3E
42
82
82
86
7B
ENDCHAR
STARTCHAR b
ENCODING 98
SWIDTH 500 0
DWIDTH 10 0
SWIDTH1 1000 0
BBX 7 13 1 0
BITMAP
80
80
80
B8
C4
82
82
82
82
82
82
C4
B8
ENDCHAR
STARTCHAR c
ENCODING 99
SWIDTH 500 0
DWIDTH 10 0
SWIDTH1 1000 0
BBX 7 10 1 0
BITMAP
3C
42
82
80
80
80
80
82
42
3C
ENDCHAR
STARTCHAR d
ENCODING 100
SWIDTH 500 0
DWIDTH 10 0
SWIDTH1 1000 0
BBX 7 13 1 0
BITMAP
02
02
02
3A
46
82
82
82
82
82
82
46
3A
ENDCHAR
STARTCHAR e
ENCODING 101
SWIDTH 500 0
DWIDTH 10 0
SWIDTH1 1000 0
BBX 7 10 1 0
BITMAP
38
44
82
82
82
FE
80
82
44
38
ENDCHAR
STARTCHAR f
ENCODING 102
SWIDTH 500 0
DWIDTH 10 0
SWIDTH1 1000 0
BBX 6 13 1 0
BITMAP
18
20
20
20
FC
20
20
20
20
20
20
20
20
ENDCHAR
STARTCHAR g
ENCODING 103
SWIDTH 500 0
DWIDTH 10 0
SWIDTH1 1000 0
BBX 7 12 1 -2
BITMAP
3A
46
82
82
82
82
82
46
3A
82
44
38
ENDCHAR
STARTCHAR h
ENCODING 104
SWIDTH 500 0
DWIDTH 10 0
SWIDTH1 1000 0
BBX 7 13 1 0
BITMAP
80
80
80
B8
C4
82
82
82
82
82
82
82
82
ENDCHAR
STARTCHAR i
ENCODING 105
SWIDTH 500 0
DWIDTH 10 0
SWIDTH1 1000 0
BBX 5 13 2 0
BITMAP
20
20
00
00
E0
20
20
20
20
20
20
20
F8
ENDCHAR
STARTCHAR j
ENCODING 106
SWIDTH 500 0
DWIDTH 10 0
SWIDTH1 1000 0
BBX 4 15 1 -2
BITMAP
10
10
00
00
70
10
10
10
10
10
10
10
10
10
E0
ENDCHAR
STARTCHAR k
ENCODING 107
SWIDTH 500 0
DWIDTH 10 0
SWIDTH1 1000 0
BBX 7 13 1 0
BITMAP
80
80
80
82
84
88
90
A8
C8
84
84
82
82
ENDCHAR
STARTCHAR l
ENCODING 108
SWIDTH 500 0
DWIDTH 10 0
SWIDTH1 1000 0
BBX 5 13 2 0
BITMAP
E0
20
20
20
20
20
20
20
20
20
20
20
F8
ENDCHAR
STARTCHAR m
ENCODING 109
SWIDTH 500 0
DWIDTH 10 0
SWIDTH1 1000 0
BBX 7 10 1 0
BITMAP
AC
D2
92
92
92
92
92
92
92
92
ENDCHAR
STARTCHAR n
ENCODING 110
SWIDTH 500 0
DWIDTH 10 0
SWIDTH1 1000 0
BBX 7 10 1 0
BITMAP
B8
C4
82
82
82
82
82
82
82
82
ENDCHAR
STARTCHAR o
ENCODING 111
SWIDTH 500 0
DWIDTH 10 0
SWIDTH1 1000 0
BBX 7 10 1 0
BITMAP
38
44
82
82
82
82
82
82
44
38
ENDCHAR
STARTCHAR p
ENCODING 112
SWIDTH 500 0
DWIDTH 10 0
SWIDTH1 1000 0
BBX 7 12 1 -2
BITMAP
B8
C4
82
82
82
82
82
C4
B8
80
80
80
ENDCHAR
STARTCHAR q
ENCODING 113
SWIDTH 500 0
DWIDTH 10 0
SWIDTH1 1000 0
BBX 7 12 1 -2
BITMAP
3A
46
82
82
82
82
82
46
3A
02
02
02
ENDCHAR
STARTCHAR r
ENCODING 114
SWIDTH 500 0
DWIDTH 10 0
SWIDTH1 1000 0
BBX 6 10 2 0
BITMAP
BC
C0
80
80
80
80
80
80
80
80
ENDCHAR
STARTCHAR s
ENCODING 115
SWIDTH 500 0
DWIDTH 10 0
SWIDTH1 1000 0
BBX 7 10 1 0
BITMAP
38
44
82
80
70
0C
02
82
44
38
ENDCHAR
STARTCHAR t
ENCODING 116
SWIDTH 500 0
DWIDTH 10 0
SWIDTH1 1000 0
BBX 5 13 2 0
BITMAP
40
40
40
F8
40
40
40
40
40
40
40
40
38
ENDCHAR
STARTCHAR u
ENCODING 117
SWIDTH 500 0
DWIDTH 10 0
SWIDTH1 1000 0
BBX 7 10 1 0
BITMAP
82
82
82
82
82
82
82
82
46
3A
ENDCHAR
STARTCHAR v
ENCODING 118
SWIDTH 500 0
DWIDTH 10 0
SWIDTH1 1000 0
BBX 7 10 1 0
BITMAP
82
82
82
44
44
44
28
28
10
10
ENDCHAR
STARTCHAR w
ENCODING 119
SWIDTH 500 0
DWIDTH 10 0
SWIDTH1 1000 0
BBX 7 10 1 0
BITMAP
92
92
92
92
92
6C
6C
44
44
44
ENDCHAR
STARTCHAR x
ENCODING 120
SWIDTH 500 0
DWIDTH 10 0
SWIDTH1 1000 0
BBX 7 10 1 0
BITMAP
82
44
44
28
10
10
28
28
44
82
ENDCHAR
STARTCHAR y
ENCODING 121
SWIDTH 500 0
DWIDTH 10 0
SWIDTH1 1000 0
BBX 7 12 1 -2
BITMAP
82
82
44
44
24
28
18
10
10
20
20
40
ENDCHAR
STARTCHAR z
ENCODING 122
SWIDTH 500 0
DWIDTH 10 0
SWIDTH1 1000 0
BBX 7 10 1 0
BITMAP
FE
02
04
08
10
10
20
40
80
FE
ENDCHAR
STARTCHAR braceleft
ENCODING 123
SWIDTH 500 0
DWIDTH 10 0
SWIDTH1 1000 0
BBX 5 17 2 -2
BITMAP
18
20
20
20
20
20
20
20
C0
20
20
20
20
20
20
20
18
ENDCHAR
STARTCHAR bar
ENCODING 124
SWIDTH 500 0
DWIDTH 10 0
SWIDTH1 1000 0
BBX 1 17 4 -2
BITMAP
80
80
80
80
80
80
80
80
80
80
80
80
80
80
80
80
80
ENDCHAR
STARTCHAR braceright
ENCODING 125
SWIDTH 500 0
DWIDTH 10 0
SWIDTH1 1000 0
BBX 5 17 2 -2
BITMAP
C0
20
20
20
20
20
20
20
18
20
20
20
20
20
20
20
C0
ENDCHAR
STARTCHAR asciitilde
ENCODING 126
SWIDTH 500 0
DWIDTH 10 0
SWIDTH1 1000 0
BBX 7 2 1 13
BITMAP
72
8C
ENDCHAR
STARTCHAR exclamdown
ENCODING 161
SWIDTH 500 0
DWIDTH 10 0
SWIDTH1 1000 0
BBX 2 14 4 -2
BITMAP
C0
C0
00
00
00
80
80
80
80
80
80
80
80
80
ENDCHAR
STARTCHAR cent
ENCODING 162
SWIDTH 500 0
DWIDTH 10 0
SWIDTH1 1000 0
BBX 7 13 1 -2
BITMAP
02
02
3C
44
8A
88
90
90
A2
64
38
40
40
ENDCHAR
STARTCHAR sterling
ENCODING 163
SWIDTH 500 0
DWIDTH 10 0
SWIDTH1 1000 0
BBX 8 14 1 0
BITMAP
1C
22
20
20
20
FC
10
10
10
10
70
91
99
66
ENDCHAR
STARTCHAR currency
ENCODING 164
SWIDTH 1000 0
SWIDTH1 1000 0
BBX 14 14 1 -1
BITMAP
8784
5868
2010
4008
4008
8004
8004
8004
8004
4008
4008
2010
5868
8784
ENDCHAR
STARTCHAR yen
ENCODING 165
SWIDTH 500 0
DWIDTH 10 0
SWIDTH1 1000 0
BBX 7 14 1 0
BITMAP
82
82
44
44
28
28
10
7C
10
10
7C
10
10
10
ENDCHAR
STARTCHAR brokenbar
ENCODING 166
SWIDTH 500 0
DWIDTH 10 0
SWIDTH1 1000 0
BBX 1 18 5 -3
BITMAP
80
80
80
80
80
80
80
00
00
00
00
80
80
80
80
80
80
80
ENDCHAR
STARTCHAR section
ENCODING 167
SWIDTH 1000 0
SWIDTH1 1000 0
BBX 6 17 6 -2
BITMAP
70
88
84
84
40
30
48
84
84
84
48
30
08
84
84
44
38
ENDCHAR
STARTCHAR dieresis
ENCODING 168
SWIDTH 1000 0
SWIDTH1 1000 0
BBX 7 2 6 13
BITMAP
C6
C6
ENDCHAR
STARTCHAR copyright
ENCODING 169
SWIDTH 500 0
DWIDTH 10 0
SWIDTH1 1000 0
BBX 8 8 1 2
BITMAP
3C
42
99
A1
A1
99
42
3C
ENDCHAR
STARTCHAR ordfeminine
ENCODING 170
SWIDTH 500 0
DWIDTH 10 0
SWIDTH1 1000 0
BBX 6 7 2 7
BITMAP
70
88
38
48
88
98
6C
ENDCHAR
STARTCHAR guillemotleft
ENCODING 171
SWIDTH 500 0
DWIDTH 10 0
SWIDTH1 1000 0
BBX 8 9 1 2
BITMAP
09
12
24
48
90
48
24
12
09
ENDCHAR
STARTCHAR logicalnot
ENCODING 172
SWIDTH 500 0
DWIDTH 10 0
SWIDTH1 1000 0
BBX 8 4 1 5
BITMAP
FF
01
01
01
ENDCHAR
STARTCHAR uni00AD
ENCODING 173
SWIDTH 500 0
DWIDTH 10 0
SWIDTH1 1000 0
BBX 6 1 2 6
BITMAP
FC
ENDCHAR
STARTCHAR registered
ENCODING 174
SWIDTH 500 0
DWIDTH 10 0
SWIDTH1 1000 0
BBX 8 8 1 2
BITMAP
3C
42
B9
A5
B9
A5
42
3C
ENDCHAR
STARTCHAR macron
ENCODING 175
SWIDTH 500 0
DWIDTH 10 0
SWIDTH1 1000 0
BBX 7 1 2 13
BITMAP
FE
ENDCHAR
STARTCHAR degree
ENCODING 176
SWIDTH 1000 0
SWIDTH1 1000 0
BBX 4 4 1 11
BITMAP
60
90
90
60
ENDCHAR
STARTCHAR plusminus
ENCODING 177
SWIDTH 1000 0
SWIDTH1 1000 0
BBX 11 14 4 0
BITMAP
0400
0400
0400
0400
0400
FFE0
0400
0400
0400
0400
0400
0000
0000
FFE0
ENDCHAR
STARTCHAR uni00B2
ENCODING 178
SWIDTH 500 0
DWIDTH 10 0
SWIDTH1 1000 0
BBX 4 6 3 8
BITMAP
60
90
10
20
40
F0
ENDCHAR
STARTCHAR uni00B3
ENCODING 179
SWIDTH 500 0
DWIDTH 10 0
SWIDTH1 1000 0
BBX 4 7 3 7
BITMAP
60
90
10
60
10
90
60
ENDCHAR
STARTCHAR acute
ENCODING 180
SWIDTH 500 0
DWIDTH 10 0
SWIDTH1 1000 0
BBX 5 3 3 12
BITMAP
18
60
80
ENDCHAR
STARTCHAR mu
ENCODING 181
SWIDTH 500 0
DWIDTH 10 0
SWIDTH1 1000 0
BBX 7 11 1 -2
BITMAP
82
82
82
82
82
82
82
C6
BA
80
80
ENDCHAR
STARTCHAR paragraph
ENCODING 182
SWIDTH 500 0
DWIDTH 10 0
SWIDTH1 1000 0
BBX 8 17 0 -2
BITMAP
3F
79
F9
F9
F9
F9
79
39
09
09
09
09
09
09
09
09
09
ENDCHAR
STARTCHAR periodcentered
ENCODING 183
SWIDTH 1000 0
SWIDTH1 1000 0
BBX 4 4 6 4
BITMAP
60
F0
F0
60
ENDCHAR
STARTCHAR cedilla
ENCODING 184
SWIDTH 500 0
DWIDTH 10 0
SWIDTH1 1000 0
BBX 3 4 4 -2
BITMAP
40
60
20
C0
ENDCHAR
STARTCHAR uni00B9
ENCODING 185
SWIDTH 500 0
DWIDTH 10 0
SWIDTH1 1000 0
BBX 2 6 3 8
BITMAP
40
C0
40
40
40
40
ENDCHAR
STARTCHAR ordmasculine
ENCODING 186
SWIDTH 500 0
DWIDTH 10 0
SWIDTH1 1000 0
BBX 5 7 2 7
BITMAP
70
88
88
88
88
88
70
ENDCHAR
STARTCHAR guillemotright
ENCODING 187
SWIDTH 500 0
DWIDTH 10 0
SWIDTH1 1000 0
BBX 8 9 1 2
BITMAP
90
48
24
12
09
12
24
48
90
ENDCHAR
STARTCHAR onequarter
ENCODING 188
SWIDTH 500 0
DWIDTH 10 0
SWIDTH1 1000 0
BBX 8 14 1 0
BITMAP
41
C2
42
44
44
48
08
12
16
2A
32
5F
42
82
ENDCHAR
STARTCHAR onehalf
ENCODING 189
SWIDTH 500 0
DWIDTH 10 0
SWIDTH1 1000 0
BBX 8 14 1 0
BITMAP
41
C2
42
44
44
48
08
10
16
29
29
42
44
8F
ENDCHAR
STARTCHAR threequarters
ENCODING 190
SWIDTH 500 0
DWIDTH 10 0
SWIDTH1 1000 0
BBX 8 14 1 0
BITMAP
61
92
12
64
14
98
68
12
16
2A
32
5F
42
82
ENDCHAR
STARTCHAR questiondown
ENCODING 191
SWIDTH 500 0
DWIDTH 10 0
SWIDTH1 1000 0
BBX 7 14 1 0
BITMAP
18
18
00
00
10
10
20
20
40
80
82
82
44
38
ENDCHAR
STARTCHAR Agrave
ENCODING 192
SWIDTH 500 0
DWIDTH 10 0
SWIDTH1 1000 0
BBX 7 15 1 0
BITMAP
20
10
08
10
10
28
28
28
28
44
44
7C
82
82
82
ENDCHAR
STARTCHAR Aacute
ENCODING 193
SWIDTH 500 0
DWIDTH 10 0
SWIDTH1 1000 0
BBX 7 15 1 0
BITMAP
08
10
20
10
10
28
28
28
28
44
44
7C
82
82
82
ENDCHAR
STARTCHAR Acircumflex
ENCODING 194
SWIDTH 500 0
DWIDTH 10 0
SWIDTH1 1000 0
BBX 7 15 1 0
BITMAP
10
28
44
10
10
28
28
28
28
44
44
7C
82
82
82
ENDCHAR
STARTCHAR Atilde
ENCODING 195
SWIDTH 500 0
DWIDTH 10 0
SWIDTH1 1000 0
BBX 7 15 1 0
BITMAP
32
4C
00
10
10
28
28
28
28
44
44
7C
82
82
82
ENDCHAR
STARTCHAR Adieresis
ENCODING 196
SWIDTH 500 0
DWIDTH 10 0
SWIDTH1 1000 0
BBX 7 15 1 0
BITMAP
6C
6C
00
10
10
28
28
28
28
44
44
7C
82
82
82
ENDCHAR
STARTCHAR Aring
ENCODING 197
SWIDTH 500 0
DWIDTH 10 0
SWIDTH1 1000 0
BBX 7 15 1 0
BITMAP
38
44
44
38
10
10
28
28
28
44
44
7C
82
82
82
ENDCHAR
STARTCHAR AE
ENCODING 198
SWIDTH 500 0
DWIDTH 10 0
SWIDTH1 1000 0
BBX 8 14 1 0
BITMAP
1F
18
28
28
28
28
48
4F
48
48
78
88
88
8F
ENDCHAR
STARTCHAR Ccedilla
ENCODING 199
SWIDTH 500 0
DWIDTH 10 0
SWIDTH1 1000 0
BBX 7 17 1 -3
BITMAP
38
44
82
82
80
80
80
80
80
80
82
82
44
38
30
10
60
ENDCHAR
STARTCHAR Egrave
ENCODING 200
SWIDTH 500 0
DWIDTH 10 0
SWIDTH1 1000 0
BBX 7 15 1 0
BITMAP
40
20
10
FE
80
80
80
80
FC
80
80
80
80
80
FE
ENDCHAR
STARTCHAR Eacute
ENCODING 201
SWIDTH 500 0
DWIDTH 10 0
SWIDTH1 1000 0
BBX 7 15 1 0
BITMAP
04
08
10
FE
80
80
80
80
FC
80
80
80
80
80
FE
ENDCHAR
STARTCHAR Ecircumflex
ENCODING 202
SWIDTH 500 0
DWIDTH 10 0
SWIDTH1 1000 0
BBX 7 15 1 0
BITMAP
10
28
44
FE
80
80
80
80
FC
80
80
80
80
80
FE
ENDCHAR
STARTCHAR Edieresis
ENCODING 203
SWIDTH 500 0
DWIDTH 10 0
SWIDTH1 1000 0
BBX 7 15 1 0
BITMAP
6C
6C
00
FE
80
80
80
80
FC
80
80
80
80
80
FE
ENDCHAR
STARTCHAR Igrave
ENCODING 204
SWIDTH 500 0
DWIDTH 10 0
SWIDTH1 1000 0
BBX 4 15 2 0
BITMAP
80
40
20
70
20
20
20
20
20
20
20
20
20
20
70
ENDCHAR
STARTCHAR Iacute
ENCODING 205
SWIDTH 500 0
DWIDTH 10 0
SWIDTH1 1000 0
BBX 4 15 3 0
BITMAP
10
20
40
E0
40
40
40
40
40
40
40
40
40
40
E0
ENDCHAR
STARTCHAR Icircumflex
ENCODING 206
SWIDTH 500 0
DWIDTH 10 0
SWIDTH1 1000 0
BBX 5 15 2 0
BITMAP
20
50
88
70
20
20
20
20
20
20
20
20
20
20
70
ENDCHAR
STARTCHAR Idieresis
ENCODING 207
SWIDTH 500 0
DWIDTH 10 0
SWIDTH1 1000 0
BBX 5 15 2 0
BITMAP
D8
D8
00
70
20
20
20
20
20
20
20
20
20
20
70
ENDCHAR
STARTCHAR Eth
ENCODING 208
SWIDTH 500 0
DWIDTH 10 0
SWIDTH1 1000 0
BBX 8 14 1 0
BITMAP
7C
42
41
41
41
41
F1
41
41
41
41
41
42
7C
ENDCHAR
STARTCHAR Ntilde
ENCODING 209
SWIDTH 500 0
DWIDTH 10 0
SWIDTH1 1000 0
BBX 7 15 1 0
BITMAP
32
4C
00
82
C2
C2
A2
A2
92
92
8A
8A
86
86
82
ENDCHAR
STARTCHAR Ograve
ENCODING 210
SWIDTH 500 0
DWIDTH 10 0
SWIDTH1 1000 0
BBX 8 15 1 0
BITMAP
40
20
10
3C
42
81
81
81
81
81
81
81
81
42
3C
ENDCHAR
STARTCHAR Oacute
ENCODING 211
SWIDTH 500 0
DWIDTH 10 0
SWIDTH1 1000 0
BBX 8 15 1 0
BITMAP
04
08
10
3C
42
81
81
81
81
81
81
81
81
42
3C
ENDCHAR
STARTCHAR Ocircumflex
ENCODING 212
SWIDTH 500 0
DWIDTH 10 0
SWIDTH1 1000 0
BBX 8 15 1 0
BITMAP
10
28
44
00
3C
42
81
81
81
81
81
81
81
42
3C
ENDCHAR
STARTCHAR Otilde
ENCODING 213
SWIDTH 500 0
DWIDTH 10 0
SWIDTH1 1000 0
BBX 8 15 1 0
BITMAP
32
4C
00
3C
42
81
81
81
81
81
81
81
81
42
3C
ENDCHAR
STARTCHAR Odieresis
ENCODING 214
SWIDTH 500 0
DWIDTH 10 0
SWIDTH1 1000 0
BBX 8 15 1 0
BITMAP
66
66
00
3C
42
81
81
81
81
81
81
81
81
42
3C
ENDCHAR
STARTCHAR multiply
ENCODING 215
SWIDTH 1000 0
SWIDTH1 1000 0
BBX 9 9 5 2
BITMAP
8080
4100
2200
1400
0800
1400
2200
4100
8080
ENDCHAR
STARTCHAR Oslash
ENCODING 216
SWIDTH 500 0
DWIDTH 10 0
SWIDTH1 1000 0
BBX 8 16 1 -1
BITMAP
01
3D
42
83
85
85
89
89
91
91
A1
A1
C1
42
BC
80
ENDCHAR
STARTCHAR Ugrave
ENCODING 217
SWIDTH 500 0
DWIDTH 10 0
SWIDTH1 1000 0
BBX 7 15 1 0
BITMAP
40
20
10
82
82
82
82
82
82
82
82
82
82
44
38
ENDCHAR
STARTCHAR Uacute
ENCODING 218
SWIDTH 500 0
DWIDTH 10 0
SWIDTH1 1000 0
BBX 7 15 1 0
BITMAP
04
08
10
82
82
82
82
82
82
82
82
82
82
44
38
ENDCHAR
STARTCHAR Ucircumflex
ENCODING 219
SWIDTH 500 0
DWIDTH 10 0
SWIDTH1 1000 0
BBX 7 15 1 0
BITMAP
10
28
44
82
82
82
82
82
82
82
82
82
82
44
38
ENDCHAR
STARTCHAR Udieresis
ENCODING 220
SWIDTH 500 0
DWIDTH 10 0
SWIDTH1 1000 0
BBX 7 15 1 0
BITMAP
6C
6C
00
82
82
82
82
82
82
82
82
82
82
44
38
ENDCHAR
STARTCHAR Yacute
ENCODING 221
SWIDTH 500 0
DWIDTH 10 0
SWIDTH1 1000 0
BBX 7 15 1 0
BITMAP
04
08
10
82
82
44
44
44
28
28
10
10
10
10
10
ENDCHAR
STARTCHAR Thorn
ENCODING 222
SWIDTH 500 0
DWIDTH 10 0
SWIDTH1 1000 0
BBX 7 14 2 0
BITMAP
80
80
80
F8
84
82
82
82
82
84
F8
80
80
80
ENDCHAR
STARTCHAR germandbls
ENCODING 223
SWIDTH 500 0
DWIDTH 10 0
SWIDTH1 1000 0
BBX 7 14 2 0
BITMAP
70
88
84
84
84
88
90
88
84
82
82
A2
A2
9C
ENDCHAR
STARTCHAR agrave
ENCODING 224
SWIDTH 500 0
DWIDTH 10 0
SWIDTH1 1000 0
BBX 7 13 1 0
BITMAP
40
20
10
00
78
84
04
3C
44
84
84
8C
76
ENDCHAR
STARTCHAR aacute
ENCODING 225
SWIDTH 500 0
DWIDTH 10 0
SWIDTH1 1000 0
BBX 7 13 1 0
BITMAP
04
08
10
00
78
84
04
3C
44
84
84
8C
76
ENDCHAR
STARTCHAR acircumflex
ENCODING 226
SWIDTH 500 0
DWIDTH 10 0
SWIDTH1 1000 0
BBX 7 13 1 0
BITMAP
10
28
44
00
78
84
04
3C
44
84
84
8C
76
ENDCHAR
STARTCHAR atilde
ENCODING 227
SWIDTH 500 0
DWIDTH 10 0
SWIDTH1 1000 0
BBX 7 12 1 0
BITMAP
64
98
00
78
84
04
3C
44
84
84
8C
76
ENDCHAR
STARTCHAR adieresis
ENCODING 228
SWIDTH 500 0
DWIDTH 10 0
SWIDTH1 1000 0
BBX 7 12 1 0
BITMAP
6C
6C
00
78
84
04
3C
44
84
84
8C
76
ENDCHAR
STARTCHAR aring
ENCODING 229
SWIDTH 500 0
DWIDTH 10 0
SWIDTH1 1000 0
BBX 7 14 1 0
BITMAP
30
48
48
30
00
78
84
04
3C
44
84
84
8C
76
ENDCHAR
STARTCHAR ae
ENCODING 230
SWIDTH 500 0
DWIDTH 10 0
SWIDTH1 1000 0
BBX 8 9 1 0
BITMAP
76
89
09
39
4F
88
88
89
76
ENDCHAR
STARTCHAR ccedilla
ENCODING 231
SWIDTH 500 0
DWIDTH 10 0
SWIDTH1 1000 0
BBX 7 12 1 -3
BITMAP
38
44
82
80
80
80
82
44
38
30
10
60
ENDCHAR
STARTCHAR egrave
ENCODING 232
SWIDTH 500 0
DWIDTH 10 0
SWIDTH1 1000 0
BBX 7 13 1 0
BITMAP
40
20
10
00
38
44
82
82
FE
80
82
44
38
ENDCHAR
STARTCHAR eacute
ENCODING 233
SWIDTH 500 0
DWIDTH 10 0
SWIDTH1 1000 0
BBX 7 13 1 0
BITMAP
04
08
10
00
38
44
82
82
FE
80
82
44
38
ENDCHAR
STARTCHAR ecircumflex
ENCODING 234
SWIDTH 500 0
DWIDTH 10 0
SWIDTH1 1000 0
BBX 7 13 1 0
BITMAP
10
28
44
00
38
44
82
82
FE
80
82
44
38
ENDCHAR
STARTCHAR edieresis
ENCODING 235
SWIDTH 500 0
DWIDTH 10 0
SWIDTH1 1000 0
BBX 7 12 1 0
BITMAP
6C
6C
00
38
44
82
82
FE
80
82
44
38
ENDCHAR
STARTCHAR igrave
ENCODING 236
SWIDTH 500 0
DWIDTH 10 0
SWIDTH1 1000 0
BBX 3 13 2 0
BITMAP
80
40
20
00
20
20
20
20
20
20
20
20
20
ENDCHAR
STARTCHAR iacute
ENCODING 237
SWIDTH 500 0
DWIDTH 10 0
SWIDTH1 1000 0
BBX 3 13 4 0
BITMAP
20
40
80
00
80
80
80
80
80
80
80
80
80
ENDCHAR
STARTCHAR icircumflex
ENCODING 238
SWIDTH 500 0
DWIDTH 10 0
SWIDTH1 1000 0
BBX 5 13 2 0
BITMAP
20
50
88
00
20
20
20
20
20
20
20
20
20
ENDCHAR
STARTCHAR idieresis
ENCODING 239
SWIDTH 500 0
DWIDTH 10 0
SWIDTH1 1000 0
BBX 5 12 2 0
BITMAP
D8
D8
00
20
20
20
20
20
20
20
20
20
ENDCHAR
STARTCHAR eth
ENCODING 240
SWIDTH 500 0
DWIDTH 10 0
SWIDTH1 1000 0
BBX 7 14 1 0
BITMAP
60
14
08
74
04
02
3A
46
82
82
82
82
44
38
ENDCHAR
STARTCHAR ntilde
ENCODING 241
SWIDTH 500 0
DWIDTH 10 0
SWIDTH1 1000 0
BBX 7 12 1 0
BITMAP
64
98
00
B8
C4
82
82
82
82
82
82
82
ENDCHAR
STARTCHAR ograve
ENCODING 242
SWIDTH 500 0
DWIDTH 10 0
SWIDTH1 1000 0
BBX 7 13 1 0
BITMAP
40
20
10
00
38
44
82
82
82
82
82
44
38
ENDCHAR
STARTCHAR oacute
ENCODING 243
SWIDTH 500 0
DWIDTH 10 0
SWIDTH1 1000 0
BBX 7 13 1 0
BITMAP
04
08
10
00
38
44
82
82
82
82
82
44
38
ENDCHAR
STARTCHAR ocircumflex
ENCODING 244
SWIDTH 500 0
DWIDTH 10 0
SWIDTH1 1000 0
BBX 7 13 1 0
BITMAP
10
28
44
00
38
44
82
82
82
82
82
44
38
ENDCHAR
STARTCHAR otilde
ENCODING 245
SWIDTH 500 0
DWIDTH 10 0
SWIDTH1 1000 0
BBX 7 12 1 0
BITMAP
64
98
00
38
44
82
82
82
82
82
44
38
ENDCHAR
STARTCHAR odieresis
ENCODING 246
SWIDTH 500 0
DWIDTH 10 0
SWIDTH1 1000 0
BBX 7 12 1 0
BITMAP
6C
6C
00
38
44
82
82
82
82
82
44
38
ENDCHAR
STARTCHAR divide
ENCODING 247
SWIDTH 1000 0
SWIDTH1 1000 0
BBX 12 9 3 2
BITMAP
0600
0600
0000
0000
FFF0
0000
0000
0600
0600
ENDCHAR
STARTCHAR oslash
ENCODING 248
SWIDTH 500 0
DWIDTH 10 0
SWIDTH1 1000 0
BBX 7 11 1 -1
BITMAP
02
3A
44
8A
8A
92
A2
A2
44
B8
80
ENDCHAR
STARTCHAR ugrave
ENCODING 249
SWIDTH 500 0
DWIDTH 10 0
SWIDTH1 1000 0
BBX 7 13 1 0
BITMAP
40
20
10
00
82
82
82
82
82
82
82
46
3A
ENDCHAR
STARTCHAR uacute
ENCODING 250
SWIDTH 500 0
DWIDTH 10 0
SWIDTH1 1000 0
BBX 7 13 1 0
BITMAP
04
08
10
00
82
82
82
82
82
82
82
46
3A
ENDCHAR
STARTCHAR ucircumflex
ENCODING 251
SWIDTH 500 0
DWIDTH 10 0
SWIDTH1 1000 0
BBX 7 13 1 0
BITMAP
10
28
44
00
82
82
82
82
82
82
82
46
3A
ENDCHAR
STARTCHAR udieresis
ENCODING 252
SWIDTH 500 0
DWIDTH 10 0
SWIDTH1 1000 0
BBX 7 12 1 0
BITMAP
6C
6C
00
82
82
82
82
82
82
82
46
3A
ENDCHAR
STARTCHAR yacute
ENCODING 253
SWIDTH 500 0
DWIDTH 10 0
SWIDTH1 1000 0
BBX 7 15 1 -2
BITMAP
04
08
10
00
82
82
44
44
28
28
10
10
20
20
C0
ENDCHAR
STARTCHAR thorn
ENCODING 254
SWIDTH 500 0
DWIDTH 10 0
SWIDTH1 1000 0
BBX 7 16 1 -2
BITMAP
80
80
80
80
B8
C4
82
82
82
82
82
C4
B8
80
80
80
ENDCHAR
STARTCHAR ydieresis
ENCODING 255
SWIDTH 500 0
DWIDTH 10 0
SWIDTH1 1000 0
BBX 7 14 1 -2
BITMAP
6C
6C
00
82
82
44
44
28
28
10
10
20
20
C0
ENDCHAR
STARTCHAR amacron
ENCODING 257
SWIDTH 500 0
DWIDTH 10 0
SWIDTH1 1000 0
BBX 7 11 1 0
BITMAP
7C
00
78
84
04
3C
44
84
84
8C
76
ENDCHAR
STARTCHAR emacron
ENCODING 275
SWIDTH 500 0
DWIDTH 10 0
SWIDTH1 1000 0
BBX 7 11 1 0
BITMAP
7C
00
38
44
82
82
FE
80
82
44
38
ENDCHAR
STARTCHAR ecaron
ENCODING 283
SWIDTH 500 0
DWIDTH 10 0
SWIDTH1 1000 0
BBX 7 13 1 0
BITMAP
44
28
10
00
38
44
82
82
FE
80
82
44
38
ENDCHAR
STARTCHAR imacron
ENCODING 299
SWIDTH 500 0
DWIDTH 10 0
SWIDTH1 1000 0
BBX 5 11 2 0
BITMAP
F8
00
20
20
20
20
20
20
20
20
20
ENDCHAR
STARTCHAR nacute
ENCODING 324
SWIDTH 500 0
DWIDTH 10 0
SWIDTH1 1000 0
BBX 7 13 1 0
BITMAP
08
10
20
00
B8
C4
82
82
82
82
82
82
82
ENDCHAR
STARTCHAR ncaron
ENCODING 328
SWIDTH 500 0
DWIDTH 10 0
SWIDTH1 1000 0
BBX 7 13 1 0
BITMAP
44
28
10
00
B8
C4
82
82
82
82
82
82
82
ENDCHAR
STARTCHAR omacron
ENCODING 333
SWIDTH 500 0
DWIDTH 10 0
SWIDTH1 1000 0
BBX 7 11 1 0
BITMAP
7C
00
38
44
82
82
82
82
82
44
38
ENDCHAR
STARTCHAR OE
ENCODING 338
SWIDTH 500 0
DWIDTH 10 0
SWIDTH1 1000 0
BBX 8 14 1 0
BITMAP
3F
48
88
88
88
88
8F
88
88
88
88
88
48
3F
ENDCHAR
STARTCHAR oe
ENCODING 339
SWIDTH 500 0
DWIDTH 10 0
SWIDTH1 1000 0
BBX 8 9 1 0
BITMAP
76
89
89
89
8F
88
88
89
76
ENDCHAR
STARTCHAR Scaron
ENCODING 352
SWIDTH 500 0
DWIDTH 10 0
SWIDTH1 1000 0
BBX 7 15 1 0
BITMAP
44
28
10
38
44
82
82
40
30
0C
02
82
82
44
38
ENDCHAR
STARTCHAR scaron
ENCODING 353
SWIDTH 500 0
DWIDTH 10 0
SWIDTH1 1000 0
BBX 7 13 1 0
BITMAP
44
28
10
00
7C
82
80
40
38
04
02
82
7C
ENDCHAR
STARTCHAR umacron
ENCODING 363
SWIDTH 500 0
DWIDTH 10 0
SWIDTH1 1000 0
BBX 7 11 1 0
BITMAP
7C
00
82
82
82
82
82
82
82
46
3A
ENDCHAR
STARTCHAR Ydieresis
ENCODING 376
SWIDTH 500 0
DWIDTH 10 0
SWIDTH1 1000 0
BBX 7 15 1 0
BITMAP
6C
6C
00
82
82
44
44
28
28
10
10
10
10
10
10
ENDCHAR
STARTCHAR florin
ENCODING 402
SWIDTH 500 0
DWIDTH 10 0
SWIDTH1 1000 0
BBX 8 16 1 -2
BITMAP
06
09
10
10
10
10
FE
10
10
10
10
10
10
10
90
60
ENDCHAR
STARTCHAR uni01CE
ENCODING 462
SWIDTH 500 0
DWIDTH 10 0
SWIDTH1 1000 0
BBX 8 13 1 0
BITMAP
44
28
10
00
7C
82
02
3E
42
82
82
86
7B
ENDCHAR
STARTCHAR uni01D0
ENCODING 464
SWIDTH 500 0
DWIDTH 10 0
SWIDTH1 1000 0
BBX 5 13 2 0
BITMAP
88
50
20
00
20
20
20
20
20
20
20
20
20
ENDCHAR
STARTCHAR uni01D2
ENCODING 466
SWIDTH 500 0
DWIDTH 10 0
SWIDTH1 1000 0
BBX 8 12 1 0
BITMAP
44
28
10
00
3C
42
81
81
81
81
42
3C
ENDCHAR
STARTCHAR uni01D4
ENCODING 468
SWIDTH 500 0
DWIDTH 10 0
SWIDTH1 1000 0
BBX 7 13 1 0
BITMAP
44
28
10
00
82
82
82
82
82
82
82
46
3A
ENDCHAR
STARTCHAR uni01D6
ENCODING 470
SWIDTH 500 0
DWIDTH 10 0
SWIDTH1 1000 0
BBX 7 13 1 0
BITMAP
FE
00
82
00
82
82
82
82
82
82
82
46
3A
ENDCHAR
STARTCHAR uni01D8
ENCODING 472
SWIDTH 500 0
DWIDTH 10 0
SWIDTH1 1000 0
BBX 7 15 1 0
BITMAP
04
08
10
00
82
00
82
82
82
82
82
82
82
46
3A
ENDCHAR
STARTCHAR uni01DA
ENCODING 474
SWIDTH 500 0
DWIDTH 10 0
SWIDTH1 1000 0
BBX 7 15 1 0
BITMAP
44
28
10
00
82
00
82
82
82
82
82
82
82
46
3A
ENDCHAR
STARTCHAR uni01DC
ENCODING 476
SWIDTH 500 0
DWIDTH 10 0
SWIDTH1 1000 0
BBX 7 15 1 0
BITMAP
20
10
08
00
82
00
82
82
82
82
82
82
82
46
3A
ENDCHAR
STARTCHAR uni01F9
ENCODING 505
SWIDTH 500 0
DWIDTH 10 0
SWIDTH1 1000 0
BBX 7 13 1 0
BITMAP
20
10
08
00
B8
C4
82
82
82
82
82
82
82
ENDCHAR
STARTCHAR uni0251
ENCODING 593
SWIDTH 500 0
DWIDTH 10 0
SWIDTH1 1000 0
BBX 9 8 1 0
BITMAP
7C00
8200
8200
1E00
6200
8200
8280
7F80
ENDCHAR
STARTCHAR uni0261
ENCODING 609
SWIDTH 500 0
DWIDTH 10 0
SWIDTH1 1000 0
BBX 8 10 1 -2
BITMAP
3F
42
42
42
3C
40
3E
C1
81
7E
ENDCHAR
STARTCHAR circumflex
ENCODING 710
SWIDTH 500 0
DWIDTH 10 0
SWIDTH1 1000 0
BBX 6 3 1 10
BITMAP
30
48
84
ENDCHAR
STARTCHAR caron
ENCODING 711
SWIDTH 1000 0
SWIDTH1 1000 0
BBX 6 3 5 10
BITMAP
84
48
30
ENDCHAR
STARTCHAR uni02C9
ENCODING 713
SWIDTH 1000 0
SWIDTH1 1000 0
BBX 6 1 5 11
BITMAP
FC
ENDCHAR
STARTCHAR uni02CA
ENCODING 714
SWIDTH 1000 0
SWIDTH1 1000 0
BBX 3 3 7 10
BITMAP
20
40
80
ENDCHAR
STARTCHAR uni02CB
ENCODING 715
SWIDTH 1000 0
SWIDTH1 1000 0
BBX 3 3 6 10
BITMAP
80
40
20
ENDCHAR
STARTCHAR dotaccent
ENCODING 729
SWIDTH 1000 0
SWIDTH1 1000 0
BBX 2 2 7 10
BITMAP
C0
C0
ENDCHAR
STARTCHAR tilde
ENCODING 732
SWIDTH 500 0
DWIDTH 10 0
SWIDTH1 1000 0
BBX 6 2 2 13
BITMAP
64
98
ENDCHAR
STARTCHAR Alpha
ENCODING 913
SWIDTH 1000 0
SWIDTH1 1000 0
BBX 11 14 4 0
BITMAP
0400
0400
0A00
0A00
1100
1100
1100
2080
2080
7FC0
4040
4040
8020
8020
ENDCHAR
STARTCHAR Beta
ENCODING 914
SWIDTH 1000 0
SWIDTH1 1000 0
BBX 10 14 4 0
BITMAP
FE00
8100
8080
8080
8080
8100
FF00
8080
8040
8040
8040
8040
8080
FF00
ENDCHAR
STARTCHAR Gamma
ENCODING 915
SWIDTH 1000 0
SWIDTH1 1000 0
BBX 10 14 4 0
BITMAP
FFC0
8000
8000
8000
8000
8000
8000
8000
8000
8000
8000
8000
8000
8000
ENDCHAR
STARTCHAR uni0394
ENCODING 916
SWIDTH 1000 0
SWIDTH1 1000 0
BBX 13 14 3 0
BITMAP
0200
0200
0500
0500
0880
0880
1040
1040
2020
2020
4010
4010
8008
FFF8
ENDCHAR
STARTCHAR Epsilon
ENCODING 917
SWIDTH 1000 0
SWIDTH1 1000 0
BBX 10 14 4 0
BITMAP
FFC0
8000
8000
8000
8000
8000
FE00
8000
8000
8000
8000
8000
8000
FFC0
ENDCHAR
STARTCHAR Zeta
ENCODING 918
SWIDTH 1000 0
SWIDTH1 1000 0
BBX 10 14 4 0
BITMAP
FFC0
0040
0080
0100
0200
0200
0400
0800
1000
1000
2000
4000
8000
FFC0
ENDCHAR
STARTCHAR Eta
ENCODING 919
SWIDTH 1000 0
SWIDTH1 1000 0
BBX 10 14 4 0
BITMAP
8040
8040
8040
8040
8040
8040
FFC0
8040
8040
8040
8040
8040
8040
8040
ENDCHAR
STARTCHAR Theta
ENCODING 920
SWIDTH 1000 0
SWIDTH1 1000 0
BBX 12 14 3 0
BITMAP
0F00
30C0
4020
4020
8010
8010
9F90
8010
8010
8010
4020
4020
30C0
0F00
ENDCHAR
STARTCHAR Iota
ENCODING 921
SWIDTH 1000 0
SWIDTH1 1000 0
BBX 3 14 8 0
BITMAP
E0
40
40
40
40
40
40
40
40
40
40
40
40
E0
ENDCHAR
STARTCHAR Kappa
ENCODING 922
SWIDTH 1000 0
SWIDTH1 1000 0
BBX 11 14 4 0
BITMAP
8040
8080
8100
8200
8400
8800
9000
A800
C400
8200
8100
8080
8040
8020
ENDCHAR
STARTCHAR Lambda
ENCODING 923
SWIDTH 1000 0
SWIDTH1 1000 0
BBX 11 14 4 0
BITMAP
0400
0400
0A00
0A00
1100
1100
1100
2080
2080
4040
4040
4040
8020
8020
ENDCHAR
STARTCHAR Mu
ENCODING 924
SWIDTH 1000 0
SWIDTH1 1000 0
BBX 13 14 3 0
BITMAP
8008
8008
C018
C018
A028
A028
9048
9048
8888
8888
8508
8508
8208
8208
ENDCHAR
STARTCHAR Nu
ENCODING 925
SWIDTH 1000 0
SWIDTH1 1000 0
BBX 10 14 4 0
BITMAP
8040
C040
C040
A040
9040
9040
8840
8440
8440
8240
8140
8140
80C0
8040
ENDCHAR
STARTCHAR Xi
ENCODING 926
SWIDTH 1000 0
SWIDTH1 1000 0
BBX 9 14 5 0
BITMAP
FF80
0000
0000
0000
0000
0000
7F00
0000
0000
0000
0000
0000
0000
FF80
ENDCHAR
STARTCHAR Omicron
ENCODING 927
SWIDTH 1000 0
SWIDTH1 1000 0
BBX 12 14 3 0
BITMAP
0F00
30C0
4020
4020
8010
8010
8010
8010
8010
8010
4020
4020
30C0
0F00
ENDCHAR
STARTCHAR Pi
ENCODING 928
SWIDTH 1000 0
SWIDTH1 1000 0
BBX 12 14 2 0
BITMAP
FFF0
2040
2040
2040
2040
2040
2040
2040
2040
2040
2040
2040
2040
2040
ENDCHAR
STARTCHAR Rho
ENCODING 929
SWIDTH 1000 0
SWIDTH1 1000 0
BBX 10 14 4 0
BITMAP
FF00
8080
8040
8040
8040
8080
FF00
8000
8000
8000
8000
8000
8000
8000
ENDCHAR
STARTCHAR Sigma
ENCODING 931
SWIDTH 1000 0
SWIDTH1 1000 0
BBX 10 14 4 0
BITMAP
FFC0
4000
2000
1000
0800
0400
0200
0200
0400
0800
1000
2000
4000
FFC0
ENDCHAR
STARTCHAR Tau
ENCODING 932
SWIDTH 1000 0
SWIDTH1 1000 0
BBX 11 14 4 0
BITMAP
FFE0
0400
0400
0400
0400
0400
0400
0400
0400
0400
0400
0400
0400
0400
ENDCHAR
STARTCHAR Upsilon
ENCODING 933
SWIDTH 1000 0
SWIDTH1 1000 0
BBX 11 14 4 0
BITMAP
8020
4040
2080
2080
1100
0A00
0400
0400
0400
0400
0400
0400
0400
0400
ENDCHAR
STARTCHAR Phi
ENCODING 934
SWIDTH 1000 0
SWIDTH1 1000 0
BBX 13 14 3 0
BITMAP
0200
0200
1FC0
6230
4210
8208
8208
8208
4210
6230
1FC0
0200
0200
0200
ENDCHAR
STARTCHAR Chi
ENCODING 935
SWIDTH 1000 0
SWIDTH1 1000 0
BBX 11 14 4 0
BITMAP
8020
4040
2080
2080
1100
0A00
0400
0A00
1100
1100
2080
4040
4040
8020
ENDCHAR
STARTCHAR Psi
ENCODING 936
SWIDTH 1000 0
SWIDTH1 1000 0
BBX 15 14 2 0
BITMAP
0100
C106
2108
2108
2108
2108
1110
1110
0920
07C0
0100
0100
0100
0100
ENDCHAR
STARTCHAR uni03A9
ENCODING 937
SWIDTH 1000 0
SWIDTH1 1000 0
BBX 11 14 4 0
BITMAP
0E00
3180
4040
4040
8020
8020
8020
8020
4040
4040
3180
1100
1100
F1E0
ENDCHAR
STARTCHAR alpha
ENCODING 945
SWIDTH 1000 0
SWIDTH1 1000 0
BBX 11 9 4 0
BITMAP
1C40
2240
4140
4180
8080
8100
8300
4520
38C0
ENDCHAR
STARTCHAR beta
ENCODING 946
SWIDTH 1000 0
SWIDTH1 1000 0
BBX 10 16 4 -2
BITMAP
0700
0880
1040
1040
2040
2680
2100
4080
4040
4040
4040
9040
8880
8700
8000
8000
ENDCHAR
STARTCHAR gamma
ENCODING 947
SWIDTH 1000 0
SWIDTH1 1000 0
BBX 11 11 4 -2
BITMAP
3060
4880
8500
0600
0600
0400
0800
0800
0800
1000
1000
ENDCHAR
STARTCHAR delta
ENCODING 948
SWIDTH 1000 0
SWIDTH1 1000 0
BBX 9 14 5 0
BITMAP
1800
2600
2100
1080
0800
1400
2200
4100
4100
8100
8200
8200
4400
3800
ENDCHAR
STARTCHAR epsilon
ENCODING 949
SWIDTH 1000 0
SWIDTH1 1000 0
BBX 7 9 5 0
BITMAP
1C
22
40
40
38
40
82
84
78
ENDCHAR
STARTCHAR zeta
ENCODING 950
SWIDTH 1000 0
SWIDTH1 1000 0
BBX 9 16 5 -2
BITMAP
3800
4000
4180
3600
0800
1000
2000
4000
8000
8000
8000
6000
1C00
0200
0200
3C00
ENDCHAR
STARTCHAR eta
ENCODING 951
SWIDTH 1000 0
SWIDTH1 1000 0
BBX 10 11 4 -2
BITMAP
3780
4840
8840
1080
1080
1080
2100
2100
0100
0200
0200
ENDCHAR
STARTCHAR theta
ENCODING 952
SWIDTH 1000 0
SWIDTH1 1000 0
BBX 9 14 5 0
BITMAP
0600
0900
1080
2080
2080
4080
7F00
8100
8100
8200
8200
8400
4800
3000
ENDCHAR
STARTCHAR iota
ENCODING 953
SWIDTH 1000 0
SWIDTH1 1000 0
BBX 5 9 7 0
BITMAP
20
20
20
40
40
80
88
90
60
ENDCHAR
STARTCHAR kappa
ENCODING 954
SWIDTH 1000 0
SWIDTH1 1000 0
BBX 10 9 5 0
BITMAP
20C0
2100
2200
4400
7800
4400
8400
8240
8180
ENDCHAR
STARTCHAR lambda
ENCODING 955
SWIDTH 1000 0
SWIDTH1 1000 0
BBX 9 14 5 0
BITMAP
1800
2400
0400
0400
0400
0C00
0C00
1400
1400
2200
2200
4200
4200
8180
ENDCHAR
STARTCHAR uni03BC
ENCODING 956
SWIDTH 1000 0
SWIDTH1 1000 0
BBX 10 11 5 -2
BITMAP
2100
2100
2100
2100
4200
4200
4240
BD80
8000
8000
8000
ENDCHAR
STARTCHAR nu
ENCODING 957
SWIDTH 1000 0
SWIDTH1 1000 0
BBX 10 9 4 0
BITMAP
6040
9040
1040
1040
1080
2080
2100
4600
7800
ENDCHAR
STARTCHAR xi
ENCODING 958
SWIDTH 1000 0
SWIDTH1 1000 0
BBX 8 16 5 -2
BITMAP
0F
10
10
0F
10
20
3F
40
80
80
80
70
0E
01
01
3E
ENDCHAR
STARTCHAR omicron
ENCODING 959
SWIDTH 1000 0
SWIDTH1 1000 0
BBX 8 9 5 0
BITMAP
1C
22
41
41
81
82
82
44
38
ENDCHAR
STARTCHAR pi
ENCODING 960
SWIDTH 1000 0
SWIDTH1 1000 0
BBX 10 10 4 0
BITMAP
0040
7F80
9200
1200
1200
2400
2400
4440
C480
8300
ENDCHAR
STARTCHAR rho
ENCODING 961
SWIDTH 1000 0
SWIDTH1 1000 0
BBX 9 11 5 -2
BITMAP
0E00
1100
2080
2080
4080
6080
5100
4E00
8000
8000
8000
ENDCHAR
STARTCHAR sigma
ENCODING 963
SWIDTH 1000 0
SWIDTH1 1000 0
BBX 10 10 5 0
BITMAP
0040
1F80
2200
4100
4100
8100
8200
8200
4400
3800
ENDCHAR
STARTCHAR tau
ENCODING 964
SWIDTH 1000 0
SWIDTH1 1000 0
BBX 9 10 5 0
BITMAP
0080
7F00
8800
0800
1000
1000
2000
2100
2200
1C00
ENDCHAR
STARTCHAR upsilon
ENCODING 965
SWIDTH 1000 0
SWIDTH1 1000 0
BBX 8 9 6 0
BITMAP
8C
82
81
81
81
81
81
42
3C
ENDCHAR
STARTCHAR phi
ENCODING 966
SWIDTH 1000 0
SWIDTH1 1000 0
BBX 11 16 4 -2
BITMAP
0200
0200
0200
0200
0400
0F80
3440
4420
4420
8840
8840
4980
3E00
1000
1000
1000
ENDCHAR
STARTCHAR chi
ENCODING 967
SWIDTH 1000 0
SWIDTH1 1000 0
BBX 11 11 4 -2
BITMAP
7020
0840
0880
0900
0A00
0400
0800
1400
2400
4400
83C0
ENDCHAR
STARTCHAR psi
ENCODING 968
SWIDTH 1000 0
SWIDTH1 1000 0
BBX 12 16 3 -2
BITMAP
0080
0080
0080
0080
0100
6110
9110
1110
2110
2220
2220
12C0
0F00
0400
0400
0400
ENDCHAR
STARTCHAR omega
ENCODING 969
SWIDTH 1000 0
SWIDTH1 1000 0
BBX 12 9 3 0
BITMAP
2040
4020
4010
8210
8210
8410
8410
4A20
31C0
ENDCHAR
STARTCHAR uni0401
ENCODING 1025
SWIDTH 1000 0
SWIDTH1 1000 0
BBX 10 15 4 0
BITMAP
3300
3300
0000
FFC0
8000
8000
8000
8000
FF00
8000
8000
8000
8000
8000
FFC0
ENDCHAR
STARTCHAR uni0410
ENCODING 1040
SWIDTH 1000 0
SWIDTH1 1000 0
BBX 11 14 4 0
BITMAP
0400
0400
0A00
0A00
1100
1100
1100
2080
2080
7FC0
4040
4040
8020
8020
ENDCHAR
STARTCHAR uni0411
ENCODING 1041
SWIDTH 1000 0
SWIDTH1 1000 0
BBX 10 14 4 0
BITMAP
FF80
8000
8000
8000
8000
8000
FF00
8080
8040
8040
8040
8040
8080
FF00
ENDCHAR
STARTCHAR uni0412
ENCODING 1042
SWIDTH 1000 0
SWIDTH1 1000 0
BBX 10 14 4 0
BITMAP
FE00
8100
8080
8080
8080
8100
FF00
8080
8040
8040
8040
8040
8080
FF00
ENDCHAR
STARTCHAR uni0413
ENCODING 1043
SWIDTH 1000 0
SWIDTH1 1000 0
BBX 10 14 4 0
BITMAP
FFC0
8000
8000
8000
8000
8000
8000
8000
8000
8000
8000
8000
8000
8000
ENDCHAR
STARTCHAR uni0414
ENCODING 1044
SWIDTH 1000 0
SWIDTH1 1000 0
BBX 12 16 3 -2
BITMAP
1FE0
1020
1020
1020
1020
1020
1020
1020
1020
1020
2020
2020
4020
FFF0
8010
8010
ENDCHAR
STARTCHAR uni0415
ENCODING 1045
SWIDTH 1000 0
SWIDTH1 1000 0
BBX 10 14 4 0
BITMAP
FFC0
8000
8000
8000
8000
8000
FF00
8000
8000
8000
8000
8000
8000
FFC0
ENDCHAR
STARTCHAR uni0416
ENCODING 1046
SWIDTH 1000 0
SWIDTH1 1000 0
BBX 15 14 2 0
BITMAP
C106
2108
1110
1110
1110
1110
0920
0FE0
1110
1110
2108
4104
4104
8102
ENDCHAR
STARTCHAR uni0417
ENCODING 1047
SWIDTH 1000 0
SWIDTH1 1000 0
BBX 10 14 4 0
BITMAP
3F00
4080
8040
0040
0040
0080
0F00
0080
0040
0040
0040
8040
4080
3F00
ENDCHAR
STARTCHAR uni0418
ENCODING 1048
SWIDTH 1000 0
SWIDTH1 1000 0
BBX 10 14 4 0
BITMAP
8040
8040
80C0
8140
8140
8240
8440
8440
8840
9040
9040
A040
C040
8040
ENDCHAR
STARTCHAR uni0419
ENCODING 1049
SWIDTH 1000 0
SWIDTH1 1000 0
BBX 10 15 4 0
BITMAP
2100
2100
1E00
8040
8040
80C0
8140
8240
8440
8840
9040
A040
C040
8040
8040
ENDCHAR
STARTCHAR uni041A
ENCODING 1050
SWIDTH 1000 0
SWIDTH1 1000 0
BBX 11 14 4 0
BITMAP
80C0
8100
8200
8200
8200
8200
FC00
8200
8100
8100
8080
8040
8040
8020
ENDCHAR
STARTCHAR uni041B
ENCODING 1051
SWIDTH 1000 0
SWIDTH1 1000 0
BBX 11 14 3 0
BITMAP
1FE0
1020
1020
1020
1020
1020
1020
1020
1020
1020
1020
2020
2020
C020
ENDCHAR
STARTCHAR uni041C
ENCODING 1052
SWIDTH 1000 0
SWIDTH1 1000 0
BBX 13 14 3 0
BITMAP
8008
8008
C018
C018
A028
A028
9048
9048
8888
8888
8508
8508
8208
8208
ENDCHAR
STARTCHAR uni041D
ENCODING 1053
SWIDTH 1000 0
SWIDTH1 1000 0
BBX 10 14 4 0
BITMAP
8040
8040
8040
8040
8040
8040
FFC0
8040
8040
8040
8040
8040
8040
8040
ENDCHAR
STARTCHAR uni041E
ENCODING 1054
SWIDTH 1000 0
SWIDTH1 1000 0
BBX 12 14 3 0
BITMAP
0F00
30C0
4020
4020
8010
8010
8010
8010
8010
8010
4020
4020
30C0
0F00
ENDCHAR
STARTCHAR uni041F
ENCODING 1055
SWIDTH 1000 0
SWIDTH1 1000 0
BBX 10 14 4 0
BITMAP
FFC0
8040
8040
8040
8040
8040
8040
8040
8040
8040
8040
8040
8040
8040
ENDCHAR
STARTCHAR uni0420
ENCODING 1056
SWIDTH 1000 0
SWIDTH1 1000 0
BBX 10 14 4 0
BITMAP
FF00
8080
8040
8040
8040
8080
FF00
8000
8000
8000
8000
8000
8000
8000
ENDCHAR
STARTCHAR uni0421
ENCODING 1057
SWIDTH 1000 0
SWIDTH1 1000 0
BBX 12 14 3 0
BITMAP
0F80
3060
4010
4010
8000
8000
8000
8000
8000
8000
4010
4010
3060
0F80
ENDCHAR
STARTCHAR uni0422
ENCODING 1058
SWIDTH 1000 0
SWIDTH1 1000 0
BBX 11 14 4 0
BITMAP
FFE0
0400
0400
0400
0400
0400
0400
0400
0400
0400
0400
0400
0400
0400
ENDCHAR
STARTCHAR uni0423
ENCODING 1059
SWIDTH 1000 0
SWIDTH1 1000 0
BBX 11 14 4 0
BITMAP
8020
4040
4040
2080
2080
1100
1100
0A00
0A00
0400
0800
0800
1000
E000
ENDCHAR
STARTCHAR uni0424
ENCODING 1060
SWIDTH 1000 0
SWIDTH1 1000 0
BBX 13 14 3 0
BITMAP
0200
0200
1FC0
2220
4210
8208
8208
8208
4210
2220
1FC0
0200
0200
0200
ENDCHAR
STARTCHAR uni0425
ENCODING 1061
SWIDTH 1000 0
SWIDTH1 1000 0
BBX 11 14 4 0
BITMAP
8020
4040
2080
2080
1100
0A00
0400
0A00
1100
1100
2080
4040
4040
8020
ENDCHAR
STARTCHAR uni0426
ENCODING 1062
SWIDTH 1000 0
SWIDTH1 1000 0
BBX 11 16 4 -2
BITMAP
8080
8080
8080
8080
8080
8080
8080
8080
8080
8080
8080
8080
8080
FFE0
0020
0020
ENDCHAR
STARTCHAR uni0427
ENCODING 1063
SWIDTH 1000 0
SWIDTH1 1000 0
BBX 10 14 4 0
BITMAP
8040
8040
8040
8040
8040
8040
40C0
3F40
0040
0040
0040
0040
0040
0040
ENDCHAR
STARTCHAR uni0428
ENCODING 1064
SWIDTH 1000 0
SWIDTH1 1000 0
BBX 13 14 3 0
BITMAP
8208
8208
8208
8208
8208
8208
8208
8208
8208
8208
8208
8208
8208
FFF8
ENDCHAR
STARTCHAR uni0429
ENCODING 1065
SWIDTH 1000 0
SWIDTH1 1000 0
BBX 15 16 2 -2
BITMAP
8208
8208
8208
8208
8208
8208
8208
8208
8208
8208
8208
8208
8208
FFFE
0002
0002
ENDCHAR
STARTCHAR uni042A
ENCODING 1066
SWIDTH 1000 0
SWIDTH1 1000 0
BBX 14 14 2 0
BITMAP
F800
0800
0800
0800
0800
0800
0FF0
0808
0804
0804
0804
0804
0808
0FF0
ENDCHAR
STARTCHAR uni042B
ENCODING 1067
SWIDTH 1000 0
SWIDTH1 1000 0
BBX 12 14 3 0
BITMAP
8010
8010
8010
8010
8010
8010
FE10
8110
8090
8090
8090
8090
8110
FE10
ENDCHAR
STARTCHAR uni042C
ENCODING 1068
SWIDTH 1000 0
SWIDTH1 1000 0
BBX 10 14 4 0
BITMAP
8000
8000
8000
8000
8000
8000
FF00
8080
8040
8040
8040
8040
8080
FF00
ENDCHAR
STARTCHAR uni042D
ENCODING 1069
SWIDTH 1000 0
SWIDTH1 1000 0
BBX 11 14 4 0
BITMAP
1E00
6180
8040
0040
0020
0020
1FE0
0020
0020
0020
0040
8040
6180
1E00
ENDCHAR
STARTCHAR uni042E
ENCODING 1070
SWIDTH 1000 0
SWIDTH1 1000 0
BBX 15 14 2 0
BITMAP
80E0
8318
8404
8404
8802
8802
F802
8802
8802
8802
8404
8404
8318
80E0
ENDCHAR
STARTCHAR uni042F
ENCODING 1071
SWIDTH 1000 0
SWIDTH1 1000 0
BBX 11 14 3 0
BITMAP
1FE0
2020
4020
4020
4020
2020
1FE0
0820
1020
1020
2020
4020
4020
8020
ENDCHAR
STARTCHAR uni0430
ENCODING 1072
SWIDTH 1000 0
SWIDTH1 1000 0
BBX 9 9 5 0
BITMAP
3C00
4200
8100
0100
3F00
4100
8100
8300
7D80
ENDCHAR
STARTCHAR uni0431
ENCODING 1073
SWIDTH 1000 0
SWIDTH1 1000 0
BBX 8 14 5 0
BITMAP
01
3E
40
80
80
BC
C2
81
81
81
81
81
42
3C
ENDCHAR
STARTCHAR uni0432
ENCODING 1074
SWIDTH 1000 0
SWIDTH1 1000 0
BBX 8 9 5 0
BITMAP
FE
81
81
81
FE
81
81
81
FE
ENDCHAR
STARTCHAR uni0433
ENCODING 1075
SWIDTH 1000 0
SWIDTH1 1000 0
BBX 7 9 6 0
BITMAP
FE
80
80
80
80
80
80
80
80
ENDCHAR
STARTCHAR uni0434
ENCODING 1076
SWIDTH 1000 0
SWIDTH1 1000 0
BBX 10 11 4 -2
BITMAP
3F80
2080
2080
2080
2080
2080
2080
4080
FFC0
8040
8040
ENDCHAR
STARTCHAR uni0435
ENCODING 1077
SWIDTH 1000 0
SWIDTH1 1000 0
BBX 8 9 5 0
BITMAP
3C
42
81
81
FF
80
81
42
3C
ENDCHAR
STARTCHAR uni0436
ENCODING 1078
SWIDTH 1000 0
SWIDTH1 1000 0
BBX 13 9 3 0
BITMAP
C218
2220
2220
2220
1FC0
2220
2220
4210
8208
ENDCHAR
STARTCHAR uni0437
ENCODING 1079
SWIDTH 1000 0
SWIDTH1 1000 0
BBX 7 9 6 0
BITMAP
7C
82
02
02
3C
02
02
82
7C
ENDCHAR
STARTCHAR uni0438
ENCODING 1080
SWIDTH 1000 0
SWIDTH1 1000 0
BBX 8 9 5 0
BITMAP
81
81
83
85
89
91
A1
C1
81
ENDCHAR
STARTCHAR uni0439
ENCODING 1081
SWIDTH 1000 0
SWIDTH1 1000 0
BBX 8 12 5 0
BITMAP
42
3C
00
81
81
83
85
89
91
A1
C1
81
ENDCHAR
STARTCHAR uni043A
ENCODING 1082
SWIDTH 1000 0
SWIDTH1 1000 0
BBX 7 9 6 0
BITMAP
86
88
88
88
F0
88
84
84
82
ENDCHAR
STARTCHAR uni043B
ENCODING 1083
SWIDTH 1000 0
SWIDTH1 1000 0
BBX 9 9 4 0
BITMAP
1F80
1080
1080
1080
1080
1080
1080
2080
C080
ENDCHAR
STARTCHAR uni043C
ENCODING 1084
SWIDTH 1000 0
SWIDTH1 1000 0
BBX 9 9 5 0
BITMAP
8080
C180
C180
A280
A280
9480
9480
8880
8880
ENDCHAR
STARTCHAR uni043D
ENCODING 1085
SWIDTH 1000 0
SWIDTH1 1000 0
BBX 7 9 6 0
BITMAP
82
82
82
82
FE
82
82
82
82
ENDCHAR
STARTCHAR uni043E
ENCODING 1086
SWIDTH 1000 0
SWIDTH1 1000 0
BBX 7 9 6 0
BITMAP
38
44
82
82
82
82
82
44
38
ENDCHAR
STARTCHAR uni043F
ENCODING 1087
SWIDTH 1000 0
SWIDTH1 1000 0
BBX 7 9 6 0
BITMAP
FE
82
82
82
82
82
82
82
82
ENDCHAR
STARTCHAR uni0440
ENCODING 1088
SWIDTH 1000 0
SWIDTH1 1000 0
BBX 7 11 6 -2
BITMAP
B8
C4
82
82
82
82
C4
B8
80
80
80
ENDCHAR
STARTCHAR uni0441
ENCODING 1089
SWIDTH 1000 0
SWIDTH1 1000 0
BBX 8 9 5 0
BITMAP
3C
42
81
80
80
80
81
42
3C
ENDCHAR
STARTCHAR uni0442
ENCODING 1090
SWIDTH 1000 0
SWIDTH1 1000 0
BBX 9 9 5 0
BITMAP
FF80
0800
0800
0800
0800
0800
0800
0800
0800
ENDCHAR
STARTCHAR uni0443
ENCODING 1091
SWIDTH 1000 0
SWIDTH1 1000 0
BBX 9 11 5 -2
BITMAP
8080
4100
4100
2200
2200
1400
1400
0800
0800
1000
6000
ENDCHAR
STARTCHAR uni0444
ENCODING 1092
SWIDTH 1000 0
SWIDTH1 1000 0
BBX 11 16 4 -2
BITMAP
0400
0400
0400
0400
0400
3580
4E40
8420
8420
8420
8420
4E40
3580
0400
0400
0400
ENDCHAR
STARTCHAR uni0445
ENCODING 1093
SWIDTH 1000 0
SWIDTH1 1000 0
BBX 9 9 5 0
BITMAP
8080
4100
2200
1400
0800
1400
2200
4100
8080
ENDCHAR
STARTCHAR uni0446
ENCODING 1094
SWIDTH 1000 0
SWIDTH1 1000 0
BBX 9 11 5 -2
BITMAP
8200
8200
8200
8200
8200
8200
8200
8200
FF80
0080
0080
ENDCHAR
STARTCHAR uni0447
ENCODING 1095
SWIDTH 1000 0
SWIDTH1 1000 0
BBX 7 9 5 0
BITMAP
82
82
82
82
86
7A
02
02
02
ENDCHAR
STARTCHAR uni0448
ENCODING 1096
SWIDTH 1000 0
SWIDTH1 1000 0
BBX 11 9 4 0
BITMAP
8420
8420
8420
8420
8420
8420
8420
8420
FFE0
ENDCHAR
STARTCHAR uni0449
ENCODING 1097
SWIDTH 1000 0
SWIDTH1 1000 0
BBX 12 11 4 -2
BITMAP
8420
8420
8420
8420
8420
8420
8420
8420
FFF0
0010
0010
ENDCHAR
STARTCHAR uni044A
ENCODING 1098
SWIDTH 1000 0
SWIDTH1 1000 0
BBX 11 9 4 0
BITMAP
F000
1000
1000
1F80
1040
1020
1020
1040
1F80
ENDCHAR
STARTCHAR uni044B
ENCODING 1099
SWIDTH 1000 0
SWIDTH1 1000 0
BBX 10 9 4 0
BITMAP
8040
8040
8040
F840
8440
8240
8240
8440
F840
ENDCHAR
STARTCHAR uni044C
ENCODING 1100
SWIDTH 1000 0
SWIDTH1 1000 0
BBX 8 9 6 0
BITMAP
80
80
80
FC
82
81
81
82
FC
ENDCHAR
STARTCHAR uni044D
ENCODING 1101
SWIDTH 1000 0
SWIDTH1 1000 0
BBX 8 9 5 0
BITMAP
7C
82
01
01
3F
01
01
82
7C
ENDCHAR
STARTCHAR uni044E
ENCODING 1102
SWIDTH 1000 0
SWIDTH1 1000 0
BBX 11 9 4 0
BITMAP
8380
8440
8820
8820
F820
8820
8820
8440
8380
ENDCHAR
STARTCHAR uni044F
ENCODING 1103
SWIDTH 1000 0
SWIDTH1 1000 0
BBX 8 9 5 0
BITMAP
7F
81
81
81
7F
21
41
41
81
ENDCHAR
STARTCHAR uni0451
ENCODING 1105
SWIDTH 1000 0
SWIDTH1 1000 0
BBX 8 12 5 0
BITMAP
66
66
00
3C
42
81
81
FF
80
81
42
3C
ENDCHAR
STARTCHAR uni2010
ENCODING 8208
SWIDTH 1000 0
SWIDTH1 1000 0
BBX 4 1 6 6
BITMAP
F0
ENDCHAR
STARTCHAR endash
ENCODING 8211
SWIDTH 1000 0
SWIDTH1 1000 0
BBX 6 1 5 6
BITMAP
FC
ENDCHAR
STARTCHAR emdash
ENCODING 8212
SWIDTH 1000 0
SWIDTH1 1000 0
BBX 16 1 0 6
BITMAP
FFFF
ENDCHAR
STARTCHAR uni2015
ENCODING 8213
SWIDTH 1000 0
SWIDTH1 1000 0
BBX 14 1 1 6
BITMAP
FFFC
ENDCHAR
STARTCHAR uni2016
ENCODING 8214
SWIDTH 1000 0
SWIDTH1 1000 0
BBX 4 16 6 -2
BITMAP
90
90
90
90
90
90
90
90
90
90
90
90
90
90
90
90
ENDCHAR
STARTCHAR quoteleft
ENCODING 8216
SWIDTH 1000 0
SWIDTH1 1000 0
BBX 3 5 11 8
BITMAP
20
40
80
C0
C0
ENDCHAR
STARTCHAR quoteright
ENCODING 8217
SWIDTH 1000 0
SWIDTH1 1000 0
BBX 3 5 2 8
BITMAP
60
60
20
40
80
ENDCHAR
STARTCHAR quotesinglbase
ENCODING 8218
SWIDTH 500 0
DWIDTH 10 0
SWIDTH1 1000 0
BBX 1 1 0 0
BITMAP
00
ENDCHAR
STARTCHAR quotedblleft
ENCODING 8220
SWIDTH 1000 0
SWIDTH1 1000 0
BBX 7 5 8 8
BITMAP
22
44
88
CC
CC
ENDCHAR
STARTCHAR quotedblright
ENCODING 8221
SWIDTH 1000 0
SWIDTH1 1000 0
BBX 7 5 1 8
BITMAP
66
66
22
44
88
ENDCHAR
STARTCHAR quotedblbase
ENCODING 8222
SWIDTH 500 0
DWIDTH 10 0
SWIDTH1 1000 0
BBX 1 1 0 0
BITMAP
00
ENDCHAR
STARTCHAR dagger
ENCODING 8224
SWIDTH 500 0
DWIDTH 10 0
SWIDTH1 1000 0
BBX 7 14 0 -2
BITMAP
10
38
10
54
FE
54
10
38
10
10
10
10
10
10
ENDCHAR
STARTCHAR daggerdbl
ENCODING 8225
SWIDTH 500 0
DWIDTH 10 0
SWIDTH1 1000 0
BBX 5 14 2 -2
BITMAP
20
70
20
F8
20
20
70
70
20
20
F8
20
70
20
ENDCHAR
STARTCHAR bullet
ENCODING 8226
SWIDTH 500 0
DWIDTH 10 0
SWIDTH1 1000 0
BBX 3 3 3 6
BITMAP
E0
E0
E0
ENDCHAR
STARTCHAR twodotenleader
ENCODING 8229
SWIDTH 1000 0
SWIDTH1 1000 0
BBX 8 2 5 6
BITMAP
C3
C3
ENDCHAR
STARTCHAR ellipsis
ENCODING 8230
SWIDTH 1000 0
SWIDTH1 1000 0
BBX 14 2 2 5
BITMAP
C30C
C30C
ENDCHAR
STARTCHAR perthousand
ENCODING 8240
SWIDTH 1000 0
SWIDTH1 1000 0
BBX 16 14 0 -1
BITMAP
6000
9020
9040
9080
9100
9200
6400
0986
1249
2249
4249
8249
0249
0186
ENDCHAR
STARTCHAR minute
ENCODING 8242
SWIDTH 1000 0
SWIDTH1 1000 0
BBX 2 6 2 7
BITMAP
40
40
40
80
80
80
ENDCHAR
STARTCHAR second
ENCODING 8243
SWIDTH 1000 0
SWIDTH1 1000 0
BBX 5 5 2 8
BITMAP
48
48
48
90
90
ENDCHAR
STARTCHAR uni2035
ENCODING 8245
SWIDTH 1000 0
SWIDTH1 1000 0
BBX 3 4 6 9
BITMAP
C0
40
20
20
ENDCHAR
STARTCHAR guilsinglleft
ENCODING 8249
SWIDTH 500 0
DWIDTH 10 0
SWIDTH1 1000 0
BBX 3 8 2 2
BITMAP
20
40
40
80
80
40
40
20
ENDCHAR
STARTCHAR guilsinglright
ENCODING 8250
SWIDTH 500 0
DWIDTH 10 0
SWIDTH1 1000 0
BBX 3 8 1 1
BITMAP
80
40
40
20
20
40
40
80
ENDCHAR
STARTCHAR uni203B
ENCODING 8251
SWIDTH 1000 0
SWIDTH1 1000 0
BBX 12 12 2 0
BITMAP
8610
4620
2040
1080
0900
C630
C630
0900
1080
2040
4620
8610
ENDCHAR
STARTCHAR Euro
ENCODING 8364
SWIDTH 1000 0
SWIDTH1 1000 0
BBX 11 12 3 1
BITMAP
0020
0FA0
1060
2020
2020
FF00
2000
FE00
2000
2020
1040
0F80
ENDCHAR
STARTCHAR uni2103
ENCODING 8451
SWIDTH 1000 0
SWIDTH1 1000 0
BBX 16 15 1 0
BITMAP
7000
8878
8884
8902
7101
0201
0200
0200
0200
0200
0201
0101
0102
0084
0078
ENDCHAR
STARTCHAR uni2105
ENCODING 8453
SWIDTH 1000 0
SWIDTH1 1000 0
BBX 8 14 1 0
BITMAP
31
52
42
84
94
68
08
10
16
25
29
49
4A
86
ENDCHAR
STARTCHAR uni2109
ENCODING 8457
SWIDTH 1000 0
SWIDTH1 1000 0
BBX 14 13 0 0
BITMAP
6FFC
9104
9104
6100
0110
01F0
0110
0110
0100
0100
0100
0100
0780
ENDCHAR
STARTCHAR uni2116
ENCODING 8470
SWIDTH 1000 0
SWIDTH1 1000 0
BBX 17 14 1 0
BITMAP
820000
820000
C20000
C20000
A20000
A23800
924400
928200
8A8200
8A8200
868200
868200
824580
823980
ENDCHAR
STARTCHAR uni2121
ENCODING 8481
SWIDTH 1000 0
SWIDTH1 1000 0
BBX 11 5 3 10
BITMAP
EE80
4880
4E80
4880
4EE0
ENDCHAR
STARTCHAR trademark
ENCODING 8482
SWIDTH 500 0
DWIDTH 10 0
SWIDTH1 1000 0
BBX 9 8 0 7
BITMAP
ED80
4D80
4D80
4D80
4A80
4A80
4A80
4A80
ENDCHAR
STARTCHAR uni2160
ENCODING 8544
SWIDTH 1000 0
SWIDTH1 1000 0
BBX 5 14 7 0
BITMAP
F8
20
20
20
20
20
20
20
20
20
20
20
20
F8
ENDCHAR
STARTCHAR uni2161
ENCODING 8545
SWIDTH 1000 0
SWIDTH1 1000 0
BBX 9 14 5 0
BITMAP
FF80
2200
2200
2200
2200
2200
2200
2200
2200
2200
2200
2200
2200
FF80
ENDCHAR
STARTCHAR uni2162
ENCODING 8546
SWIDTH 1000 0
SWIDTH1 1000 0
BBX 13 14 3 0
BITMAP
FFF8
2220
2220
2220
2220
2220
2220
2220
2220
2220
2220
2220
2220
FFF8
ENDCHAR
STARTCHAR uni2163
ENCODING 8547
SWIDTH 1000 0
SWIDTH1 1000 0
BBX 15 14 2 0
BITMAP
FE3E
2808
2808
2410
2410
2410
2220
2220
2220
2140
2140
2140
2080
F880
ENDCHAR
STARTCHAR uni2164
ENCODING 8548
SWIDTH 1000 0
SWIDTH1 1000 0
BBX 15 14 2 0
BITMAP
F83E
2008
2008
1010
1010
0820
0820
0440
0440
0440
0280
0280
0100
0100
ENDCHAR
STARTCHAR uni2165
ENCODING 8549
SWIDTH 1000 0
SWIDTH1 1000 0
BBX 15 14 2 0
BITMAP
F8FE
2028
2028
1048
1048
1048
0888
0888
0888
0508
0508
0508
0208
023E
ENDCHAR
STARTCHAR uni2166
ENCODING 8550
SWIDTH 1000 0
SWIDTH1 1000 0
BBX 16 14 1 0
BITMAP
E0FF
4052
4052
2092
2092
2092
1112
1112
1112
0A12
0A12
0A12
0412
043F
ENDCHAR
STARTCHAR uni2167
ENCODING 8551
SWIDTH 1000 0
SWIDTH1 1000 0
BBX 17 14 1 0
BITMAP
E3FF80
414900
414900
224900
224900
224900
224900
144900
144900
144900
144900
084900
084900
08FF80
ENDCHAR
STARTCHAR uni2168
ENCODING 8552
SWIDTH 1000 0
SWIDTH1 1000 0
BBX 17 14 1 0
BITMAP
FF0F80
240200
220400
210800
210800
209000
206000
206000
209000
210800
210800
220400
240200
FF0F80
ENDCHAR
STARTCHAR uni2169
ENCODING 8553
SWIDTH 1000 0
SWIDTH1 1000 0
BBX 14 14 2 0
BITMAP
F87C
2010
1020
0840
0840
0480
0300
0300
0480
0840
0840
1020
2010
F87C
ENDCHAR
STARTCHAR uni216A
ENCODING 8554
SWIDTH 1000 0
SWIDTH1 1000 0
BBX 1 1 17 -2
BITMAP
00
ENDCHAR
STARTCHAR uni216B
ENCODING 8555
SWIDTH 1000 0
SWIDTH1 1000 0
BBX 1 1 17 -2
BITMAP
00
ENDCHAR
STARTCHAR uni2170
ENCODING 8560
SWIDTH 1000 0
SWIDTH1 1000 0
BBX 3 14 8 0
BITMAP
40
40
00
00
00
C0
40
40
40
40
40
40
40
E0
ENDCHAR
STARTCHAR uni2171
ENCODING 8561
SWIDTH 1000 0
SWIDTH1 1000 0
BBX 7 14 6 0
BITMAP
44
44
00
00
00
CC
44
44
44
44
44
44
44
EE
ENDCHAR
STARTCHAR uni2172
ENCODING 8562
SWIDTH 1000 0
SWIDTH1 1000 0
BBX 11 14 4 0
BITMAP
4440
4440
0000
0000
0000
CCC0
4440
4440
4440
4440
4440
4440
4440
EEE0
ENDCHAR
STARTCHAR uni2173
ENCODING 8563
SWIDTH 1000 0
SWIDTH1 1000 0
BBX 12 14 3 0
BITMAP
4000
4000
0000
0000
0000
DC70
4820
4820
4440
4440
4280
4280
4100
E100
ENDCHAR
STARTCHAR uni2174
ENCODING 8564
SWIDTH 1000 0
SWIDTH1 1000 0
BBX 9 9 5 0
BITMAP
E380
4100
4100
2200
2200
1400
1400
0800
0800
ENDCHAR
STARTCHAR uni2175
ENCODING 8565
SWIDTH 1000 0
SWIDTH1 1000 0
BBX 12 14 3 0
BITMAP
0020
0020
0000
0000
0000
E3E0
4120
4120
2220
2220
1420
1420
0820
0870
ENDCHAR
STARTCHAR uni2176
ENCODING 8566
SWIDTH 1000 0
SWIDTH1 1000 0
BBX 15 14 2 0
BITMAP
0024
0024
0000
0000
0000
E3EC
4124
4124
2224
2224
1424
1424
0824
087E
ENDCHAR
STARTCHAR uni2177
ENCODING 8567
SWIDTH 1000 0
SWIDTH1 1000 0
BBX 16 14 1 0
BITMAP
0092
0092
0000
0000
0000
EFB6
4492
4492
4492
2892
2892
2892
1092
11FF
ENDCHAR
STARTCHAR uni2178
ENCODING 8568
SWIDTH 1000 0
SWIDTH1 1000 0
BBX 12 14 3 0
BITMAP
4000
4000
0000
0000
0000
DC70
4820
4440
4280
4100
4280
4440
4820
FC70
ENDCHAR
STARTCHAR uni2179
ENCODING 8569
SWIDTH 1000 0
SWIDTH1 1000 0
BBX 11 9 4 0
BITMAP
F1E0
2080
1100
0A00
0400
0A00
1100
2080
F1E0
ENDCHAR
STARTCHAR arrowleft
ENCODING 8592
SWIDTH 1000 0
SWIDTH1 1000 0
BBX 17 7 1 3
BITMAP
100000
200000
400000
FFFF80
400000
200000
100000
ENDCHAR
STARTCHAR arrowup
ENCODING 8593
SWIDTH 1000 0
SWIDTH1 1000 0
BBX 7 17 6 -2
BITMAP
10
38
54
92
10
10
10
10
10
10
10
10
10
10
10
10
10
ENDCHAR
STARTCHAR arrowright
ENCODING 8594
SWIDTH 1000 0
SWIDTH1 1000 0
BBX 17 7 1 3
BITMAP
000400
000200
000100
FFFF80
000100
000200
000400
ENDCHAR
STARTCHAR arrowdown
ENCODING 8595
SWIDTH 1000 0
SWIDTH1 1000 0
BBX 7 17 6 -2
BITMAP
10
10
10
10
10
10
10
10
10
10
10
10
10
92
54
38
10
ENDCHAR
STARTCHAR uni2196
ENCODING 8598
SWIDTH 1000 0
SWIDTH1 1000 0
BBX 10 10 3 1
BITMAP
F800
C000
A000
9000
0800
0400
0200
0100
0080
0040
ENDCHAR
STARTCHAR uni2197
ENCODING 8599
SWIDTH 1000 0
SWIDTH1 1000 0
BBX 10 10 3 1
BITMAP
07C0
00C0
0140
0240
0400
0800
1000
2000
4000
8000
ENDCHAR
STARTCHAR uni2198
ENCODING 8600
SWIDTH 1000 0
SWIDTH1 1000 0
BBX 10 10 3 1
BITMAP
8000
4000
2000
1000
0800
0400
0240
0140
00C0
03C0
ENDCHAR
STARTCHAR uni2199
ENCODING 8601
SWIDTH 1000 0
SWIDTH1 1000 0
BBX 10 10 3 1
BITMAP
0040
0080
0100
0200
0400
0800
9000
A000
C000
F000
ENDCHAR
STARTCHAR element
ENCODING 8712
SWIDTH 1000 0
SWIDTH1 1000 0
BBX 13 11 3 1
BITMAP
1FF8
6000
4000
8000
8000
FFF8
8000
8000
4000
6000
1FF8
ENDCHAR
STARTCHAR product
ENCODING 8719
SWIDTH 1000 0
SWIDTH1 1000 0
BBX 6 14 2 0
BITMAP
FC
84
84
84
84
84
84
84
84
84
84
84
84
84
ENDCHAR
STARTCHAR summation
ENCODING 8721
SWIDTH 1000 0
SWIDTH1 1000 0
BBX 11 12 4 1
BITMAP
FFE0
4000
2000
1000
0800
0400
0400
0800
1000
2000
4000
FFE0
ENDCHAR
STARTCHAR uni2215
ENCODING 8725
SWIDTH 1000 0
SWIDTH1 1000 0
BBX 8 16 1 -1
BITMAP
01
01
02
02
04
04
08
08
10
10
20
20
40
40
80
80
ENDCHAR
STARTCHAR radical
ENCODING 8730
SWIDTH 1000 0
SWIDTH1 1000 0
BBX 17 17 1 -2
BITMAP
01FF80
010000
010000
010000
020000
020000
020000
020000
020000
240000
640000
A40000
140000
140000
080000
080000
080000
ENDCHAR
STARTCHAR proportional
ENCODING 8733
SWIDTH 1000 0
SWIDTH1 1000 0
BBX 16 7 1 3
BITMAP
3E3E
4141
8080
8080
8080
4141
3E3E
ENDCHAR
STARTCHAR infinity
ENCODING 8734
SWIDTH 1000 0
SWIDTH1 1000 0
BBX 17 7 1 3
BITMAP
3E3E00
414100
808080
808080
808080
414100
3E3E00
ENDCHAR
STARTCHAR orthogonal
ENCODING 8735
SWIDTH 1000 0
SWIDTH1 1000 0
BBX 13 12 3 1
BITMAP
8000
8000
8000
8000
8000
8000
8000
8000
8000
8000
8000
FFF8
ENDCHAR
STARTCHAR angle
ENCODING 8736
SWIDTH 1000 0
SWIDTH1 1000 0
BBX 13 12 3 1
BITMAP
0010
0020
0040
0080
0100
0200
0400
0800
1000
2000
4000
FFF8
ENDCHAR
STARTCHAR uni2223
ENCODING 8739
SWIDTH 1000 0
SWIDTH1 1000 0
BBX 1 18 9 -2
BITMAP
80
80
80
80
80
80
80
80
80
80
80
80
80
80
80
80
80
80
ENDCHAR
STARTCHAR uni2225
ENCODING 8741
SWIDTH 1000 0
SWIDTH1 1000 0
BBX 8 16 5 -2
BITMAP
11
11
11
11
22
22
22
22
44
44
44
44
88
88
88
88
ENDCHAR
STARTCHAR logicaland
ENCODING 8743
SWIDTH 1000 0
SWIDTH1 1000 0
BBX 13 13 3 0
BITMAP
0200
0200
0500
0500
0880
0880
1040
1040
2020
2020
4010
4010
8008
ENDCHAR
STARTCHAR logicalor
ENCODING 8744
SWIDTH 1000 0
SWIDTH1 1000 0
BBX 13 13 3 0
BITMAP
8008
4010
4010
2020
2020
1040
1040
0880
0880
0500
0500
0200
0200
ENDCHAR
STARTCHAR intersection
ENCODING 8745
SWIDTH 1000 0
SWIDTH1 1000 0
BBX 11 13 4 0
BITMAP
1F00
60C0
4040
8020
8020
8020
8020
8020
8020
8020
8020
8020
8020
ENDCHAR
STARTCHAR union
ENCODING 8746
SWIDTH 1000 0
SWIDTH1 1000 0
BBX 11 13 4 0
BITMAP
8020
8020
8020
8020
8020
8020
8020
8020
8020
8020
4040
60C0
1F00
ENDCHAR
STARTCHAR integral
ENCODING 8747
SWIDTH 1000 0
SWIDTH1 1000 0
BBX 5 17 7 -2
BITMAP
30
48
48
40
40
40
20
20
20
20
20
10
10
10
90
90
60
ENDCHAR
STARTCHAR uni222E
ENCODING 8750
SWIDTH 1000 0
SWIDTH1 1000 0
BBX 9 17 5 -2
BITMAP
0C00
1200
1200
1000
1000
3E00
4900
8880
8880
8880
4900
3E00
0400
0400
2400
2400
1800
ENDCHAR
STARTCHAR therefore
ENCODING 8756
SWIDTH 1000 0
SWIDTH1 1000 0
BBX 12 11 3 1
BITMAP
0600
0600
0000
0000
0000
0000
0000
0000
0000
C030
C030
ENDCHAR
STARTCHAR uni2235
ENCODING 8757
SWIDTH 1000 0
SWIDTH1 1000 0
BBX 12 11 3 1
BITMAP
C030
C030
0000
0000
0000
0000
0000
0000
0000
0600
0600
ENDCHAR
STARTCHAR uni2236
ENCODING 8758
SWIDTH 1000 0
SWIDTH1 1000 0
BBX 2 10 7 1
BITMAP
C0
C0
00
00
00
00
00
00
C0
C0
ENDCHAR
STARTCHAR uni2237
ENCODING 8759
SWIDTH 1000 0
SWIDTH1 1000 0
BBX 10 10 3 1
BITMAP
C0C0
C0C0
0000
0000
0000
0000
0000
0000
C0C0
C0C0
ENDCHAR
STARTCHAR uni223D
ENCODING 8765
SWIDTH 1000 0
SWIDTH1 1000 0
BBX 14 6 1 3
BITMAP
2070
4088
8104
8204
4408
3810
ENDCHAR
STARTCHAR approxequal
ENCODING 8776
SWIDTH 1000 0
SWIDTH1 1000 0
BBX 14 8 1 2
BITMAP
3800
4604
8188
0070
3800
4604
8188
0070
ENDCHAR
STARTCHAR uni224C
ENCODING 8780
SWIDTH 1000 0
SWIDTH1 1000 0
BBX 14 11 1 0
BITMAP
2070
4088
8104
8204
4408
3810
0000
FFFC
0000
0000
FFFC
ENDCHAR
STARTCHAR uni2252
ENCODING 8786
SWIDTH 1000 0
SWIDTH1 1000 0
BBX 12 11 2 1
BITMAP
6000
6000
0000
0000
FFF0
0000
FFF0
0000
0000
0060
0060
ENDCHAR
STARTCHAR notequal
ENCODING 8800
SWIDTH 1000 0
SWIDTH1 1000 0
BBX 14 12 1 0
BITMAP
0020
0020
0040
0080
FFFC
0100
0100
0200
FFFC
0400
0800
1000
ENDCHAR
STARTCHAR equivalence
ENCODING 8801
SWIDTH 1000 0
SWIDTH1 1000 0
BBX 14 7 1 2
BITMAP
FFFC
0000
0000
FFFC
0000
0000
FFFC
ENDCHAR
STARTCHAR lessequal
ENCODING 8804
SWIDTH 1000 0
SWIDTH1 1000 0
BBX 8 10 1 1
BITMAP
03
0C
30
C0
30
0C
03
00
00
FF
ENDCHAR
STARTCHAR greaterequal
ENCODING 8805
SWIDTH 1000 0
SWIDTH1 1000 0
BBX 8 10 1 1
BITMAP
C0
30
0C
03
0C
30
C0
00
00
FF
ENDCHAR
STARTCHAR uni2266
ENCODING 8806
SWIDTH 1000 0
SWIDTH1 1000 0
BBX 12 14 3 -1
BITMAP
0030
01C0
0600
3800
C000
3800
0600
01C0
0030
0000
FFF0
0000
0000
FFF0
ENDCHAR
STARTCHAR uni2267
ENCODING 8807
SWIDTH 1000 0
SWIDTH1 1000 0
BBX 12 14 3 -1
BITMAP
C000
3800
0600
01C0
0030
01C0
0600
3800
C000
0000
FFF0
0000
0000
FFF0
ENDCHAR
STARTCHAR uni226E
ENCODING 8814
SWIDTH 1000 0
SWIDTH1 1000 0
BBX 13 14 1 -1
BITMAP
0200
0200
0218
0260
0380
0E00
3200
C200
3200
0E00
0380
0260
0218
0200
ENDCHAR
STARTCHAR uni226F
ENCODING 8815
SWIDTH 1000 0
SWIDTH1 1000 0
BBX 13 14 2 -1
BITMAP
0200
0200
C200
3200
0E00
0380
0260
0218
0260
0380
0E00
3200
C200
0200
ENDCHAR
STARTCHAR circleplus
ENCODING 8853
SWIDTH 1000 0
SWIDTH1 1000 0
BBX 9 9 4 1
BITMAP
3E00
4900
8880
8880
FF80
8880
8880
4900
3E00
ENDCHAR
STARTCHAR uni2299
ENCODING 8857
SWIDTH 1000 0
SWIDTH1 1000 0
BBX 14 14 1 -1
BITMAP
0FC0
1020
2010
4008
8004
8004
8304
8304
8004
8004
4008
2010
1020
0FC0
ENDCHAR
STARTCHAR perpendicular
ENCODING 8869
SWIDTH 1000 0
SWIDTH1 1000 0
BBX 13 14 1 -1
BITMAP
0200
0200
0200
0200
0200
0200
0200
0200
0200
0200
0200
0200
0200
FFF8
ENDCHAR
STARTCHAR uni22BF
ENCODING 8895
SWIDTH 1000 0
SWIDTH1 1000 0
BBX 12 12 2 0
BITMAP
0010
0030
0050
0090
0110
0210
0410
0810
1010
2010
4010
FFF0
ENDCHAR
STARTCHAR uni2312
ENCODING 8978
SWIDTH 1000 0
SWIDTH1 1000 0
BBX 14 6 1 5
BITMAP
0780
1860
2010
4008
8004
8004
ENDCHAR
STARTCHAR uni2460
ENCODING 9312
SWIDTH 1000 0
SWIDTH1 1000 0
BBX 17 17 1 -2
BITMAP
03E000
0C1800
108400
238200
408100
408100
808080
808080
808080
808080
808080
408100
408100
208200
100400
0C1800
03E000
ENDCHAR
STARTCHAR uni2461
ENCODING 9313
SWIDTH 1000 0
SWIDTH1 1000 0
BBX 17 17 1 -2
BITMAP
03E000
0C1800
11C400
222200
441100
441100
801080
802080
804080
808080
810080
420100
440100
27F200
100400
0C1800
03E000
ENDCHAR
STARTCHAR uni2462
ENCODING 9314
SWIDTH 1000 0
SWIDTH1 1000 0
BBX 17 17 1 -2
BITMAP
03E000
0C1800
11C400
222200
441100
441100
802080
81C080
802080
801080
841080
441100
422100
21C200
100400
0C1800
03E000
ENDCHAR
STARTCHAR uni2463
ENCODING 9315
SWIDTH 1000 0
SWIDTH1 1000 0
BBX 17 17 1 -2
BITMAP
03E000
0C1800
104400
20C200
414100
414100
824080
844080
844080
884080
8FF080
404100
404100
204200
100400
0C1800
03E000
ENDCHAR
STARTCHAR uni2464
ENCODING 9316
SWIDTH 1000 0
SWIDTH1 1000 0
BBX 17 17 1 -2
BITMAP
03E000
0C1800
17E400
240200
440100
440100
85C080
862080
801080
801080
841080
441100
422100
21C200
100400
0C1800
03E000
ENDCHAR
STARTCHAR uni2465
ENCODING 9317
SWIDTH 1000 0
SWIDTH1 1000 0
BBX 17 17 1 -2
BITMAP
03E000
0C1800
11C400
222200
441100
441100
840080
85C080
862080
841080
841080
441100
422100
21C200
100400
0C1800
03E000
ENDCHAR
STARTCHAR uni2466
ENCODING 9318
SWIDTH 1000 0
SWIDTH1 1000 0
BBX 17 17 1 -2
BITMAP
03E000
0C1800
100400
27F200
401100
401100
802080
802080
804080
804080
808080
408100
410100
210200
100400
0C1800
03E000
ENDCHAR
STARTCHAR uni2467
ENCODING 9319
SWIDTH 1000 0
SWIDTH1 1000 0
BBX 17 17 1 -2
BITMAP
03E000
0C1800
11C400
222200
441100
441100
822080
81C080
822080
841080
841080
441100
422100
21C200
100400
0C1800
03E000
ENDCHAR
STARTCHAR uni2468
ENCODING 9320
SWIDTH 1000 0
SWIDTH1 1000 0
BBX 17 17 1 -2
BITMAP
03E000
0C1800
11C400
222200
441100
441100
841080
823080
81D080
801080
841080
441100
422100
21C200
100400
0C1800
03E000
ENDCHAR
STARTCHAR uni2469
ENCODING 9321
SWIDTH 1000 0
SWIDTH1 1000 0
BBX 17 17 1 -2
BITMAP
03E000
0C1800
100400
283200
584900
488500
888480
888480
888480
888480
888480
488500
484900
283200
100400
0C1800
03E000
ENDCHAR
STARTCHAR uni2474
ENCODING 9332
SWIDTH 1000 0
SWIDTH1 1000 0
BBX 16 14 0 -1
BITMAP
1008
2084
4182
4082
8081
8081
8081
8081
8081
8081
4082
41C2
2004
1008
ENDCHAR
STARTCHAR uni2475
ENCODING 9333
SWIDTH 1000 0
SWIDTH1 1000 0
BBX 16 14 0 -1
BITMAP
1008
23C4
4422
4422
8021
8021
8041
8081
8101
8201
4422
47E2
2004
1008
ENDCHAR
STARTCHAR uni2476
ENCODING 9334
SWIDTH 1000 0
SWIDTH1 1000 0
BBX 16 14 0 -1
BITMAP
1008
23C4
4422
4422
8021
8041
8381
8041
8021
8421
4422
43C2
2004
1008
ENDCHAR
STARTCHAR uni2477
ENCODING 9335
SWIDTH 1000 0
SWIDTH1 1000 0
BBX 16 14 0 -1
BITMAP
1008
2044
4042
40C2
8141
8141
8241
8241
8441
87E1
4042
40E2
2004
1008
ENDCHAR
STARTCHAR uni2478
ENCODING 9336
SWIDTH 1000 0
SWIDTH1 1000 0
BBX 16 14 0 -1
BITMAP
1008
27E4
4402
4402
8401
85C1
8621
8021
8021
8421
4422
43C2
2004
1008
ENDCHAR
STARTCHAR uni2479
ENCODING 9337
SWIDTH 1000 0
SWIDTH1 1000 0
BBX 16 14 0 -1
BITMAP
1008
21C4
4222
4422
8401
85C1
8621
8421
8421
8421
4422
43C2
2004
1008
ENDCHAR
STARTCHAR uni247A
ENCODING 9338
SWIDTH 1000 0
SWIDTH1 1000 0
BBX 16 14 0 -1
BITMAP
1008
27E4
4422
4442
8041
8081
8081
8081
8101
8101
4102
4102
2004
1008
ENDCHAR
STARTCHAR uni247B
ENCODING 9339
SWIDTH 1000 0
SWIDTH1 1000 0
BBX 16 14 0 -1
BITMAP
1008
23C4
4422
4422
8421
8241
8181
8241
8421
8421
4422
43C2
2004
1008
ENDCHAR
STARTCHAR uni247C
ENCODING 9340
SWIDTH 1000 0
SWIDTH1 1000 0
BBX 16 14 0 -1
BITMAP
1008
23C4
4422
4422
8421
8421
8461
83A1
8021
8421
4422
43C2
2004
1008
ENDCHAR
STARTCHAR uni247D
ENCODING 9341
SWIDTH 1000 0
SWIDTH1 1000 0
BBX 16 14 0 -1
BITMAP
1008
2C74
448A
448A
8489
8489
8489
8489
8489
8489
448A
4E72
2004
1008
ENDCHAR
STARTCHAR uni247E
ENCODING 9342
SWIDTH 1000 0
SWIDTH1 1000 0
BBX 16 14 0 -1
BITMAP
1008
2C64
4422
4422
8421
8421
8421
8421
8421
8421
4422
4E72
2004
1008
ENDCHAR
STARTCHAR uni247F
ENCODING 9343
SWIDTH 1000 0
SWIDTH1 1000 0
BBX 16 14 0 -1
BITMAP
1008
2C74
448A
448A
8409
8409
8411
8421
8441
8481
448A
4EFA
2004
1008
ENDCHAR
STARTCHAR uni2480
ENCODING 9344
SWIDTH 1000 0
SWIDTH1 1000 0
BBX 16 14 0 -1
BITMAP
1008
2C74
448A
448A
8409
8411
8461
8411
8409
8489
448A
4E72
2004
1008
ENDCHAR
STARTCHAR uni2481
ENCODING 9345
SWIDTH 1000 0
SWIDTH1 1000 0
BBX 16 14 0 -1
BITMAP
1008
2C14
4412
4432
8451
8451
8451
8491
8491
84F9
4412
4E3A
2004
1008
ENDCHAR
STARTCHAR uni2482
ENCODING 9346
SWIDTH 1000 0
SWIDTH1 1000 0
BBX 16 14 0 -1
BITMAP
1008
2CF4
4482
4482
8481
84F1
8489
8409
8409
8409
448A
4E72
2004
1008
ENDCHAR
STARTCHAR uni2483
ENCODING 9347
SWIDTH 1000 0
SWIDTH1 1000 0
BBX 16 14 0 -1
BITMAP
1008
2C74
448A
448A
8481
84B1
84C9
8489
8489
8489
448A
4E72
2004
1008
ENDCHAR
STARTCHAR uni2484
ENCODING 9348
SWIDTH 1000 0
SWIDTH1 1000 0
BBX 16 14 0 -1
BITMAP
1008
2CF4
4492
4412
8421
8421
8421
8441
8441
8441
4442
4442
2E44
1008
ENDCHAR
STARTCHAR uni2485
ENCODING 9349
SWIDTH 1000 0
SWIDTH1 1000 0
BBX 16 14 0 -1
BITMAP
1008
2C74
448A
448A
8489
8489
8471
8489
8489
8489
448A
4E72
2004
1008
ENDCHAR
STARTCHAR uni2486
ENCODING 9350
SWIDTH 1000 0
SWIDTH1 1000 0
BBX 16 14 0 -1
BITMAP
1008
2C74
448A
448A
8489
8489
8499
8469
8409
8409
448A
4E72
2004
1008
ENDCHAR
STARTCHAR uni2487
ENCODING 9351
SWIDTH 1000 0
SWIDTH1 1000 0
BBX 16 14 0 -1
BITMAP
1008
2C64
5292
5292
8291
8291
8491
8891
9091
9291
5292
5E62
2004
1008
ENDCHAR
STARTCHAR uni2488
ENCODING 9352
SWIDTH 1000 0
SWIDTH1 1000 0
BBX 10 12 6 1
BITMAP
2000
E000
2000
2000
2000
2000
2000
2000
2000
2000
20C0
F8C0
ENDCHAR
STARTCHAR uni2489
ENCODING 9353
SWIDTH 1000 0
SWIDTH1 1000 0
BBX 11 12 5 1
BITMAP
3800
4400
8200
8200
0200
0400
0800
1000
2000
4200
8260
FE60
ENDCHAR
STARTCHAR uni248A
ENCODING 9354
SWIDTH 1000 0
SWIDTH1 1000 0
BBX 11 12 5 1
BITMAP
3800
4400
8200
0200
0400
3800
0400
0200
0200
8200
8460
7860
ENDCHAR
STARTCHAR uni248B
ENCODING 9355
SWIDTH 1000 0
SWIDTH1 1000 0
BBX 12 12 4 1
BITMAP
0400
0400
0C00
0C00
1400
1400
2400
4400
8400
FF00
0430
0E30
ENDCHAR
STARTCHAR uni248C
ENCODING 9356
SWIDTH 1000 0
SWIDTH1 1000 0
BBX 11 12 5 1
BITMAP
FE00
8000
8000
8000
B800
C400
0200
0200
0200
8200
8460
7860
ENDCHAR
STARTCHAR uni248D
ENCODING 9357
SWIDTH 1000 0
SWIDTH1 1000 0
BBX 11 12 5 1
BITMAP
3C00
4200
8200
8000
8000
B800
C400
8200
8200
8200
4460
3860
ENDCHAR
STARTCHAR uni248E
ENCODING 9358
SWIDTH 1000 0
SWIDTH1 1000 0
BBX 12 12 4 1
BITMAP
7F00
4100
8200
0400
0400
0800
0800
1000
1000
1000
1030
1030
ENDCHAR
STARTCHAR uni248F
ENCODING 9359
SWIDTH 1000 0
SWIDTH1 1000 0
BBX 11 13 5 0
BITMAP
3800
4400
8200
8200
8200
4400
3800
4400
8200
8200
8260
4460
3800
ENDCHAR
STARTCHAR uni2490
ENCODING 9360
SWIDTH 1000 0
SWIDTH1 1000 0
BBX 11 12 5 1
BITMAP
3800
4400
8200
8200
8200
8200
4600
3A00
0200
8200
4460
3860
ENDCHAR
STARTCHAR uni2491
ENCODING 9361
SWIDTH 1000 0
SWIDTH1 1000 0
BBX 14 12 2 1
BITMAP
0180
C240
4420
4420
4420
4420
4420
4420
4420
4420
424C
E18C
ENDCHAR
STARTCHAR uni2492
ENCODING 9362
SWIDTH 1000 0
SWIDTH1 1000 0
BBX 14 12 2 1
BITMAP
4100
C300
4100
4100
4100
4100
4100
4100
4100
4100
410C
F38C
ENDCHAR
STARTCHAR uni2493
ENCODING 9363
SWIDTH 1000 0
SWIDTH1 1000 0
BBX 14 12 2 1
BITMAP
43C0
C420
4420
4420
4020
4040
4080
4100
4200
4420
442C
E7EC
ENDCHAR
STARTCHAR uni2494
ENCODING 9364
SWIDTH 1000 0
SWIDTH1 1000 0
BBX 14 12 2 1
BITMAP
4180
C240
4420
4020
4040
4180
4040
4020
4020
4420
444C
E38C
ENDCHAR
STARTCHAR uni2495
ENCODING 9365
SWIDTH 1000 0
SWIDTH1 1000 0
BBX 14 12 2 1
BITMAP
4040
C040
40C0
40C0
4140
4140
4240
4240
4440
47E0
404C
F0EC
ENDCHAR
STARTCHAR uni2496
ENCODING 9366
SWIDTH 1000 0
SWIDTH1 1000 0
BBX 14 12 2 1
BITMAP
47E0
C400
4400
4400
4400
47C0
4420
4020
4020
4420
444C
E38C
ENDCHAR
STARTCHAR uni2497
ENCODING 9367
SWIDTH 1000 0
SWIDTH1 1000 0
BBX 14 12 2 1
BITMAP
4380
C440
4440
4400
4400
4580
4640
4440
4440
4440
444C
E38C
ENDCHAR
STARTCHAR uni2498
ENCODING 9368
SWIDTH 1000 0
SWIDTH1 1000 0
BBX 14 12 2 1
BITMAP
47C0
C440
4440
4040
4080
4080
4080
4100
4100
4100
410C
E10C
ENDCHAR
STARTCHAR uni2499
ENCODING 9369
SWIDTH 1000 0
SWIDTH1 1000 0
BBX 14 12 2 1
BITMAP
43C0
C420
4420
4420
4240
4180
4240
4420
4420
4420
442C
E3CC
ENDCHAR
STARTCHAR uni249A
ENCODING 9370
SWIDTH 1000 0
SWIDTH1 1000 0
BBX 14 12 2 1
BITMAP
4180
C240
4420
4420
4420
4420
4260
41A0
4020
4420
444C
E38C
ENDCHAR
STARTCHAR uni249B
ENCODING 9371
SWIDTH 1000 0
SWIDTH1 1000 0
BBX 15 12 1 1
BITMAP
71C0
8A20
8A20
8A20
0A20
0A20
1220
2220
4220
8220
8A26
F9C6
ENDCHAR
STARTCHAR SF100000
ENCODING 9472
SWIDTH 1000 0
SWIDTH1 1000 0
BBX 18 1 1 6
BITMAP
FFFFC0
ENDCHAR
STARTCHAR uni2501
ENCODING 9473
SWIDTH 1000 0
SWIDTH1 1000 0
BBX 18 2 1 6
BITMAP
FFFFC0
FFFFC0
ENDCHAR
STARTCHAR SF110000
ENCODING 9474
SWIDTH 1000 0
SWIDTH1 1000 0
BBX 1 18 9 -3
BITMAP
80
80
80
80
80
80
80
80
80
80
80
80
80
80
80
80
80
80
ENDCHAR
STARTCHAR uni2503
ENCODING 9475
SWIDTH 1000 0
SWIDTH1 1000 0
BBX 2 18 8 -3
BITMAP
C0
C0
C0
C0
C0
C0
C0
C0
C0
C0
C0
C0
C0
C0
C0
C0
C0
C0
ENDCHAR
STARTCHAR uni2504
ENCODING 9476
SWIDTH 1000 0
SWIDTH1 1000 0
BBX 19 1 0 6
BITMAP
F9F3E0
ENDCHAR
STARTCHAR uni2505
ENCODING 9477
SWIDTH 1000 0
SWIDTH1 1000 0
BBX 19 2 0 6
BITMAP
F9F3E0
F9F3E0
ENDCHAR
STARTCHAR uni2506
ENCODING 9478
SWIDTH 1000 0
SWIDTH1 1000 0
BBX 1 19 9 -3
BITMAP
80
80
80
80
00
00
00
80
80
80
80
00
00
00
80
80
80
80
80
ENDCHAR
STARTCHAR uni2507
ENCODING 9479
SWIDTH 1000 0
SWIDTH1 1000 0
BBX 2 19 9 -3
BITMAP
C0
C0
C0
C0
00
00
00
C0
C0
C0
C0
00
00
00
C0
C0
C0
C0
C0
ENDCHAR
STARTCHAR uni2508
ENCODING 9480
SWIDTH 1000 0
SWIDTH1 1000 0
BBX 19 1 0 6
BITMAP
F7BDE0
ENDCHAR
STARTCHAR uni2509
ENCODING 9481
SWIDTH 1000 0
SWIDTH1 1000 0
BBX 19 2 0 6
BITMAP
F7BDE0
F7BDE0
ENDCHAR
STARTCHAR uni250A
ENCODING 9482
SWIDTH 1000 0
SWIDTH1 1000 0
BBX 1 19 9 -3
BITMAP
80
80
80
80
00
80
80
80
80
00
80
80
80
80
00
80
80
80
80
ENDCHAR
STARTCHAR uni250B
ENCODING 9483
SWIDTH 1000 0
SWIDTH1 1000 0
BBX 2 19 9 -3
BITMAP
C0
C0
C0
C0
00
C0
C0
C0
C0
00
C0
C0
C0
C0
00
C0
C0
C0
C0
ENDCHAR
STARTCHAR SF010000
ENCODING 9484
SWIDTH 1000 0
SWIDTH1 1000 0
BBX 10 10 9 -3
BITMAP
FFC0
8000
8000
8000
8000
8000
8000
8000
8000
8000
ENDCHAR
STARTCHAR uni250D
ENCODING 9485
SWIDTH 1000 0
SWIDTH1 1000 0
BBX 10 10 9 -3
BITMAP
FFC0
FFC0
8000
8000
8000
8000
8000
8000
8000
8000
ENDCHAR
STARTCHAR uni250E
ENCODING 9486
SWIDTH 1000 0
SWIDTH1 1000 0
BBX 10 10 9 -3
BITMAP
FFC0
C000
C000
C000
C000
C000
C000
C000
C000
C000
ENDCHAR
STARTCHAR uni250F
ENCODING 9487
SWIDTH 1000 0
SWIDTH1 1000 0
BBX 11 11 8 -3
BITMAP
FFE0
FFE0
C000
C000
C000
C000
C000
C000
C000
C000
C000
ENDCHAR
STARTCHAR SF030000
ENCODING 9488
SWIDTH 1000 0
SWIDTH1 1000 0
BBX 9 10 1 -3
BITMAP
FF80
0080
0080
0080
0080
0080
0080
0080
0080
0080
ENDCHAR
STARTCHAR uni2511
ENCODING 9489
SWIDTH 1000 0
SWIDTH1 1000 0
BBX 10 10 0 -3
BITMAP
FFC0
FFC0
0040
0040
0040
0040
0040
0040
0040
0040
ENDCHAR
STARTCHAR uni2512
ENCODING 9490
SWIDTH 1000 0
SWIDTH1 1000 0
BBX 11 10 0 -3
BITMAP
FFE0
0060
0060
0060
0060
0060
0060
0060
0060
0060
ENDCHAR
STARTCHAR uni2513
ENCODING 9491
SWIDTH 1000 0
SWIDTH1 1000 0
BBX 9 11 1 -3
BITMAP
FF80
FF80
0180
0180
0180
0180
0180
0180
0180
0180
0180
ENDCHAR
STARTCHAR SF020000
ENCODING 9492
SWIDTH 1000 0
SWIDTH1 1000 0
BBX 10 9 9 6
BITMAP
8000
8000
8000
8000
8000
8000
8000
8000
FFC0
ENDCHAR
STARTCHAR uni2515
ENCODING 9493
SWIDTH 1000 0
SWIDTH1 1000 0
BBX 10 11 9 5
BITMAP
8000
8000
8000
8000
8000
8000
8000
8000
8000
FFC0
FFC0
ENDCHAR
STARTCHAR uni2516
ENCODING 9494
SWIDTH 1000 0
SWIDTH1 1000 0
BBX 10 10 9 6
BITMAP
C000
C000
C000
C000
C000
C000
C000
C000
C000
FFC0
ENDCHAR
STARTCHAR uni2517
ENCODING 9495
SWIDTH 1000 0
SWIDTH1 1000 0
BBX 11 9 8 6
BITMAP
C000
C000
C000
C000
C000
C000
C000
FFE0
FFE0
ENDCHAR
STARTCHAR SF040000
ENCODING 9496
SWIDTH 1000 0
SWIDTH1 1000 0
BBX 9 9 1 6
BITMAP
0080
0080
0080
0080
0080
0080
0080
0080
FF80
ENDCHAR
STARTCHAR uni2519
ENCODING 9497
SWIDTH 1000 0
SWIDTH1 1000 0
BBX 10 11 0 5
BITMAP
0040
0040
0040
0040
0040
0040
0040
0040
0040
FFC0
FFC0
ENDCHAR
STARTCHAR uni251A
ENCODING 9498
SWIDTH 1000 0
SWIDTH1 1000 0
BBX 11 10 0 6
BITMAP
0060
0060
0060
0060
0060
0060
0060
0060
0060
FFE0
ENDCHAR
STARTCHAR uni251B
ENCODING 9499
SWIDTH 1000 0
SWIDTH1 1000 0
BBX 9 9 1 6
BITMAP
0180
0180
0180
0180
0180
0180
0180
FF80
FF80
ENDCHAR
STARTCHAR SF080000
ENCODING 9500
SWIDTH 1000 0
SWIDTH1 1000 0
BBX 10 18 9 -3
BITMAP
8000
8000
8000
8000
8000
8000
8000
8000
FFC0
8000
8000
8000
8000
8000
8000
8000
8000
8000
ENDCHAR
STARTCHAR uni251D
ENCODING 9501
SWIDTH 1000 0
SWIDTH1 1000 0
BBX 10 18 9 -3
BITMAP
8000
8000
8000
8000
8000
8000
8000
FFC0
FFC0
8000
8000
8000
8000
8000
8000
8000
8000
8000
ENDCHAR
STARTCHAR uni251E
ENCODING 9502
SWIDTH 1000 0
SWIDTH1 1000 0
BBX 10 19 9 -3
BITMAP
C000
C000
C000
C000
C000
C000
C000
C000
C000
FFC0
8000
8000
8000
8000
8000
8000
8000
8000
8000
ENDCHAR
STARTCHAR uni251F
ENCODING 9503
SWIDTH 1000 0
SWIDTH1 1000 0
BBX 10 19 9 -3
BITMAP
8000
8000
8000
8000
8000
8000
8000
8000
8000
FFC0
FFC0
C000
C000
C000
C000
C000
C000
C000
C000
ENDCHAR
STARTCHAR uni2520
ENCODING 9504
SWIDTH 1000 0
SWIDTH1 1000 0
BBX 11 18 8 -3
BITMAP
C000
C000
C000
C000
C000
C000
C000
C000
FFE0
C000
C000
C000
C000
C000
C000
C000
C000
C000
ENDCHAR
STARTCHAR uni2521
ENCODING 9505
SWIDTH 1000 0
SWIDTH1 1000 0
BBX 10 19 9 -3
BITMAP
C000
C000
C000
C000
C000
C000
C000
C000
C000
FFC0
FFC0
8000
8000
8000
8000
8000
8000
8000
8000
ENDCHAR
STARTCHAR uni2522
ENCODING 9506
SWIDTH 1000 0
SWIDTH1 1000 0
BBX 10 19 9 -3
BITMAP
8000
8000
8000
8000
8000
8000
8000
8000
8000
FFC0
FFC0
C000
C000
C000
C000
C000
C000
C000
C000
ENDCHAR
STARTCHAR uni2523
ENCODING 9507
SWIDTH 1000 0
SWIDTH1 1000 0
BBX 11 18 8 -3
BITMAP
C000
C000
C000
C000
C000
C000
C000
FFE0
FFE0
C000
C000
C000
C000
C000
C000
C000
C000
C000
ENDCHAR
STARTCHAR SF090000
ENCODING 9508
SWIDTH 1000 0
SWIDTH1 1000 0
BBX 9 18 1 -3
BITMAP
0080
0080
0080
0080
0080
0080
0080
0080
FF80
0080
0080
0080
0080
0080
0080
0080
0080
0080
ENDCHAR
STARTCHAR uni2525
ENCODING 9509
SWIDTH 1000 0
SWIDTH1 1000 0
BBX 9 18 1 -3
BITMAP
0080
0080
0080
0080
0080
0080
0080
FF80
FF80
0080
0080
0080
0080
0080
0080
0080
0080
0080
ENDCHAR
STARTCHAR uni2526
ENCODING 9510
SWIDTH 1000 0
SWIDTH1 1000 0
BBX 11 19 0 -3
BITMAP
0060
0060
0060
0060
0060
0060
0060
0060
0060
FFE0
0040
0040
0040
0040
0040
0040
0040
0040
0040
ENDCHAR
STARTCHAR uni2527
ENCODING 9511
SWIDTH 1000 0
SWIDTH1 1000 0
BBX 11 19 0 -3
BITMAP
0040
0040
0040
0040
0040
0040
0040
0040
0040
FFE0
0060
0060
0060
0060
0060
0060
0060
0060
0060
ENDCHAR
STARTCHAR uni2528
ENCODING 9512
SWIDTH 1000 0
SWIDTH1 1000 0
BBX 9 18 1 -3
BITMAP
0180
0180
0180
0180
0180
0180
0180
0180
FF80
0180
0180
0180
0180
0180
0180
0180
0180
0180
ENDCHAR
STARTCHAR uni2529
ENCODING 9513
SWIDTH 1000 0
SWIDTH1 1000 0
BBX 11 19 0 -3
BITMAP
0060
0060
0060
0060
0060
0060
0060
0060
0060
FFE0
FFE0
0040
0040
0040
0040
0040
0040
0040
0040
ENDCHAR
STARTCHAR uni252A
ENCODING 9514
SWIDTH 1000 0
SWIDTH1 1000 0
BBX 11 19 0 -3
BITMAP
0040
0040
0040
0040
0040
0040
0040
0040
0040
FFE0
FFE0
0060
0060
0060
0060
0060
0060
0060
0060
ENDCHAR
STARTCHAR uni252B
ENCODING 9515
SWIDTH 1000 0
SWIDTH1 1000 0
BBX 9 18 1 -3
BITMAP
0180
0180
0180
0180
0180
0180
0180
FF80
FF80
0180
0180
0180
0180
0180
0180
0180
0180
0180
ENDCHAR
STARTCHAR SF060000
ENCODING 9516
SWIDTH 1000 0
SWIDTH1 1000 0
BBX 18 10 1 -3
BITMAP
FFFFC0
008000
008000
008000
008000
008000
008000
008000
008000
008000
ENDCHAR
STARTCHAR uni252D
ENCODING 9517
SWIDTH 1000 0
SWIDTH1 1000 0
BBX 19 10 0 -3
BITMAP
FFFFE0
FFC000
004000
004000
004000
004000
004000
004000
004000
004000
ENDCHAR
STARTCHAR uni252E
ENCODING 9518
SWIDTH 1000 0
SWIDTH1 1000 0
BBX 19 10 0 -3
BITMAP
FFFFE0
007FE0
004000
004000
004000
004000
004000
004000
004000
004000
ENDCHAR
STARTCHAR uni252F
ENCODING 9519
SWIDTH 1000 0
SWIDTH1 1000 0
BBX 18 11 1 -3
BITMAP
FFFFC0
FFFFC0
008000
008000
008000
008000
008000
008000
008000
008000
008000
ENDCHAR
STARTCHAR uni2530
ENCODING 9520
SWIDTH 1000 0
SWIDTH1 1000 0
BBX 18 10 1 -3
BITMAP
FFFFC0
018000
018000
018000
018000
018000
018000
018000
018000
018000
ENDCHAR
STARTCHAR uni2531
ENCODING 9521
SWIDTH 1000 0
SWIDTH1 1000 0
BBX 19 10 0 -3
BITMAP
FFFFE0
FFE000
006000
006000
006000
006000
006000
006000
006000
006000
ENDCHAR
STARTCHAR uni2532
ENCODING 9522
SWIDTH 1000 0
SWIDTH1 1000 0
BBX 19 10 0 -3
BITMAP
FFFFE0
007FE0
006000
006000
006000
006000
006000
006000
006000
006000
ENDCHAR
STARTCHAR uni2533
ENCODING 9523
SWIDTH 1000 0
SWIDTH1 1000 0
BBX 18 11 1 -3
BITMAP
FFFFC0
FFFFC0
018000
018000
018000
018000
018000
018000
018000
018000
018000
ENDCHAR
STARTCHAR SF070000
ENCODING 9524
SWIDTH 1000 0
SWIDTH1 1000 0
BBX 18 9 1 6
BITMAP
008000
008000
008000
008000
008000
008000
008000
008000
FFFFC0
ENDCHAR
STARTCHAR uni2535
ENCODING 9525
SWIDTH 1000 0
SWIDTH1 1000 0
BBX 19 11 0 5
BITMAP
004000
004000
004000
004000
004000
004000
004000
004000
004000
FFFFE0
FFC000
ENDCHAR
STARTCHAR uni2536
ENCODING 9526
SWIDTH 1000 0
SWIDTH1 1000 0
BBX 19 11 0 5
BITMAP
004000
004000
004000
004000
004000
004000
004000
004000
004000
FFFFE0
007FE0
ENDCHAR
STARTCHAR uni2537
ENCODING 9527
SWIDTH 1000 0
SWIDTH1 1000 0
BBX 18 9 1 6
BITMAP
008000
008000
008000
008000
008000
008000
008000
FFFFC0
FFFFC0
ENDCHAR
STARTCHAR uni2538
ENCODING 9528
SWIDTH 1000 0
SWIDTH1 1000 0
BBX 18 9 1 6
BITMAP
018000
018000
018000
018000
018000
018000
018000
018000
FFFFC0
ENDCHAR
STARTCHAR uni2539
ENCODING 9529
SWIDTH 1000 0
SWIDTH1 1000 0
BBX 19 11 0 5
BITMAP
006000
006000
006000
006000
006000
006000
006000
006000
006000
FFFFE0
FFE000
ENDCHAR
STARTCHAR uni253A
ENCODING 9530
SWIDTH 1000 0
SWIDTH1 1000 0
BBX 19 10 0 5
BITMAP
006000
006000
006000
006000
006000
006000
006000
006000
FFFFE0
007FE0
ENDCHAR
STARTCHAR uni253B
ENCODING 9531
SWIDTH 1000 0
SWIDTH1 1000 0
BBX 18 9 1 6
BITMAP
018000
018000
018000
018000
018000
018000
018000
FFFFC0
FFFFC0
ENDCHAR
STARTCHAR SF050000
ENCODING 9532
SWIDTH 1000 0
SWIDTH1 1000 0
BBX 18 18 1 -3
BITMAP
008000
008000
008000
008000
008000
008000
008000
008000
FFFFC0
008000
008000
008000
008000
008000
008000
008000
008000
008000
ENDCHAR
STARTCHAR uni253D
ENCODING 9533
SWIDTH 1000 0
SWIDTH1 1000 0
BBX 19 19 0 -3
BITMAP
004000
004000
004000
004000
004000
004000
004000
004000
004000
FFFFE0
FFC000
004000
004000
004000
004000
004000
004000
004000
004000
ENDCHAR
STARTCHAR uni253E
ENCODING 9534
SWIDTH 1000 0
SWIDTH1 1000 0
BBX 19 19 0 -3
BITMAP
004000
004000
004000
004000
004000
004000
004000
004000
004000
FFFFE0
007FE0
004000
004000
004000
004000
004000
004000
004000
004000
ENDCHAR
STARTCHAR uni253F
ENCODING 9535
SWIDTH 1000 0
SWIDTH1 1000 0
BBX 18 18 1 -3
BITMAP
008000
008000
008000
008000
008000
008000
008000
FFFFC0
FFFFC0
008000
008000
008000
008000
008000
008000
008000
008000
008000
ENDCHAR
STARTCHAR uni2540
ENCODING 9536
SWIDTH 1000 0
SWIDTH1 1000 0
BBX 19 19 0 -3
BITMAP
006000
006000
006000
006000
006000
006000
006000
006000
006000
FFFFE0
004000
004000
004000
004000
004000
004000
004000
004000
004000
ENDCHAR
STARTCHAR uni2541
ENCODING 9537
SWIDTH 1000 0
SWIDTH1 1000 0
BBX 19 19 0 -3
BITMAP
004000
004000
004000
004000
004000
004000
004000
004000
004000
FFFFE0
006000
006000
006000
006000
006000
006000
006000
006000
006000
ENDCHAR
STARTCHAR uni2542
ENCODING 9538
SWIDTH 1000 0
SWIDTH1 1000 0
BBX 18 18 1 -3
BITMAP
018000
018000
018000
018000
018000
018000
018000
018000
FFFFC0
018000
018000
018000
018000
018000
018000
018000
018000
018000
ENDCHAR
STARTCHAR uni2543
ENCODING 9539
SWIDTH 1000 0
SWIDTH1 1000 0
BBX 19 19 0 -3
BITMAP
006000
006000
006000
006000
006000
006000
006000
006000
006000
FFFFE0
FFC000
004000
004000
004000
004000
004000
004000
004000
004000
ENDCHAR
STARTCHAR uni2544
ENCODING 9540
SWIDTH 1000 0
SWIDTH1 1000 0
BBX 19 19 0 -3
BITMAP
006000
006000
006000
006000
006000
006000
006000
006000
006000
FFFFE0
007FE0
004000
004000
004000
004000
004000
004000
004000
004000
ENDCHAR
STARTCHAR uni2545
ENCODING 9541
SWIDTH 1000 0
SWIDTH1 1000 0
BBX 19 19 0 -3
BITMAP
004000
004000
004000
004000
004000
004000
004000
004000
004000
FFFFE0
FFE000
006000
006000
006000
006000
006000
006000
006000
006000
ENDCHAR
STARTCHAR uni2546
ENCODING 9542
SWIDTH 1000 0
SWIDTH1 1000 0
BBX 19 19 0 -3
BITMAP
004000
004000
004000
004000
004000
004000
004000
004000
004000
FFFFE0
007FE0
006000
006000
006000
006000
006000
006000
006000
006000
ENDCHAR
STARTCHAR uni2547
ENCODING 9543
SWIDTH 1000 0
SWIDTH1 1000 0
BBX 19 19 0 -3
BITMAP
006000
006000
006000
006000
006000
006000
006000
006000
006000
FFFFE0
FFFFE0
004000
004000
004000
004000
004000
004000
004000
004000
ENDCHAR
STARTCHAR uni2548
ENCODING 9544
SWIDTH 1000 0
SWIDTH1 1000 0
BBX 19 19 0 -3
BITMAP
004000
004000
004000
004000
004000
004000
004000
004000
004000
FFFFE0
FFFFE0
006000
006000
006000
006000
006000
006000
006000
006000
ENDCHAR
STARTCHAR uni2549
ENCODING 9545
SWIDTH 1000 0
SWIDTH1 1000 0
BBX 19 19 0 -3
BITMAP
006000
006000
006000
006000
006000
006000
006000
006000
006000
FFFFE0
FFE000
006000
006000
006000
006000
006000
006000
006000
006000
ENDCHAR
STARTCHAR uni254A
ENCODING 9546
SWIDTH 1000 0
SWIDTH1 1000 0
BBX 19 19 0 -3
BITMAP
006000
006000
006000
006000
006000
006000
006000
006000
006000
FFFFE0
007FE0
006000
006000
006000
006000
006000
006000
006000
006000
ENDCHAR
STARTCHAR uni254B
ENCODING 9547
SWIDTH 1000 0
SWIDTH1 1000 0
BBX 18 18 1 -3
BITMAP
018000
018000
018000
018000
018000
018000
018000
FFFFC0
FFFFC0
018000
018000
018000
018000
018000
018000
018000
018000
018000
ENDCHAR
STARTCHAR SF430000
ENCODING 9552
SWIDTH 1000 0
SWIDTH1 1000 0
BBX 19 3 0 5
BITMAP
FFFFE0
000000
FFFFE0
ENDCHAR
STARTCHAR SF240000
ENCODING 9553
SWIDTH 1000 0
SWIDTH1 1000 0
BBX 3 19 8 -3
BITMAP
A0
A0
A0
A0
A0
A0
A0
A0
A0
A0
A0
A0
A0
A0
A0
A0
A0
A0
A0
ENDCHAR
STARTCHAR SF510000
ENCODING 9554
SWIDTH 1000 0
SWIDTH1 1000 0
BBX 10 11 9 -3
BITMAP
FFC0
8000
FFC0
8000
8000
8000
8000
8000
8000
8000
8000
ENDCHAR
STARTCHAR SF520000
ENCODING 9555
SWIDTH 1000 0
SWIDTH1 1000 0
BBX 11 10 8 -3
BITMAP
FFE0
A000
A000
A000
A000
A000
A000
A000
A000
A000
ENDCHAR
STARTCHAR SF390000
ENCODING 9556
SWIDTH 1000 0
SWIDTH1 1000 0
BBX 11 11 8 -3
BITMAP
FFE0
8000
BFC0
A000
A000
A000
A000
A000
A000
A000
A000
ENDCHAR
STARTCHAR SF220000
ENCODING 9557
SWIDTH 1000 0
SWIDTH1 1000 0
BBX 10 11 0 -3
BITMAP
FFC0
0040
FFC0
0040
0040
0040
0040
0040
0040
0040
0040
ENDCHAR
STARTCHAR SF210000
ENCODING 9558
SWIDTH 1000 0
SWIDTH1 1000 0
BBX 11 10 0 -3
BITMAP
FFE0
00A0
00A0
00A0
00A0
00A0
00A0
00A0
00A0
00A0
ENDCHAR
STARTCHAR SF250000
ENCODING 9559
SWIDTH 1000 0
SWIDTH1 1000 0
BBX 11 11 0 -3
BITMAP
FFE0
0020
FFA0
00A0
00A0
00A0
00A0
00A0
00A0
00A0
00A0
ENDCHAR
STARTCHAR SF500000
ENCODING 9560
SWIDTH 1000 0
SWIDTH1 1000 0
BBX 10 11 9 5
BITMAP
8000
8000
8000
8000
8000
8000
8000
8000
FFC0
8000
FFC0
ENDCHAR
STARTCHAR SF490000
ENCODING 9561
SWIDTH 1000 0
SWIDTH1 1000 0
BBX 11 10 8 6
BITMAP
A000
A000
A000
A000
A000
A000
A000
A000
A000
FFE0
ENDCHAR
STARTCHAR SF380000
ENCODING 9562
SWIDTH 1000 0
SWIDTH1 1000 0
BBX 11 11 8 5
BITMAP
A000
A000
A000
A000
A000
A000
A000
A000
BFE0
8000
FFE0
ENDCHAR
STARTCHAR SF280000
ENCODING 9563
SWIDTH 1000 0
SWIDTH1 1000 0
BBX 10 11 0 5
BITMAP
0040
0040
0040
0040
0040
0040
0040
0040
FFC0
0040
FFC0
ENDCHAR
STARTCHAR SF270000
ENCODING 9564
SWIDTH 1000 0
SWIDTH1 1000 0
BBX 11 10 0 6
BITMAP
00A0
00A0
00A0
00A0
00A0
00A0
00A0
00A0
00A0
FFE0
ENDCHAR
STARTCHAR SF260000
ENCODING 9565
SWIDTH 1000 0
SWIDTH1 1000 0
BBX 11 11 0 5
BITMAP
00A0
00A0
00A0
00A0
00A0
00A0
00A0
00A0
FFA0
0020
FFE0
ENDCHAR
STARTCHAR SF360000
ENCODING 9566
SWIDTH 1000 0
SWIDTH1 1000 0
BBX 10 19 9 -3
BITMAP
8000
8000
8000
8000
8000
8000
8000
8000
FFC0
8000
FFC0
8000
8000
8000
8000
8000
8000
8000
8000
ENDCHAR
STARTCHAR SF370000
ENCODING 9567
SWIDTH 1000 0
SWIDTH1 1000 0
BBX 11 19 8 -3
BITMAP
A000
A000
A000
A000
A000
A000
A000
A000
A000
BFE0
A000
A000
A000
A000
A000
A000
A000
A000
A000
ENDCHAR
STARTCHAR SF420000
ENCODING 9568
SWIDTH 1000 0
SWIDTH1 1000 0
BBX 11 19 8 -3
BITMAP
A000
A000
A000
A000
A000
A000
A000
A000
BFE0
8000
BFE0
A000
A000
A000
A000
A000
A000
A000
A000
ENDCHAR
STARTCHAR SF190000
ENCODING 9569
SWIDTH 1000 0
SWIDTH1 1000 0
BBX 10 19 0 -3
BITMAP
0040
0040
0040
0040
0040
0040
0040
0040
FFC0
0040
FFC0
0040
0040
0040
0040
0040
0040
0040
0040
ENDCHAR
STARTCHAR SF200000
ENCODING 9570
SWIDTH 1000 0
SWIDTH1 1000 0
BBX 11 19 0 -3
BITMAP
00A0
00A0
00A0
00A0
00A0
00A0
00A0
00A0
00A0
FFA0
00A0
00A0
00A0
00A0
00A0
00A0
00A0
00A0
00A0
ENDCHAR
STARTCHAR SF230000
ENCODING 9571
SWIDTH 1000 0
SWIDTH1 1000 0
BBX 11 19 0 -3
BITMAP
00A0
00A0
00A0
00A0
00A0
00A0
00A0
00A0
FFA0
0020
FFA0
00A0
00A0
00A0
00A0
00A0
00A0
00A0
00A0
ENDCHAR
STARTCHAR SF470000
ENCODING 9572
SWIDTH 1000 0
SWIDTH1 1000 0
BBX 19 11 0 -3
BITMAP
FFFFE0
000000
FFFFE0
004000
004000
004000
004000
004000
004000
004000
004000
ENDCHAR
STARTCHAR SF480000
ENCODING 9573
SWIDTH 1000 0
SWIDTH1 1000 0
BBX 19 10 0 -3
BITMAP
FFFFE0
00A000
00A000
00A000
00A000
00A000
00A000
00A000
00A000
00A000
ENDCHAR
STARTCHAR SF410000
ENCODING 9574
SWIDTH 1000 0
SWIDTH1 1000 0
BBX 19 11 0 -3
BITMAP
FFFFE0
000000
FFBFE0
00A000
00A000
00A000
00A000
00A000
00A000
00A000
00A000
ENDCHAR
STARTCHAR SF450000
ENCODING 9575
SWIDTH 1000 0
SWIDTH1 1000 0
BBX 19 11 0 5
BITMAP
004000
004000
004000
004000
004000
004000
004000
004000
FFFFE0
000000
FFFFE0
ENDCHAR
STARTCHAR SF460000
ENCODING 9576
SWIDTH 1000 0
SWIDTH1 1000 0
BBX 19 10 0 6
BITMAP
00A000
00A000
00A000
00A000
00A000
00A000
00A000
00A000
00A000
FFFFE0
ENDCHAR
STARTCHAR SF400000
ENCODING 9577
SWIDTH 1000 0
SWIDTH1 1000 0
BBX 19 11 0 5
BITMAP
00A000
00A000
00A000
00A000
00A000
00A000
00A000
00A000
FFBFE0
000000
FFFFE0
ENDCHAR
STARTCHAR SF540000
ENCODING 9578
SWIDTH 1000 0
SWIDTH1 1000 0
BBX 19 19 0 -3
BITMAP
004000
004000
004000
004000
004000
004000
004000
004000
FFFFE0
004000
FFFFE0
004000
004000
004000
004000
004000
004000
004000
004000
ENDCHAR
STARTCHAR SF530000
ENCODING 9579
SWIDTH 1000 0
SWIDTH1 1000 0
BBX 19 19 0 -3
BITMAP
00A000
00A000
00A000
00A000
00A000
00A000
00A000
00A000
00A000
FFFFE0
00A000
00A000
00A000
00A000
00A000
00A000
00A000
00A000
00A000
ENDCHAR
STARTCHAR SF440000
ENCODING 9580
SWIDTH 1000 0
SWIDTH1 1000 0
BBX 19 19 0 -3
BITMAP
00A000
00A000
00A000
00A000
00A000
00A000
00A000
00A000
FFBFE0
000000
FFBFE0
00A000
00A000
00A000
00A000
00A000
00A000
00A000
00A000
ENDCHAR
STARTCHAR uni256D
ENCODING 9581
SWIDTH 1000 0
SWIDTH1 1000 0
BBX 10 10 9 -3
BITMAP
07C0
0800
1000
2000
4000
4000
8000
8000
8000
8000
ENDCHAR
STARTCHAR uni256E
ENCODING 9582
SWIDTH 1000 0
SWIDTH1 1000 0
BBX 10 10 0 -3
BITMAP
F000
0C00
0200
0100
0080
0080
0040
0040
0040
0040
ENDCHAR
STARTCHAR uni256F
ENCODING 9583
SWIDTH 1000 0
SWIDTH1 1000 0
BBX 10 10 0 6
BITMAP
0040
0040
0040
0080
0080
0100
0200
0400
1800
E000
ENDCHAR
STARTCHAR uni2570
ENCODING 9584
SWIDTH 1000 0
SWIDTH1 1000 0
BBX 10 10 9 6
BITMAP
8000
8000
8000
8000
4000
4000
2000
1800
0600
01C0
ENDCHAR
STARTCHAR uni2571
ENCODING 9585
SWIDTH 1000 0
SWIDTH1 1000 0
BBX 18 18 1 -2
BITMAP
000040
000080
000100
000200
000400
000800
001000
002000
004000
008000
010000
020000
040000
080000
100000
200000
400000
800000
ENDCHAR
STARTCHAR uni2572
ENCODING 9586
SWIDTH 1000 0
SWIDTH1 1000 0
BBX 18 18 0 -2
BITMAP
800000
400000
200000
100000
080000
040000
020000
010000
008000
004000
002000
001000
000800
000400
000200
000100
000080
000040
ENDCHAR
STARTCHAR uni2573
ENCODING 9587
SWIDTH 1000 0
SWIDTH1 1000 0
BBX 19 19 0 -3
BITMAP
800020
400040
200080
100100
080200
040400
020800
011000
00A000
004000
00A000
011000
020800
040400
080200
100100
200080
400040
800000
ENDCHAR
STARTCHAR uni2581
ENCODING 9601
SWIDTH 1000 0
SWIDTH1 1000 0
BBX 17 2 1 -2
BITMAP
FFFF80
FFFF80
ENDCHAR
STARTCHAR uni2582
ENCODING 9602
SWIDTH 1000 0
SWIDTH1 1000 0
BBX 17 4 1 -2
BITMAP
FFFF80
FFFF80
FFFF80
FFFF80
ENDCHAR
STARTCHAR uni2583
ENCODING 9603
SWIDTH 1000 0
SWIDTH1 1000 0
BBX 17 7 1 -2
BITMAP
FFFF80
FFFF80
FFFF80
FFFF80
FFFF80
FFFF80
FFFF80
ENDCHAR
STARTCHAR dnblock
ENCODING 9604
SWIDTH 1000 0
SWIDTH1 1000 0
BBX 17 9 1 -2
BITMAP
FFFF80
FFFF80
FFFF80
FFFF80
FFFF80
FFFF80
FFFF80
FFFF80
FFFF80
ENDCHAR
STARTCHAR uni2585
ENCODING 9605
SWIDTH 1000 0
SWIDTH1 1000 0
BBX 17 11 1 -2
BITMAP
FFFF80
FFFF80
FFFF80
FFFF80
FFFF80
FFFF80
FFFF80
FFFF80
FFFF80
FFFF80
FFFF80
ENDCHAR
STARTCHAR uni2586
ENCODING 9606
SWIDTH 1000 0
SWIDTH1 1000 0
BBX 17 13 1 -2
BITMAP
FFFF80
FFFF80
FFFF80
FFFF80
FFFF80
FFFF80
FFFF80
FFFF80
FFFF80
FFFF80
FFFF80
FFFF80
FFFF80
ENDCHAR
STARTCHAR uni2587
ENCODING 9607
SWIDTH 1000 0
SWIDTH1 1000 0
BBX 17 16 1 -2
BITMAP
FFFF80
FFFF80
FFFF80
FFFF80
FFFF80
FFFF80
FFFF80
FFFF80
FFFF80
FFFF80
FFFF80
FFFF80
FFFF80
FFFF80
FFFF80
FFFF80
ENDCHAR
STARTCHAR block
ENCODING 9608
SWIDTH 1000 0
SWIDTH1 1000 0
BBX 17 18 1 -2
BITMAP
FFFF80
FFFF80
FFFF80
FFFF80
FFFF80
FFFF80
FFFF80
FFFF80
FFFF80
FFFF80
FFFF80
FFFF80
FFFF80
FFFF80
FFFF80
FFFF80
FFFF80
FFFF80
ENDCHAR
STARTCHAR uni2589
ENCODING 9609
SWIDTH 1000 0
SWIDTH1 1000 0
BBX 15 18 1 -2
BITMAP
FFFE
FFFE
FFFE
FFFE
FFFE
FFFE
FFFE
FFFE
FFFE
FFFE
FFFE
FFFE
FFFE
FFFE
FFFE
FFFE
FFFE
FFFE
ENDCHAR
STARTCHAR uni258A
ENCODING 9610
SWIDTH 1000 0
SWIDTH1 1000 0
BBX 13 18 1 -2
BITMAP
FFF8
FFF8
FFF8
FFF8
FFF8
FFF8
FFF8
FFF8
FFF8
FFF8
FFF8
FFF8
FFF8
FFF8
FFF8
FFF8
FFF8
FFF8
ENDCHAR
STARTCHAR uni258B
ENCODING 9611
SWIDTH 1000 0
SWIDTH1 1000 0
BBX 11 18 1 -2
BITMAP
FFE0
FFE0
FFE0
FFE0
FFE0
FFE0
FFE0
FFE0
FFE0
FFE0
FFE0
FFE0
FFE0
FFE0
FFE0
FFE0
FFE0
FFE0
ENDCHAR
STARTCHAR lfblock
ENCODING 9612
SWIDTH 1000 0
SWIDTH1 1000 0
BBX 8 18 1 -2
BITMAP
FF
FF
FF
FF
FF
FF
FF
FF
FF
FF
FF
FF
FF
FF
FF
FF
FF
FF
ENDCHAR
STARTCHAR uni258D
ENCODING 9613
SWIDTH 1000 0
SWIDTH1 1000 0
BBX 6 18 1 -2
BITMAP
FC
FC
FC
FC
FC
FC
FC
FC
FC
FC
FC
FC
FC
FC
FC
FC
FC
FC
ENDCHAR
STARTCHAR uni258E
ENCODING 9614
SWIDTH 1000 0
SWIDTH1 1000 0
BBX 4 18 1 -2
BITMAP
F0
F0
F0
F0
F0
F0
F0
F0
F0
F0
F0
F0
F0
F0
F0
F0
F0
F0
ENDCHAR
STARTCHAR uni258F
ENCODING 9615
SWIDTH 1000 0
SWIDTH1 1000 0
BBX 2 18 1 -2
BITMAP
C0
C0
C0
C0
C0
C0
C0
C0
C0
C0
C0
C0
C0
C0
C0
C0
C0
C0
ENDCHAR
STARTCHAR dkshade
ENCODING 9619
SWIDTH 1000 0
SWIDTH1 1000 0
BBX 16 18 1 -2
BITMAP
FFFF
BBBB
FFFF
EEEE
FFFF
FFFF
BBBB
FFFF
EEEE
FFFF
FFFF
BBBB
FFFF
EEEE
FFFF
FFFF
BBBB
FFFF
ENDCHAR
STARTCHAR uni2594
ENCODING 9620
SWIDTH 1000 0
SWIDTH1 1000 0
BBX 16 1 0 13
BITMAP
FFFF
ENDCHAR
STARTCHAR uni2595
ENCODING 9621
SWIDTH 1000 0
SWIDTH1 1000 0
BBX 1 16 15 -2
BITMAP
80
80
80
80
80
80
80
80
80
80
80
80
80
80
80
80
ENDCHAR
STARTCHAR filledbox
ENCODING 9632
SWIDTH 1000 0
SWIDTH1 1000 0
BBX 13 13 2 -1
BITMAP
FFF8
FFF8
FFF8
FFF8
FFF8
FFF8
FFF8
FFF8
FFF8
FFF8
FFF8
FFF8
FFF8
ENDCHAR
STARTCHAR H22073
ENCODING 9633
SWIDTH 1000 0
SWIDTH1 1000 0
BBX 13 13 2 -1
BITMAP
FFF8
8008
8008
8008
8008
8008
8008
8008
8008
8008
8008
8008
FFF8
ENDCHAR
STARTCHAR triagup
ENCODING 9650
SWIDTH 1000 0
SWIDTH1 1000 0
BBX 17 13 1 0
BITMAP
008000
01C000
01C000
03E000
07F000
07F000
0FF800
1FFC00
1FFC00
3FFE00
7FFF00
7FFF00
FFFF80
ENDCHAR
STARTCHAR uni25B3
ENCODING 9651
SWIDTH 1000 0
SWIDTH1 1000 0
BBX 17 13 1 0
BITMAP
008000
014000
014000
022000
041000
041000
080800
100400
100400
200200
400100
400100
FFFF80
ENDCHAR
STARTCHAR triagdn
ENCODING 9660
SWIDTH 1000 0
SWIDTH1 1000 0
BBX 17 13 1 0
BITMAP
FFFF80
7FFF00
7FFF00
3FFE00
1FFC00
1FFC00
0FF800
07F000
07F000
03E000
01C000
01C000
008000
ENDCHAR
STARTCHAR uni25BD
ENCODING 9661
SWIDTH 1000 0
SWIDTH1 1000 0
BBX 17 13 1 0
BITMAP
FFFF80
400100
400100
200200
100400
100400
080800
041000
041000
022000
014000
014000
008000
ENDCHAR
STARTCHAR uni25C6
ENCODING 9670
SWIDTH 1000 0
SWIDTH1 1000 0
BBX 17 17 1 -2
BITMAP
008000
01C000
03E000
07F000
0FF800
1FFC00
3FFE00
7FFF00
FFFF80
7FFF00
3FFE00
1FFC00
0FF800
07F000
03E000
01C000
008000
ENDCHAR
STARTCHAR uni25C7
ENCODING 9671
SWIDTH 1000 0
SWIDTH1 1000 0
BBX 17 17 1 -2
BITMAP
008000
014000
022000
041000
080800
100400
200200
400100
800080
400100
200200
100400
080800
041000
022000
014000
008000
ENDCHAR
STARTCHAR circle
ENCODING 9675
SWIDTH 1000 0
SWIDTH1 1000 0
BBX 15 15 2 -1
BITMAP
07C0
1830
2008
4004
4004
8002
8002
8002
8002
8002
4004
4004
2008
1830
07C0
ENDCHAR
STARTCHAR uni25CE
ENCODING 9678
SWIDTH 1000 0
SWIDTH1 1000 0
BBX 15 15 2 -1
BITMAP
07C0
1830
2008
4004
4384
8442
8822
8822
8822
8442
4384
4004
2008
1830
07C0
ENDCHAR
STARTCHAR H18533
ENCODING 9679
SWIDTH 1000 0
SWIDTH1 1000 0
BBX 15 15 2 -1
BITMAP
07C0
1FF0
3FF8
7FFC
7FFC
FFFE
FFFE
FFFE
FFFE
FFFE
7FFC
7FFC
3FF8
1FF0
07C0
ENDCHAR
STARTCHAR uni25E2
ENCODING 9698
SWIDTH 1000 0
SWIDTH1 1000 0
BBX 19 19 0 -3
BITMAP
000020
000060
0000E0
0001E0
0003E0
0007E0
000FE0
001FE0
003FE0
007FE0
00FFE0
01FFE0
03FFE0
07FFE0
0FFFE0
1FFFE0
3FFFE0
7FFFE0
FFFFE0
ENDCHAR
STARTCHAR uni25E3
ENCODING 9699
SWIDTH 1000 0
SWIDTH1 1000 0
BBX 19 19 0 -3
BITMAP
800000
C00000
E00000
F00000
F80000
FC0000
FE0000
FF0000
FF8000
FFC000
FFE000
FFF000
FFF800
FFFC00
FFFE00
FFFF00
FFFF80
FFFFC0
FFFFE0
ENDCHAR
STARTCHAR uni25E4
ENCODING 9700
SWIDTH 1000 0
SWIDTH1 1000 0
BBX 18 18 0 -2
BITMAP
FFFFC0
FFFF80
FFFF00
FFFE00
FFFC00
FFF800
FFF000
FFE000
FFC000
FF8000
FF0000
FE0000
FC0000
F80000
F00000
E00000
C00000
800000
ENDCHAR
STARTCHAR uni25E5
ENCODING 9701
SWIDTH 1000 0
SWIDTH1 1000 0
BBX 18 18 1 -2
BITMAP
FFFFC0
7FFFC0
3FFFC0
1FFFC0
0FFFC0
07FFC0
03FFC0
01FFC0
00FFC0
007FC0
003FC0
001FC0
000FC0
0007C0
0003C0
0001C0
0000C0
000040
ENDCHAR
STARTCHAR uni2605
ENCODING 9733
SWIDTH 1000 0
SWIDTH1 1000 0
BBX 17 17 1 -2
BITMAP
008000
008000
008000
01C000
01C000
03E000
FFFF80
7FFF00
1FFC00
0FF800
07F000
07F000
0F7800
0E3800
0C1800
180C00
100400
ENDCHAR
STARTCHAR uni2606
ENCODING 9734
SWIDTH 1000 0
SWIDTH1 1000 0
BBX 17 17 1 -2
BITMAP
008000
008000
008000
014000
014000
022000
FE3F80
600300
100400
080800
041000
049000
094800
0A2800
0C1800
180C00
100400
ENDCHAR
STARTCHAR uni2609
ENCODING 9737
SWIDTH 1000 0
SWIDTH1 1000 0
BBX 8 9 4 2
BITMAP
3C
42
81
81
99
99
81
42
3C
ENDCHAR
STARTCHAR female
ENCODING 9792
SWIDTH 1000 0
SWIDTH1 1000 0
BBX 13 16 3 -2
BITMAP
0700
0880
1040
2020
2020
2020
1040
0880
0700
0200
0200
FFF8
0200
0200
0200
0200
ENDCHAR
STARTCHAR male
ENCODING 9794
SWIDTH 1000 0
SWIDTH1 1000 0
BBX 15 15 2 -1
BITMAP
00FE
0006
000A
0012
0022
0042
1C82
2300
4100
8080
8080
8080
4100
2200
1C00
ENDCHAR
STARTCHAR uni2E81
ENCODING 11905
SWIDTH 1000 0
SWIDTH1 1000 0
BBX 13 16 1 -1
BITMAP
0010
00F8
1F00
1000
1000
1000
1000
1000
1000
1000
1000
1000
2000
2000
4000
8000
ENDCHAR
STARTCHAR uni2E84
ENCODING 11908
SWIDTH 1000 0
SWIDTH1 1000 0
BBX 14 15 2 -1
BITMAP
FFE0
0020
0020
0020
0020
0020
0020
0020
0020
0020
0024
0014
0014
000C
0004
ENDCHAR
STARTCHAR uni2E88
ENCODING 11912
SWIDTH 1000 0
SWIDTH1 1000 0
BBX 13 8 2 7
BITMAP
1000
1000
1000
1FF8
2008
2010
4020
8000
ENDCHAR
STARTCHAR uni2E8B
ENCODING 11915
SWIDTH 1000 0
SWIDTH1 1000 0
BBX 12 14 3 0
BITMAP
FF80
8080
8080
8080
8080
8080
8080
8500
8200
8000
8010
8010
8010
7FF0
ENDCHAR
STARTCHAR uni2E8C
ENCODING 11916
SWIDTH 1000 0
SWIDTH1 1000 0
BBX 11 6 3 9
BITMAP
0400
8420
4420
2440
2480
0400
ENDCHAR
STARTCHAR uni2E97
ENCODING 11927
SWIDTH 1000 0
SWIDTH1 1000 0
BBX 14 16 1 -1
BITMAP
0400
0400
0400
0400
0400
2490
2448
2448
4424
4424
4424
8424
0400
0400
1400
0800
ENDCHAR
STARTCHAR uni2EA7
ENCODING 11943
SWIDTH 1000 0
SWIDTH1 1000 0
BBX 15 8 1 7
BITMAP
0100
1100
1100
1FF8
2100
4100
0100
FFFE
ENDCHAR
STARTCHAR uni2EAA
ENCODING 11946
SWIDTH 1000 0
SWIDTH1 1000 0
BBX 8 13 1 0
BITMAP
7F
02
04
08
48
48
4F
48
48
48
4B
5C
E0
ENDCHAR
STARTCHAR uni2EAE
ENCODING 11950
SWIDTH 1000 0
SWIDTH1 1000 0
BBX 15 7 1 8
BITMAP
1040
1040
1F7E
2890
2488
4508
8000
ENDCHAR
STARTCHAR uni2EB3
ENCODING 11955
SWIDTH 1000 0
SWIDTH1 1000 0
BBX 15 6 1 7
BITMAP
7FFE
4002
8444
0820
1010
2008
ENDCHAR
STARTCHAR uni2EB6
ENCODING 11958
SWIDTH 1000 0
SWIDTH1 1000 0
BBX 15 12 1 3
BITMAP
0820
0440
7FFC
0100
3FF8
0200
FFFE
0400
0800
1000
2000
C000
ENDCHAR
STARTCHAR uni2EB7
ENCODING 11959
SWIDTH 1000 0
SWIDTH1 1000 0
BBX 15 12 1 3
BITMAP
0820
0420
0440
7FFC
0100
0100
0100
3FF8
0100
0100
0100
FFFE
ENDCHAR
STARTCHAR uni2EBB
ENCODING 11963
SWIDTH 1000 0
SWIDTH1 1000 0
BBX 15 8 1 7
BITMAP
0100
3FF8
0108
FFFE
0108
3FF8
0100
7FFC
ENDCHAR
STARTCHAR uni2ECA
ENCODING 11978
SWIDTH 1000 0
SWIDTH1 1000 0
BBX 7 13 1 1
BITMAP
7E
42
42
42
7E
08
08
4E
48
48
48
4E
F0
ENDCHAR
STARTCHAR uni2FF0
ENCODING 12272
SWIDTH 1000 0
SWIDTH1 1000 0
BBX 12 13 3 1
BITMAP
B6D0
0410
8400
8010
0410
8400
8010
0410
8400
8010
0410
8400
B6D0
ENDCHAR
STARTCHAR uni2FF1
ENCODING 12273
SWIDTH 1000 0
SWIDTH1 1000 0
BBX 12 13 3 1
BITMAP
B6D0
0010
8000
8010
0010
8000
B6D0
0010
8000
8010
0010
8000
B6D0
ENDCHAR
STARTCHAR uni2FF2
ENCODING 12274
SWIDTH 1000 0
SWIDTH1 1000 0
BBX 13 13 2 1
BITMAP
B368
8888
0880
0000
8888
8888
0000
0880
8888
8008
0880
8880
B328
ENDCHAR
STARTCHAR uni2FF3
ENCODING 12275
SWIDTH 1000 0
SWIDTH1 1000 0
BBX 12 13 3 1
BITMAP
B6D0
0010
8000
8010
36D0
8000
8010
0010
B6C0
8010
0010
8000
B6D0
ENDCHAR
STARTCHAR uni2FF4
ENCODING 12276
SWIDTH 1000 0
SWIDTH1 1000 0
BBX 13 13 2 1
BITMAP
B368
8008
0000
0C80
8088
8008
0880
0880
8008
8C88
0000
8000
B328
ENDCHAR
STARTCHAR uni2FF5
ENCODING 12277
SWIDTH 1000 0
SWIDTH1 1000 0
BBX 12 13 3 1
BITMAP
B6D0
0010
8000
8010
1B10
9100
9110
0010
9100
9110
0010
9100
B6D0
ENDCHAR
STARTCHAR uni2FF6
ENCODING 12278
SWIDTH 1000 0
SWIDTH1 1000 0
BBX 12 13 3 1
BITMAP
B6D0
1110
9100
8010
1110
9100
8010
1110
9700
8010
0010
8000
B6D0
ENDCHAR
STARTCHAR uni2FF7
ENCODING 12279
SWIDTH 1000 0
SWIDTH1 1000 0
BBX 12 13 3 1
BITMAP
B6D0
0010
8000
8010
1B50
9000
8010
1010
9B40
8010
0010
8000
B6D0
ENDCHAR
STARTCHAR uni2FF8
ENCODING 12280
SWIDTH 1000 0
SWIDTH1 1000 0
BBX 12 13 3 1
BITMAP
B6D0
0010
8000
8010
0CD0
8800
8010
0810
8800
8010
0810
8800
B6D0
ENDCHAR
STARTCHAR uni2FF9
ENCODING 12281
SWIDTH 1000 0
SWIDTH1 1000 0
BBX 12 13 3 1
BITMAP
B6D0
0010
8000
8010
6D10
8100
8010
0010
8100
8110
0010
8100
B6D0
ENDCHAR
STARTCHAR uni2FFA
ENCODING 12282
SWIDTH 1000 0
SWIDTH1 1000 0
BBX 12 13 3 1
BITMAP
B6D0
0810
8800
8010
0810
8800
8010
0810
8800
8DB0
0010
8000
B6D0
ENDCHAR
STARTCHAR uni2FFB
ENCODING 12283
SWIDTH 1000 0
SWIDTH1 1000 0
BBX 13 12 2 1
BITMAP
DB80
8080
0080
8B68
8888
0088
8800
0888
CD88
0000
0808
0BB8
ENDCHAR
STARTCHAR uni3000
ENCODING 12288
SWIDTH 1000 0
SWIDTH1 1000 0
BBX 1 1 17 -2
BITMAP
00
ENDCHAR
STARTCHAR uni3001
ENCODING 12289
SWIDTH 1000 0
SWIDTH1 1000 0
BBX 4 4 1 0
BITMAP
80
60
30
10
ENDCHAR
STARTCHAR uni3002
ENCODING 12290
SWIDTH 1000 0
SWIDTH1 1000 0
BBX 4 4 1 -1
BITMAP
60
90
90
60
ENDCHAR
STARTCHAR uni3003
ENCODING 12291
SWIDTH 1000 0
SWIDTH1 1000 0
BBX 6 7 6 3
BITMAP
24
24
6C
48
48
90
90
ENDCHAR
STARTCHAR uni3005
ENCODING 12293
SWIDTH 1000 0
SWIDTH1 1000 0
BBX 9 12 3 1
BITMAP
1000
1000
1000
2380
3C80
4080
8100
0100
0A00
0400
0200
0200
ENDCHAR
STARTCHAR uni3006
ENCODING 12294
SWIDTH 1000 0
SWIDTH1 1000 0
BBX 11 12 2 1
BITMAP
00C0
0020
0020
3C40
4280
4100
8280
8480
8800
9000
A000
C000
ENDCHAR
STARTCHAR uni3007
ENCODING 12295
SWIDTH 1000 0
SWIDTH1 1000 0
BBX 14 14 1 -1
BITMAP
0780
1860
2010
4008
4008
8004
8004
8004
8004
4008
4008
2010
1860
0780
ENDCHAR
STARTCHAR uni3008
ENCODING 12296
SWIDTH 1000 0
SWIDTH1 1000 0
BBX 5 15 12 -1
BITMAP
10
10
20
20
40
40
80
80
40
40
20
20
10
10
08
ENDCHAR
STARTCHAR uni3009
ENCODING 12297
SWIDTH 1000 0
SWIDTH1 1000 0
BBX 4 15 2 -1
BITMAP
80
80
40
40
20
20
10
10
10
20
20
40
40
80
80
ENDCHAR
STARTCHAR uni300A
ENCODING 12298
SWIDTH 1000 0
SWIDTH1 1000 0
BBX 8 16 9 -1
BITMAP
09
12
12
24
24
48
48
90
90
48
48
24
24
12
12
09
ENDCHAR
STARTCHAR uni300B
ENCODING 12299
SWIDTH 1000 0
SWIDTH1 1000 0
BBX 8 16 1 -1
BITMAP
90
48
48
24
24
12
12
09
09
12
12
24
24
48
48
90
ENDCHAR
STARTCHAR uni300C
ENCODING 12300
SWIDTH 1000 0
SWIDTH1 1000 0
BBX 5 16 11 -1
BITMAP
F8
80
80
80
80
80
80
80
80
80
80
80
80
80
80
80
ENDCHAR
STARTCHAR uni300D
ENCODING 12301
SWIDTH 1000 0
SWIDTH1 1000 0
BBX 4 17 3 -2
BITMAP
10
10
10
10
10
10
10
10
10
10
10
10
10
10
10
10
F0
ENDCHAR
STARTCHAR uni300E
ENCODING 12302
SWIDTH 1000 0
SWIDTH1 1000 0
BBX 5 16 11 -1
BITMAP
F8
88
B8
A0
A0
A0
A0
A0
A0
A0
A0
A0
A0
A0
A0
E0
ENDCHAR
STARTCHAR uni300F
ENCODING 12303
SWIDTH 1000 0
SWIDTH1 1000 0
BBX 5 16 3 -1
BITMAP
38
28
28
28
28
28
28
28
28
28
28
28
28
E8
88
F8
ENDCHAR
STARTCHAR uni3010
ENCODING 12304
SWIDTH 1000 0
SWIDTH1 1000 0
BBX 7 16 8 -1
BITMAP
FE
FC
F8
F8
F0
F0
E0
E0
E0
E0
F0
F0
F8
F8
FC
FE
ENDCHAR
STARTCHAR uni3011
ENCODING 12305
SWIDTH 1000 0
SWIDTH1 1000 0
BBX 7 16 2 -1
BITMAP
FE
7E
3E
3E
1E
1E
0E
0E
0E
0E
1E
1E
3E
3E
7E
FE
ENDCHAR
STARTCHAR uni3012
ENCODING 12306
SWIDTH 1000 0
SWIDTH1 1000 0
BBX 15 15 2 -1
BITMAP
FFFE
0000
0000
0000
0000
FFFE
0100
0100
0100
0100
0100
0100
0100
0100
0100
ENDCHAR
STARTCHAR uni3013
ENCODING 12307
SWIDTH 1000 0
SWIDTH1 1000 0
BBX 16 14 1 0
BITMAP
FFFF
FFFF
FFFF
FFFF
0000
0000
0000
0000
0000
0000
FFFF
FFFF
FFFF
FFFF
ENDCHAR
STARTCHAR uni3014
ENCODING 12308
SWIDTH 1000 0
SWIDTH1 1000 0
BBX 4 16 12 -1
BITMAP
10
20
40
80
80
80
80
80
80
80
80
80
80
40
20
10
ENDCHAR
STARTCHAR uni3015
ENCODING 12309
SWIDTH 1000 0
SWIDTH1 1000 0
BBX 4 16 2 -1
BITMAP
80
40
20
10
10
10
10
10
10
10
10
10
10
20
40
80
ENDCHAR
STARTCHAR uni3016
ENCODING 12310
SWIDTH 1000 0
SWIDTH1 1000 0
BBX 8 16 9 -1
BITMAP
FF
82
84
88
88
90
90
90
90
90
90
88
88
84
82
FF
ENDCHAR
STARTCHAR uni3017
ENCODING 12311
SWIDTH 1000 0
SWIDTH1 1000 0
BBX 8 16 2 -1
BITMAP
FF
41
21
11
11
09
09
09
09
09
09
11
11
21
41
FF
ENDCHAR
STARTCHAR uni301D
ENCODING 12317
SWIDTH 1000 0
SWIDTH1 1000 0
BBX 5 5 10 10
BITMAP
90
90
90
48
48
ENDCHAR
STARTCHAR uni301E
ENCODING 12318
SWIDTH 1000 0
SWIDTH1 1000 0
BBX 5 5 2 10
BITMAP
48
48
48
90
90
ENDCHAR
STARTCHAR uni3021
ENCODING 12321
SWIDTH 1000 0
SWIDTH1 1000 0
BBX 1 15 7 -1
BITMAP
80
80
80
80
80
80
80
80
80
80
80
80
80
80
80
ENDCHAR
STARTCHAR uni3022
ENCODING 12322
SWIDTH 1000 0
SWIDTH1 1000 0
BBX 6 16 5 -2
BITMAP
04
04
84
84
84
84
84
84
84
84
84
84
84
04
04
04
ENDCHAR
STARTCHAR uni3023
ENCODING 12323
SWIDTH 1000 0
SWIDTH1 1000 0
BBX 11 16 2 -2
BITMAP
0020
8020
8020
8420
8420
8420
8420
8420
8420
8420
8420
8420
8420
8420
8420
8020
ENDCHAR
STARTCHAR uni3024
ENCODING 12324
SWIDTH 1000 0
SWIDTH1 1000 0
BBX 10 12 2 2
BITMAP
0040
0040
0040
6080
1880
0680
0100
0280
0440
0840
3000
C000
ENDCHAR
STARTCHAR uni3025
ENCODING 12325
SWIDTH 1000 0
SWIDTH1 1000 0
BBX 9 15 3 -1
BITMAP
2000
2080
2080
4100
8200
FC00
1200
2100
4080
4080
4080
4080
4080
2100
1E00
ENDCHAR
STARTCHAR uni3026
ENCODING 12326
SWIDTH 1000 0
SWIDTH1 1000 0
BBX 16 6 0 6
BITMAP
0100
0100
0100
0100
0100
FFFF
ENDCHAR
STARTCHAR uni3027
ENCODING 12327
SWIDTH 1000 0
SWIDTH1 1000 0
BBX 14 9 1 3
BITMAP
0200
0200
0200
0200
FFFC
0000
0000
0000
FFFC
ENDCHAR
STARTCHAR uni3028
ENCODING 12328
SWIDTH 1000 0
SWIDTH1 1000 0
BBX 16 12 0 2
BITMAP
0100
0100
0100
FFFF
0000
0000
0000
3FFC
0000
0000
0000
FFFE
ENDCHAR
STARTCHAR uni3029
ENCODING 12329
SWIDTH 1000 0
SWIDTH1 1000 0
BBX 14 16 1 -2
BITMAP
1000
1000
2008
3FFC
6020
9820
0420
0240
0140
0080
0140
0220
0420
0820
3000
C000
ENDCHAR
STARTCHAR uni303E
ENCODING 12350
SWIDTH 1000 0
SWIDTH1 1000 0
BBX 12 13 3 1
BITMAP
B6D0
0010
8000
9C50
2390
8000
8110
3F90
8400
BF90
1010
8000
B6D0
ENDCHAR
STARTCHAR uni3041
ENCODING 12353
SWIDTH 1000 0
SWIDTH1 1000 0
BBX 10 11 4 -1
BITMAP
1000
1300
FC00
1200
1F00
3280
5440
9440
9840
9080
6900
ENDCHAR
STARTCHAR uni3042
ENCODING 12354
SWIDTH 1000 0
SWIDTH1 1000 0
BBX 15 16 2 -1
BITMAP
0400
0400
04F0
7F00
0400
0440
07F0
1C4C
2444
4482
4482
8502
8602
4C04
3418
0060
ENDCHAR
STARTCHAR uni3043
ENCODING 12355
SWIDTH 1000 0
SWIDTH1 1000 0
BBX 11 9 4 -1
BITMAP
8000
8080
8040
8040
8020
8020
5020
5000
2000
ENDCHAR
STARTCHAR uni3044
ENCODING 12356
SWIDTH 1000 0
SWIDTH1 1000 0
BBX 14 14 3 -1
BITMAP
8000
8000
8000
8010
8010
8008
8008
8004
8004
8004
8404
4400
4800
3000
ENDCHAR
STARTCHAR uni3045
ENCODING 12357
SWIDTH 1000 0
SWIDTH1 1000 0
BBX 8 12 6 -1
BITMAP
60
1C
00
1C
E2
01
01
01
01
02
0C
30
ENDCHAR
STARTCHAR uni3046
ENCODING 12358
SWIDTH 1000 0
SWIDTH1 1000 0
BBX 11 16 4 -1
BITMAP
3800
0780
0000
0000
0F80
F040
0020
0020
0020
0020
0020
0040
0040
0080
0300
1C00
ENDCHAR
STARTCHAR uni3047
ENCODING 12359
SWIDTH 1000 0
SWIDTH1 1000 0
BBX 10 12 4 -1
BITMAP
2000
1C00
0000
0000
7F00
0200
0400
0800
1C00
2400
4400
83C0
ENDCHAR
STARTCHAR uni3048
ENCODING 12360
SWIDTH 1000 0
SWIDTH1 1000 0
BBX 15 16 2 -2
BITMAP
0C00
0380
0000
0000
03E0
3C40
0080
0100
0200
0700
0880
1080
2080
4080
8080
007E
ENDCHAR
STARTCHAR uni3049
ENCODING 12361
SWIDTH 1000 0
SWIDTH1 1000 0
BBX 11 11 4 -1
BITMAP
1000
1700
F840
1020
1F00
3080
5040
9040
9040
9080
6300
ENDCHAR
STARTCHAR uni304A
ENCODING 12362
SWIDTH 1000 0
SWIDTH1 1000 0
BBX 16 16 2 -1
BITMAP
0400
0400
0400
05C4
7E02
0401
0400
05F0
0E08
3404
4402
8402
8402
8404
4408
3870
ENDCHAR
STARTCHAR uni304B
ENCODING 12363
SWIDTH 1000 0
SWIDTH1 1000 0
BBX 16 16 2 -1
BITMAP
0800
0800
0800
0810
0F08
F884
1042
1042
1041
2041
2040
2040
4040
4080
8880
8700
ENDCHAR
STARTCHAR uni304C
ENCODING 12364
SWIDTH 1000 0
SWIDTH1 1000 0
BBX 16 16 2 -1
BITMAP
0804
0802
0808
0804
0F10
F888
1044
1042
1042
2041
2041
2040
4040
4080
8880
8700
ENDCHAR
STARTCHAR uni304D
ENCODING 12365
SWIDTH 1000 0
SWIDTH1 1000 0
BBX 13 16 3 -1
BITMAP
0200
0200
0170
FF80
0100
00B8
FFC0
0040
0040
3FA0
4070
8010
8000
4000
3000
0FE0
ENDCHAR
STARTCHAR uni304E
ENCODING 12366
SWIDTH 1000 0
SWIDTH1 1000 0
BBX 14 16 3 -1
BITMAP
0208
0224
0110
FFE0
0100
00B8
FFC0
0040
0040
3FA0
4070
8010
8000
4000
3000
0FE0
ENDCHAR
STARTCHAR uni304F
ENCODING 12367
SWIDTH 1000 0
SWIDTH1 1000 0
BBX 10 16 4 -1
BITMAP
0080
0100
0200
0400
0800
1000
6000
8000
8000
6000
1000
0C00
0200
0100
0080
0040
ENDCHAR
STARTCHAR uni3050
ENCODING 12368
SWIDTH 1000 0
SWIDTH1 1000 0
BBX 13 16 4 -1
BITMAP
0080
0100
0210
0408
0840
1020
6000
8000
8000
6000
1000
0C00
0200
0100
0080
0040
ENDCHAR
STARTCHAR uni3051
ENCODING 12369
SWIDTH 1000 0
SWIDTH1 1000 0
BBX 15 16 2 -2
BITMAP
0010
4010
4010
4010
87FE
8010
8010
8010
8010
8010
8010
8010
4020
4020
4040
0180
ENDCHAR
STARTCHAR uni3052
ENCODING 12370
SWIDTH 1000 0
SWIDTH1 1000 0
BBX 15 17 2 -2
BITMAP
0004
0022
4028
4024
4020
87FE
8020
8020
8020
8020
8020
8020
8020
4040
4040
4080
0300
ENDCHAR
STARTCHAR uni3053
ENCODING 12371
SWIDTH 1000 0
SWIDTH1 1000 0
BBX 12 13 3 0
BITMAP
3FC0
0000
0000
0000
0000
0000
0000
0000
8000
8000
8000
4000
3FF0
ENDCHAR
STARTCHAR uni3054
ENCODING 12372
SWIDTH 1000 0
SWIDTH1 1000 0
BBX 14 15 3 0
BITMAP
0008
0024
3FD0
0000
0000
0000
0000
0000
0000
0000
8000
8000
8000
4000
3FF0
ENDCHAR
STARTCHAR uni3055
ENCODING 12373
SWIDTH 1000 0
SWIDTH1 1000 0
BBX 12 16 3 -1
BITMAP
0200
0200
0170
FF80
0100
0080
0080
0040
1FA0
6070
4010
8000
8000
4000
3000
0FC0
ENDCHAR
STARTCHAR uni3056
ENCODING 12374
SWIDTH 1000 0
SWIDTH1 1000 0
BBX 14 16 3 -1
BITMAP
0208
0224
0110
FFE0
0100
0080
0080
0040
1FA0
6070
4010
8000
8000
4000
3000
0FC0
ENDCHAR
STARTCHAR uni3057
ENCODING 12375
SWIDTH 1000 0
SWIDTH1 1000 0
BBX 12 15 4 -1
BITMAP
8000
8000
8000
8000
8000
8000
8000
8000
8000
8010
8010
8020
8040
4180
3E00
ENDCHAR
STARTCHAR uni3058
ENCODING 12376
SWIDTH 1000 0
SWIDTH1 1000 0
BBX 12 15 4 -1
BITMAP
8000
8040
8120
8080
8000
8000
8000
8000
8000
8010
8010
8020
8040
4180
3E00
ENDCHAR
STARTCHAR uni3059
ENCODING 12377
SWIDTH 1000 0
SWIDTH1 1000 0
BBX 15 16 2 -1
BITMAP
0080
0080
0080
FFFE
0080
0080
0680
0980
1080
1080
0980
0680
0100
0100
0200
0C00
ENDCHAR
STARTCHAR uni305A
ENCODING 12378
SWIDTH 1000 0
SWIDTH1 1000 0
BBX 16 16 2 -1
BITMAP
0082
0089
0084
FFFE
0080
0080
0680
0980
1080
1080
0980
0680
0100
0100
0200
0C00
ENDCHAR
STARTCHAR uni305B
ENCODING 12379
SWIDTH 1000 0
SWIDTH1 1000 0
BBX 16 15 1 -1
BITMAP
0010
0810
0810
0810
08FF
FF10
0810
0810
0810
08E0
0800
0800
0800
0400
03FC
ENDCHAR
STARTCHAR uni305C
ENCODING 12380
SWIDTH 1000 0
SWIDTH1 1000 0
BBX 17 16 1 -1
BITMAP
000100
000480
081200
081000
081000
08FF00
FF1000
081000
081000
081000
08E000
080000
080000
080000
040000
03FC00
ENDCHAR
STARTCHAR uni305D
ENCODING 12381
SWIDTH 1000 0
SWIDTH1 1000 0
BBX 15 15 2 -1
BITMAP
1FE0
0040
0080
0300
0400
083E
1FC0
E100
0200
0400
0400
0400
0200
0180
0070
ENDCHAR
STARTCHAR uni305E
ENCODING 12382
SWIDTH 1000 0
SWIDTH1 1000 0
BBX 15 15 2 -1
BITMAP
1FE0
0044
0092
0308
0400
083E
1FC0
E100
0200
0400
0400
0400
0200
0180
0070
ENDCHAR
STARTCHAR uni305F
ENCODING 12383
SWIDTH 1000 0
SWIDTH1 1000 0
BBX 15 15 2 -1
BITMAP
0800
0800
0B80
FC00
1000
1000
10FC
2000
2000
2000
4000
4100
4100
8100
80FE
ENDCHAR
STARTCHAR uni3060
ENCODING 12384
SWIDTH 1000 0
SWIDTH1 1000 0
BBX 15 15 2 -1
BITMAP
0804
0812
0B88
FC00
1000
1000
10FC
2000
2000
2000
4000
4100
4100
8100
80FE
ENDCHAR
STARTCHAR uni3061
ENCODING 12385
SWIDTH 1000 0
SWIDTH1 1000 0
BBX 14 16 2 -1
BITMAP
0400
0400
0478
FF80
0400
0800
0800
13E0
1C18
3008
2004
0004
0004
0008
0030
07C0
ENDCHAR
STARTCHAR uni3062
ENCODING 12386
SWIDTH 1000 0
SWIDTH1 1000 0
BBX 15 16 2 -1
BITMAP
0404
0412
0408
FFE0
0400
0800
0800
13E0
1C18
3008
2004
0004
0004
0008
0030
07C0
ENDCHAR
STARTCHAR uni3063
ENCODING 12387
SWIDTH 1000 0
SWIDTH1 1000 0
BBX 11 8 4 -1
BITMAP
0780
F840
0020
0020
0020
0040
0180
0E00
ENDCHAR
STARTCHAR uni3064
ENCODING 12388
SWIDTH 1000 0
SWIDTH1 1000 0
BBX 15 12 2 0
BITMAP
01F0
0E0C
F004
0002
0002
0002
0002
0002
0004
0008
0070
0780
ENDCHAR
STARTCHAR uni3065
ENCODING 12389
SWIDTH 1000 0
SWIDTH1 1000 0
BBX 16 15 2 0
BITMAP
0002
0009
0004
01F0
0E0C
F004
0002
0002
0002
0002
0002
0004
0008
0070
0780
ENDCHAR
STARTCHAR uni3066
ENCODING 12390
SWIDTH 1000 0
SWIDTH1 1000 0
BBX 15 14 2 -1
BITMAP
03FE
FC60
0080
0100
0200
0200
0400
0400
0400
0200
0200
0100
00C0
0038
ENDCHAR
STARTCHAR uni3067
ENCODING 12391
SWIDTH 1000 0
SWIDTH1 1000 0
BBX 15 14 2 -1
BITMAP
03FE
FC60
0080
0104
0212
0208
0400
0400
0400
0200
0200
0100
00C0
0038
ENDCHAR
STARTCHAR uni3068
ENCODING 12392
SWIDTH 1000 0
SWIDTH1 1000 0
BBX 12 16 4 -1
BITMAP
1000
1000
1000
1000
0800
0870
0980
0E00
1800
2000
4000
8000
8000
8000
6000
1FE0
ENDCHAR
STARTCHAR uni3069
ENCODING 12393
SWIDTH 1000 0
SWIDTH1 1000 0
BBX 13 16 4 -1
BITMAP
1000
1010
1048
1020
0800
0870
0980
0E00
1800
2000
4000
8000
8000
8000
6000
1FE0
ENDCHAR
STARTCHAR uni306A
ENCODING 12394
SWIDTH 1000 0
SWIDTH1 1000 0
BBX 15 16 2 -1
BITMAP
0800
0800
0F00
F838
1006
1000
2000
2010
4010
4010
8010
83F0
0418
0414
0212
01E0
ENDCHAR
STARTCHAR uni306B
ENCODING 12395
SWIDTH 1000 0
SWIDTH1 1000 0
BBX 15 15 2 -1
BITMAP
4000
4000
41FC
8000
8000
8000
8000
8000
8000
8100
8200
8200
4100
40FE
4000
ENDCHAR
STARTCHAR uni306C
ENCODING 12396
SWIDTH 1000 0
SWIDTH1 1000 0
BBX 16 16 2 -1
BITMAP
0080
0080
4080
41F0
468C
2882
3102
2101
5101
5201
8A01
8C01
8439
8A46
7042
003D
ENDCHAR
STARTCHAR uni306D
ENCODING 12397
SWIDTH 1000 0
SWIDTH1 1000 0
BBX 15 16 2 -1
BITMAP
1000
1000
1000
1C78
F984
1202
1402
1802
1002
3002
3002
50FA
9106
1104
108A
1072
ENDCHAR
STARTCHAR uni306E
ENCODING 12398
SWIDTH 1000 0
SWIDTH1 1000 0
BBX 15 14 2 -1
BITMAP
03C0
0D30
1108
2104
4104
4102
8202
8202
8202
8404
8404
4808
3030
00C0
ENDCHAR
STARTCHAR uni306F
ENCODING 12399
SWIDTH 1000 0
SWIDTH1 1000 0
BBX 15 15 2 -1
BITMAP
4010
4010
4010
8FFE
8010
8010
8010
8010
8010
8010
83D0
8438
8414
4212
41E0
ENDCHAR
STARTCHAR uni3070
ENCODING 12400
SWIDTH 1000 0
SWIDTH1 1000 0
BBX 16 16 2 -1
BITMAP
0002
4011
4014
4012
8010
8FFE
8010
8010
8010
8010
8010
83D0
8438
8414
4212
41E0
ENDCHAR
STARTCHAR uni3071
ENCODING 12401
SWIDTH 1000 0
SWIDTH1 1000 0
BBX 16 16 2 -1
BITMAP
0006
4029
4029
4026
8020
8FFE
8020
8020
8020
8020
8020
83A0
8470
8428
4224
41C0
ENDCHAR
STARTCHAR uni3072
ENCODING 12402
SWIDTH 1000 0
SWIDTH1 1000 0
BBX 15 14 2 -1
BITMAP
0E10
F410
0810
1018
1018
2014
2012
4010
4010
4020
4020
2040
3080
0F00
ENDCHAR
STARTCHAR uni3073
ENCODING 12403
SWIDTH 1000 0
SWIDTH1 1000 0
BBX 15 16 2 -1
BITMAP
0004
0012
0E08
F400
0810
1018
1018
2014
2012
4010
4010
4020
4020
2040
3080
0F00
ENDCHAR
STARTCHAR uni3074
ENCODING 12404
SWIDTH 1000 0
SWIDTH1 1000 0
BBX 15 16 2 -1
BITMAP
000C
0012
0E12
F40C
0810
1018
1018
2014
2012
4010
4010
4020
4020
2040
3080
0F00
ENDCHAR
STARTCHAR uni3075
ENCODING 12405
SWIDTH 1000 0
SWIDTH1 1000 0
BBX 17 15 1 -1
BITMAP
038000
006000
000000
000000
010000
010000
010000
108400
108200
204100
402080
802080
002000
0C4000
038000
ENDCHAR
STARTCHAR uni3076
ENCODING 12406
SWIDTH 1000 0
SWIDTH1 1000 0
BBX 17 15 1 -1
BITMAP
038000
006000
000200
000900
010400
010000
010000
108400
108200
204100
402080
802080
002000
0C4000
038000
ENDCHAR
STARTCHAR uni3077
ENCODING 12407
SWIDTH 1000 0
SWIDTH1 1000 0
BBX 17 15 1 -1
BITMAP
038000
006600
000900
000900
010600
010000
010000
108400
108200
204100
402080
802080
002000
0C4000
038000
ENDCHAR
STARTCHAR uni3078
ENCODING 12408
SWIDTH 1000 0
SWIDTH1 1000 0
BBX 17 10 1 1
BITMAP
030000
048000
084000
102000
201000
400800
800400
000200
000100
000080
ENDCHAR
STARTCHAR uni3079
ENCODING 12409
SWIDTH 1000 0
SWIDTH1 1000 0
BBX 17 11 1 1
BITMAP
000200
030900
048400
084000
102000
201000
400800
800400
000200
000100
000080
ENDCHAR
STARTCHAR uni307A
ENCODING 12410
SWIDTH 1000 0
SWIDTH1 1000 0
BBX 17 12 1 1
BITMAP
000600
000900
030900
048600
084000
102000
201000
400800
800400
000200
000100
000080
ENDCHAR
STARTCHAR uni307B
ENCODING 12411
SWIDTH 1000 0
SWIDTH1 1000 0
BBX 15 15 2 -1
BITMAP
4000
47FC
4020
8020
8020
87FE
8020
8020
8020
8020
83A0
8470
842C
4222
41C0
ENDCHAR
STARTCHAR uni307C
ENCODING 12412
SWIDTH 1000 0
SWIDTH1 1000 0
BBX 16 16 2 -1
BITMAP
0002
4009
4004
47F8
8020
8020
87FE
8020
8020
8020
8020
83A0
8470
842C
4222
41C0
ENDCHAR
STARTCHAR uni307D
ENCODING 12413
SWIDTH 1000 0
SWIDTH1 1000 0
BBX 16 16 2 -1
BITMAP
0006
4009
4009
47F6
8020
8020
87FE
8020
8020
8020
8020
83A0
8470
842C
4222
41C0
ENDCHAR
STARTCHAR uni307E
ENCODING 12414
SWIDTH 1000 0
SWIDTH1 1000 0
BBX 13 16 3 -1
BITMAP
0200
0200
0200
FFF8
0200
0200
0200
7FF0
0200
0200
0200
7A00
8700
82C0
4230
3C00
ENDCHAR
STARTCHAR uni307F
ENCODING 12415
SWIDTH 1000 0
SWIDTH1 1000 0
BBX 17 15 1 -1
BITMAP
078000
388000
008000
008000
010400
010400
0FE400
321C00
420700
840480
840400
880800
900800
601000
006000
ENDCHAR
STARTCHAR uni3080
ENCODING 12416
SWIDTH 1000 0
SWIDTH1 1000 0
BBX 16 16 2 -1
BITMAP
0800
0800
0800
FF84
0802
0801
3800
4800
8800
8800
9004
7002
1002
1002
0804
07F8
ENDCHAR
STARTCHAR uni3081
ENCODING 12417
SWIDTH 1000 0
SWIDTH1 1000 0
BBX 16 16 2 -1
BITMAP
0080
2080
2080
2080
23F0
2C8C
1082
3102
4901
4A01
8601
8401
8A02
7002
000C
0070
ENDCHAR
STARTCHAR uni3082
ENCODING 12418
SWIDTH 1000 0
SWIDTH1 1000 0
BBX 14 16 2 -1
BITMAP
0800
0800
6800
1F80
0800
0800
0800
C800
3F88
1004
1004
1004
1004
1008
0818
07E0
ENDCHAR
STARTCHAR uni3083
ENCODING 12419
SWIDTH 1000 0
SWIDTH1 1000 0
BBX 11 10 4 -1
BITMAP
2200
2380
1E40
F020
1020
1040
0980
0800
0800
0800
ENDCHAR
STARTCHAR uni3084
ENCODING 12420
SWIDTH 1000 0
SWIDTH1 1000 0
BBX 16 16 1 -2
BITMAP
0040
1040
1040
1078
09C6
1E02
E801
0401
0402
0406
0238
0200
0200
0100
0100
0100
ENDCHAR
STARTCHAR uni3085
ENCODING 12421
SWIDTH 1000 0
SWIDTH1 1000 0
BBX 10 11 4 -1
BITMAP
0200
4200
4F00
B280
C240
8240
8240
5280
4F00
0400
1800
ENDCHAR
STARTCHAR uni3086
ENCODING 12422
SWIDTH 1000 0
SWIDTH1 1000 0
BBX 15 16 2 -1
BITMAP
0100
4100
43E0
4C98
9084
A084
A082
C082
C082
C884
8884
8498
43E0
4100
0200
0C00
ENDCHAR
STARTCHAR uni3087
ENCODING 12423
SWIDTH 1000 0
SWIDTH1 1000 0
BBX 9 11 5 -1
BITMAP
0800
0800
0800
0F00
0800
0800
0800
7800
8E00
8980
7000
ENDCHAR
STARTCHAR uni3088
ENCODING 12424
SWIDTH 1000 0
SWIDTH1 1000 0
BBX 12 15 3 -1
BITMAP
0200
0200
0200
03F0
0200
0200
0200
0200
0200
0200
7E00
8380
8260
4210
3C00
ENDCHAR
STARTCHAR uni3089
ENCODING 12425
SWIDTH 1000 0
SWIDTH1 1000 0
BBX 12 16 4 -2
BITMAP
3800
0700
0000
0000
4000
4000
4780
9860
A020
C010
8010
0010
0020
0060
0180
1E00
ENDCHAR
STARTCHAR uni308A
ENCODING 12426
SWIDTH 1000 0
SWIDTH1 1000 0
BBX 9 16 5 -2
BITMAP
0080
8080
8080
8080
8080
8080
8080
9080
9080
A080
4080
0100
0100
0200
0400
1800
ENDCHAR
STARTCHAR uni308B
ENCODING 12427
SWIDTH 1000 0
SWIDTH1 1000 0
BBX 13 15 3 -1
BITMAP
3FE0
0040
0080
0100
0200
0400
1FC0
3020
4010
8008
0008
0E08
1110
10A0
0FC0
ENDCHAR
STARTCHAR uni308C
ENCODING 12428
SWIDTH 1000 0
SWIDTH1 1000 0
BBX 16 16 2 -2
BITMAP
0800
0800
0800
0C70
F988
0A04
0C04
1804
1804
2808
4808
4808
8809
0809
0806
0800
ENDCHAR
STARTCHAR uni308D
ENCODING 12429
SWIDTH 1000 0
SWIDTH1 1000 0
BBX 13 15 3 -1
BITMAP
3FC0
0080
0100
0200
0400
0800
1FC0
3020
4010
8008
0008
0010
0010
0060
0F80
ENDCHAR
STARTCHAR uni308E
ENCODING 12430
SWIDTH 1000 0
SWIDTH1 1000 0
BBX 12 11 3 -1
BITMAP
1000
1000
7800
13C0
1C20
3010
3010
5010
9020
1060
1180
ENDCHAR
STARTCHAR uni308F
ENCODING 12431
SWIDTH 1000 0
SWIDTH1 1000 0
BBX 16 16 2 -1
BITMAP
0800
0800
0800
0E00
FC70
098C
0A02
0C02
1801
1801
2801
4802
8802
0804
0818
08E0
ENDCHAR
STARTCHAR uni3090
ENCODING 12432
SWIDTH 1000 0
SWIDTH1 1000 0
BBX 15 15 2 -1
BITMAP
03C0
3C80
0080
0100
0100
03F0
0D08
1204
2202
4402
8402
88E2
9114
6108
00F0
ENDCHAR
STARTCHAR uni3091
ENCODING 12433
SWIDTH 1000 0
SWIDTH1 1000 0
BBX 15 15 2 -1
BITMAP
1FC0
0080
0100
0200
07C0
1820
2010
4610
0920
07C0
0C00
1038
2844
4482
830E
ENDCHAR
STARTCHAR uni3092
ENCODING 12434
SWIDTH 1000 0
SWIDTH1 1000 0
BBX 13 16 3 -1
BITMAP
0400
0400
05E0
FE00
0800
1000
1E00
2138
41C0
8680
0880
1080
2000
2000
1000
0FF0
ENDCHAR
STARTCHAR uni3093
ENCODING 12435
SWIDTH 1000 0
SWIDTH1 1000 0
BBX 15 15 2 -1
BITMAP
0100
0100
0200
0200
0400
0800
0800
1E00
1100
2082
2082
4084
4044
8048
8030
ENDCHAR
STARTCHAR uni309B
ENCODING 12443
SWIDTH 1000 0
SWIDTH1 1000 0
BBX 4 4 1 11
BITMAP
20
10
80
40
ENDCHAR
STARTCHAR uni309C
ENCODING 12444
SWIDTH 1000 0
SWIDTH1 1000 0
BBX 4 4 2 10
BITMAP
60
90
90
60
ENDCHAR
STARTCHAR uni309D
ENCODING 12445
SWIDTH 1000 0
SWIDTH1 1000 0
BBX 5 8 7 3
BITMAP
80
80
40
40
20
10
38
C0
ENDCHAR
STARTCHAR uni309E
ENCODING 12446
SWIDTH 1000 0
SWIDTH1 1000 0
BBX 8 10 7 3
BITMAP
02
09
84
80
40
40
20
10
38
C0
ENDCHAR
STARTCHAR uni30A1
ENCODING 12449
SWIDTH 1000 0
SWIDTH1 1000 0
BBX 10 10 5 -1
BITMAP
FFC0
0040
0080
0900
0A00
0800
1000
1000
2000
4000
ENDCHAR
STARTCHAR uni30A2
ENCODING 12450
SWIDTH 1000 0
SWIDTH1 1000 0
BBX 14 14 2 -1
BITMAP
FFFC
0004
0008
0208
0210
0260
0200
0200
0200
0400
0400
0800
1000
2000
ENDCHAR
STARTCHAR uni30A3
ENCODING 12451
SWIDTH 1000 0
SWIDTH1 1000 0
BBX 10 11 4 -1
BITMAP
0040
0080
0100
0200
0600
1A00
E200
0200
0200
0200
0200
ENDCHAR
STARTCHAR uni30A4
ENCODING 12452
SWIDTH 1000 0
SWIDTH1 1000 0
BBX 13 15 3 -1
BITMAP
0008
0010
0020
0040
0180
0280
0C80
3080
C080
0080
0080
0080
0080
0080
0080
ENDCHAR
STARTCHAR uni30A5
ENCODING 12453
SWIDTH 1000 0
SWIDTH1 1000 0
BBX 9 12 5 -1
BITMAP
0800
0800
FF80
8080
8080
8080
0080
0100
0100
0200
0400
1800
ENDCHAR
STARTCHAR uni30A6
ENCODING 12454
SWIDTH 1000 0
SWIDTH1 1000 0
BBX 13 16 3 -1
BITMAP
0200
0200
0200
FFF8
8008
8008
8008
8008
8008
0008
0010
0010
0020
0040
0180
0E00
ENDCHAR
STARTCHAR uni30A7
ENCODING 12455
SWIDTH 1000 0
SWIDTH1 1000 0
BBX 11 7 4 0
BITMAP
7FC0
0400
0400
0400
0400
0400
FFE0
ENDCHAR
STARTCHAR uni30A8
ENCODING 12456
SWIDTH 1000 0
SWIDTH1 1000 0
BBX 15 11 2 1
BITMAP
3FF8
0100
0100
0100
0100
0100
0100
0100
0100
0100
FFFE
ENDCHAR
STARTCHAR uni30A9
ENCODING 12457
SWIDTH 1000 0
SWIDTH1 1000 0
BBX 11 11 4 -1
BITMAP
0100
0100
0100
FFE0
0300
0500
0900
1100
2100
C100
0E00
ENDCHAR
STARTCHAR uni30AA
ENCODING 12458
SWIDTH 1000 0
SWIDTH1 1000 0
BBX 15 16 2 -1
BITMAP
0040
0040
0040
0040
FFFE
00C0
0140
0140
0240
0440
0840
3040
C040
0040
0040
0380
ENDCHAR
STARTCHAR uni30AB
ENCODING 12459
SWIDTH 1000 0
SWIDTH1 1000 0
BBX 14 16 2 -1
BITMAP
0200
0200
0200
0200
FFFC
0204
0404
0404
0404
0804
0804
1004
1008
2008
4010
80E0
ENDCHAR
STARTCHAR uni30AC
ENCODING 12460
SWIDTH 1000 0
SWIDTH1 1000 0
BBX 15 16 2 -1
BITMAP
0204
0212
0208
0200
FFFC
0204
0404
0404
0404
0804
0804
1004
1008
2008
4010
80E0
ENDCHAR
STARTCHAR uni30AD
ENCODING 12461
SWIDTH 1000 0
SWIDTH1 1000 0
BBX 15 16 2 -1
BITMAP
0100
0100
0100
01FC
7F00
0100
0100
0100
01FE
FF80
0080
0080
0080
0080
0080
0080
ENDCHAR
STARTCHAR uni30AE
ENCODING 12462
SWIDTH 1000 0
SWIDTH1 1000 0
BBX 15 16 2 -1
BITMAP
0104
0112
0108
01FC
7F00
0100
0100
0100
01FE
FF80
0080
0080
0080
0080
0080
0080
ENDCHAR
STARTCHAR uni30AF
ENCODING 12463
SWIDTH 1000 0
SWIDTH1 1000 0
BBX 12 16 3 -2
BITMAP
0400
0400
0800
0FF0
1010
2010
4010
8020
0020
0040
0040
0080
0100
0200
0C00
3000
ENDCHAR
STARTCHAR uni30B0
ENCODING 12464
SWIDTH 1000 0
SWIDTH1 1000 0
BBX 14 17 3 -2
BITMAP
0008
0424
0410
0800
0FF0
1010
2010
4010
8020
0020
0040
0040
0080
0100
0200
0C00
3000
ENDCHAR
STARTCHAR uni30B1
ENCODING 12465
SWIDTH 1000 0
SWIDTH1 1000 0
BBX 15 16 2 -2
BITMAP
0800
0800
0800
1000
1FFE
2040
4040
8040
0040
0040
0040
0080
0080
0100
0200
0C00
ENDCHAR
STARTCHAR uni30B2
ENCODING 12466
SWIDTH 1000 0
SWIDTH1 1000 0
BBX 15 17 2 -2
BITMAP
0004
0812
0808
0800
1000
1FFE
2040
4040
8040
0040
0040
0040
0080
0080
0100
0200
0C00
ENDCHAR
STARTCHAR uni30B3
ENCODING 12467
SWIDTH 1000 0
SWIDTH1 1000 0
BBX 12 12 3 -1
BITMAP
FFF0
0010
0010
0010
0010
0010
0010
0010
0010
0010
FFF0
0010
ENDCHAR
STARTCHAR uni30B4
ENCODING 12468
SWIDTH 1000 0
SWIDTH1 1000 0
BBX 14 16 3 -1
BITMAP
0008
0024
0010
0000
FFF0
0010
0010
0010
0010
0010
0010
0010
0010
0010
FFF0
0010
ENDCHAR
STARTCHAR uni30B5
ENCODING 12469
SWIDTH 1000 0
SWIDTH1 1000 0
BBX 16 15 1 -1
BITMAP
0810
0810
0810
0810
FFFF
0810
0810
0810
0810
0010
0020
0020
0040
0080
0300
ENDCHAR
STARTCHAR uni30B6
ENCODING 12470
SWIDTH 1000 0
SWIDTH1 1000 0
BBX 16 16 1 -1
BITMAP
0002
0819
0814
0810
0810
FFFF
0810
0810
0810
0810
0010
0020
0020
0040
0080
0300
ENDCHAR
STARTCHAR uni30B7
ENCODING 12471
SWIDTH 1000 0
SWIDTH1 1000 0
BBX 14 14 3 -1
BITMAP
3000
0C00
0000
0000
C000
3004
0004
0008
0008
0010
0020
00C0
0700
7800
ENDCHAR
STARTCHAR uni30B8
ENCODING 12472
SWIDTH 1000 0
SWIDTH1 1000 0
BBX 14 15 3 -1
BITMAP
0010
3048
0C20
0000
0000
C000
3004
0004
0008
0008
0010
0020
00C0
0700
7800
ENDCHAR
STARTCHAR uni30B9
ENCODING 12473
SWIDTH 1000 0
SWIDTH1 1000 0
BBX 13 13 3 -1
BITMAP
7FE0
0020
0020
0040
0040
0080
0080
0100
0280
0440
0820
3010
C008
ENDCHAR
STARTCHAR uni30BA
ENCODING 12474
SWIDTH 1000 0
SWIDTH1 1000 0
BBX 15 16 3 -1
BITMAP
0004
0002
0008
7FE4
0020
0020
0040
0040
0080
0080
0100
0280
0440
0820
3010
C008
ENDCHAR
STARTCHAR uni30BB
ENCODING 12475
SWIDTH 1000 0
SWIDTH1 1000 0
BBX 15 14 1 0
BITMAP
0400
0400
0400
043E
07C2
FC04
0404
0408
0430
0400
0400
0400
0400
03FE
ENDCHAR
STARTCHAR uni30BC
ENCODING 12476
SWIDTH 1000 0
SWIDTH1 1000 0
BBX 16 15 1 0
BITMAP
0002
0409
0404
0400
043E
07C2
FC04
0404
0408
0430
0400
0400
0400
0400
03FE
ENDCHAR
STARTCHAR uni30BD
ENCODING 12477
SWIDTH 1000 0
SWIDTH1 1000 0
BBX 12 13 3 -1
BITMAP
8010
4010
2010
2010
0020
0020
0040
0040
0080
0100
0200
0C00
7000
ENDCHAR
STARTCHAR uni30BE
ENCODING 12478
SWIDTH 1000 0
SWIDTH1 1000 0
BBX 15 16 3 -1
BITMAP
0004
0012
0008
8000
4010
2010
2010
0020
0020
0040
0040
0080
0100
0200
0C00
7000
ENDCHAR
STARTCHAR uni30BF
ENCODING 12479
SWIDTH 1000 0
SWIDTH1 1000 0
BBX 12 16 3 -1
BITMAP
0400
0400
0800
0FF0
1010
2010
4010
8020
1820
0640
0140
0080
0140
0220
0C00
7000
ENDCHAR
STARTCHAR uni30C0
ENCODING 12480
SWIDTH 1000 0
SWIDTH1 1000 0
BBX 14 16 3 -1
BITMAP
0408
0424
0810
0800
1FF0
2010
4010
8020
1820
0640
0140
0080
0140
0220
0C00
7000
ENDCHAR
STARTCHAR uni30C1
ENCODING 12481
SWIDTH 1000 0
SWIDTH1 1000 0
BBX 15 15 2 -2
BITMAP
0018
01E0
7F00
0100
0100
0100
FFFE
0100
0100
0100
0100
0200
0200
0400
1800
ENDCHAR
STARTCHAR uni30C2
ENCODING 12482
SWIDTH 1000 0
SWIDTH1 1000 0
BBX 15 15 2 -2
BITMAP
0030
01C4
7F12
0108
0100
0100
FFFE
0100
0100
0100
0100
0200
0200
0400
1800
ENDCHAR
STARTCHAR uni30C3
ENCODING 12483
SWIDTH 1000 0
SWIDTH1 1000 0
BBX 9 10 5 -1
BITMAP
1000
8880
4880
4080
0100
0100
0200
0400
1800
6000
ENDCHAR
STARTCHAR uni30C4
ENCODING 12484
SWIDTH 1000 0
SWIDTH1 1000 0
BBX 13 13 3 -1
BITMAP
0400
8408
8208
4208
4010
0010
0020
0020
0040
0080
0100
0600
3800
ENDCHAR
STARTCHAR uni30C5
ENCODING 12485
SWIDTH 1000 0
SWIDTH1 1000 0
BBX 14 16 3 -1
BITMAP
0008
0024
0010
0400
8400
8210
4210
4010
0010
0020
0020
0040
0080
0100
0600
3800
ENDCHAR
STARTCHAR uni30C6
ENCODING 12486
SWIDTH 1000 0
SWIDTH1 1000 0
BBX 15 14 2 -1
BITMAP
3FF0
0000
0000
0000
0000
FFFE
0100
0100
0100
0200
0200
0400
0800
3000
ENDCHAR
STARTCHAR uni30C7
ENCODING 12487
SWIDTH 1000 0
SWIDTH1 1000 0
BBX 15 16 2 -1
BITMAP
0004
0012
3FE8
0000
0000
0000
0000
FFFE
0100
0100
0100
0200
0200
0400
0800
3000
ENDCHAR
STARTCHAR uni30C8
ENCODING 12488
SWIDTH 1000 0
SWIDTH1 1000 0
BBX 8 15 7 -1
BITMAP
80
80
80
80
80
80
F0
8C
83
80
80
80
80
80
80
ENDCHAR
STARTCHAR uni30C9
ENCODING 12489
SWIDTH 1000 0
SWIDTH1 1000 0
BBX 9 15 7 -1
BITMAP
8000
8100
8480
8200
8000
8000
F000
8C00
8300
8000
8000
8000
8000
8000
8000
ENDCHAR
STARTCHAR uni30CA
ENCODING 12490
SWIDTH 1000 0
SWIDTH1 1000 0
BBX 15 16 2 -2
BITMAP
0100
0100
0100
0100
0100
FFFE
0100
0100
0100
0100
0100
0200
0200
0400
0800
3000
ENDCHAR
STARTCHAR uni30CB
ENCODING 12491
SWIDTH 1000 0
SWIDTH1 1000 0
BBX 15 11 2 1
BITMAP
3FF8
0000
0000
0000
0000
0000
0000
0000
0000
0000
FFFE
ENDCHAR
STARTCHAR uni30CC
ENCODING 12492
SWIDTH 1000 0
SWIDTH1 1000 0
BBX 11 13 3 0
BITMAP
3FE0
0020
0020
0040
1040
0C80
0280
0100
0280
0440
0820
3000
C000
ENDCHAR
STARTCHAR uni30CD
ENCODING 12493
SWIDTH 1000 0
SWIDTH1 1000 0
BBX 14 16 2 -1
BITMAP
0100
0100
0100
3FF8
0010
0020
0040
0080
0300
0560
1918
E104
0100
0100
0100
0100
ENDCHAR
STARTCHAR uni30CE
ENCODING 12494
SWIDTH 1000 0
SWIDTH1 1000 0
BBX 11 13 3 0
BITMAP
0020
0020
0020
0040
0040
0080
0080
0100
0200
0400
0800
3000
C000
ENDCHAR
STARTCHAR uni30CF
ENCODING 12495
SWIDTH 1000 0
SWIDTH1 1000 0
BBX 15 11 2 0
BITMAP
0820
0810
0810
1008
1008
1004
2004
2004
4002
4002
8002
ENDCHAR
STARTCHAR uni30D0
ENCODING 12496
SWIDTH 1000 0
SWIDTH1 1000 0
BBX 15 15 2 0
BITMAP
0004
0012
0008
0000
0820
0810
0810
1008
1008
1004
2004
2004
4002
4002
8002
ENDCHAR
STARTCHAR uni30D1
ENCODING 12497
SWIDTH 1000 0
SWIDTH1 1000 0
BBX 15 15 2 0
BITMAP
000C
0012
0012
000C
0820
0810
0810
1008
1008
1004
2004
2004
4002
4002
8002
ENDCHAR
STARTCHAR uni30D2
ENCODING 12498
SWIDTH 1000 0
SWIDTH1 1000 0
BBX 11 14 4 -1
BITMAP
8000
8000
8000
8040
8180
8E00
F000
8000
8000
8000
8000
8000
8000
7FE0
ENDCHAR
STARTCHAR uni30D3
ENCODING 12499
SWIDTH 1000 0
SWIDTH1 1000 0
BBX 13 16 4 -1
BITMAP
0010
0048
8020
8000
8000
8040
8180
8E00
F000
8000
8000
8000
8000
8000
8000
7FE0
ENDCHAR
STARTCHAR uni30D4
ENCODING 12500
SWIDTH 1000 0
SWIDTH1 1000 0
BBX 13 16 4 -1
BITMAP
0030
0048
8048
8030
8000
8040
8180
8E00
F000
8000
8000
8000
8000
8000
8000
7FE0
ENDCHAR
STARTCHAR uni30D5
ENCODING 12501
SWIDTH 1000 0
SWIDTH1 1000 0
BBX 13 13 3 -1
BITMAP
FFF8
0008
0008
0010
0010
0010
0020
0020
0040
0080
0100
0600
1800
ENDCHAR
STARTCHAR uni30D6
ENCODING 12502
SWIDTH 1000 0
SWIDTH1 1000 0
BBX 14 16 3 -1
BITMAP
0008
0024
0010
0000
FFF0
0010
0010
0010
0020
0020
0020
0040
0080
0100
0600
1800
ENDCHAR
STARTCHAR uni30D7
ENCODING 12503
SWIDTH 1000 0
SWIDTH1 1000 0
BBX 14 16 3 -1
BITMAP
0018
0024
0024
0018
FFF0
0010
0010
0010
0020
0020
0020
0040
0080
0100
0600
1800
ENDCHAR
STARTCHAR uni30D8
ENCODING 12504
SWIDTH 1000 0
SWIDTH1 1000 0
BBX 17 10 1 1
BITMAP
030000
048000
084000
102000
201000
400800
800400
000200
000100
000080
ENDCHAR
STARTCHAR uni30D9
ENCODING 12505
SWIDTH 1000 0
SWIDTH1 1000 0
BBX 17 12 1 1
BITMAP
000200
000100
030800
048400
084000
102000
201000
400800
800400
000200
000100
000080
ENDCHAR
STARTCHAR uni30DA
ENCODING 12506
SWIDTH 1000 0
SWIDTH1 1000 0
BBX 17 12 1 1
BITMAP
000600
000900
030900
048600
084000
102000
201000
400800
800400
000200
000100
000080
ENDCHAR
STARTCHAR uni30DB
ENCODING 12507
SWIDTH 1000 0
SWIDTH1 1000 0
BBX 15 16 2 -1
BITMAP
0100
0100
0100
0100
FFFE
0100
0100
0100
1110
1108
2104
2104
4102
8102
0100
0100
ENDCHAR
STARTCHAR uni30DC
ENCODING 12508
SWIDTH 1000 0
SWIDTH1 1000 0
BBX 16 16 2 -1
BITMAP
0102
0109
0104
0100
FFFE
0100
0100
0100
1110
1108
2104
2104
4102
8102
0100
0100
ENDCHAR
STARTCHAR uni30DD
ENCODING 12509
SWIDTH 1000 0
SWIDTH1 1000 0
BBX 16 16 2 -1
BITMAP
0106
0109
0109
0106
FFF8
0100
0100
0100
1110
1108
2104
2104
4102
8102
0100
0100
ENDCHAR
STARTCHAR uni30DE
ENCODING 12510
SWIDTH 1000 0
SWIDTH1 1000 0
BBX 15 11 2 0
BITMAP
FFFE
0002
0004
0008
0008
1810
0420
0340
0080
0040
0020
ENDCHAR
STARTCHAR uni30DF
ENCODING 12511
SWIDTH 1000 0
SWIDTH1 1000 0
BBX 11 14 4 -1
BITMAP
3C00
0380
0060
0000
0000
3800
0700
00C0
0000
0000
F000
0E00
0180
0040
ENDCHAR
STARTCHAR uni30E0
ENCODING 12512
SWIDTH 1000 0
SWIDTH1 1000 0
BBX 15 15 2 -1
BITMAP
0200
0200
0200
0400
0400
0400
0800
0820
0810
1008
1008
2004
207C
FF82
0002
ENDCHAR
STARTCHAR uni30E1
ENCODING 12513
SWIDTH 1000 0
SWIDTH1 1000 0
BBX 12 15 3 -1
BITMAP
0020
0020
0020
0040
0040
1880
0680
0100
0280
0240
0420
0810
1000
2000
C000
ENDCHAR
STARTCHAR uni30E2
ENCODING 12514
SWIDTH 1000 0
SWIDTH1 1000 0
BBX 15 13 2 0
BITMAP
7FF8
0200
0200
0200
0200
FFFE
0200
0200
0200
0200
0200
0200
01FC
ENDCHAR
STARTCHAR uni30E3
ENCODING 12515
SWIDTH 1000 0
SWIDTH1 1000 0
BBX 11 11 4 -1
BITMAP
0800
0800
0BE0
FC20
0440
0480
0400
0200
0200
0200
0200
ENDCHAR
STARTCHAR uni30E4
ENCODING 12516
SWIDTH 1000 0
SWIDTH1 1000 0
BBX 15 16 2 -2
BITMAP
0800
0800
0800
0800
083E
0FC2
FC04
0404
0408
0410
0400
0200
0200
0200
0200
0200
ENDCHAR
STARTCHAR uni30E5
ENCODING 12517
SWIDTH 1000 0
SWIDTH1 1000 0
BBX 11 7 4 0
BITMAP
3F00
0100
0100
0100
0100
0100
FFE0
ENDCHAR
STARTCHAR uni30E6
ENCODING 12518
SWIDTH 1000 0
SWIDTH1 1000 0
BBX 16 11 1 1
BITMAP
1FF0
0010
0010
0010
0010
0020
0020
0020
0020
0020
FFFF
ENDCHAR
STARTCHAR uni30E7
ENCODING 12519
SWIDTH 1000 0
SWIDTH1 1000 0
BBX 7 10 6 -1
BITMAP
FE
02
02
02
FE
02
02
02
FE
02
ENDCHAR
STARTCHAR uni30E8
ENCODING 12520
SWIDTH 1000 0
SWIDTH1 1000 0
BBX 11 14 4 -1
BITMAP
FFE0
0020
0020
0020
0020
0020
FFE0
0020
0020
0020
0020
0020
FFE0
0020
ENDCHAR
STARTCHAR uni30E9
ENCODING 12521
SWIDTH 1000 0
SWIDTH1 1000 0
BBX 12 14 3 -1
BITMAP
7FE0
0000
0000
0000
FFF0
0010
0010
0010
0020
0020
0040
0080
0300
1C00
ENDCHAR
STARTCHAR uni30EA
ENCODING 12522
SWIDTH 1000 0
SWIDTH1 1000 0
BBX 9 15 5 -1
BITMAP
8080
8080
8080
8080
8080
8080
8080
8080
0080
0080
0100
0100
0200
0C00
3000
ENDCHAR
STARTCHAR uni30EB
ENCODING 12523
SWIDTH 1000 0
SWIDTH1 1000 0
BBX 15 14 2 -1
BITMAP
0100
1100
1100
1100
1100
1100
1100
1102
1102
1104
2108
2110
4160
8180
ENDCHAR
STARTCHAR uni30EC
ENCODING 12524
SWIDTH 1000 0
SWIDTH1 1000 0
BBX 12 14 4 -1
BITMAP
8000
8000
8000
8000
8000
8000
8010
8010
8020
8040
8080
8300
8C00
F000
ENDCHAR
STARTCHAR uni30ED
ENCODING 12525
SWIDTH 1000 0
SWIDTH1 1000 0
BBX 12 12 3 0
BITMAP
FFF0
8010
8010
8010
8010
8010
8010
8010
8010
8010
FFF0
8010
ENDCHAR
STARTCHAR uni30EE
ENCODING 12526
SWIDTH 1000 0
SWIDTH1 1000 0
BBX 9 9 5 -1
BITMAP
FF80
8080
8080
8080
0100
0100
0200
0400
1800
ENDCHAR
STARTCHAR uni30EF
ENCODING 12527
SWIDTH 1000 0
SWIDTH1 1000 0
BBX 13 14 3 -1
BITMAP
FFF8
8008
8008
8008
8008
8008
0010
0010
0010
0020
0020
0040
0180
0E00
ENDCHAR
STARTCHAR uni30F0
ENCODING 12528
SWIDTH 1000 0
SWIDTH1 1000 0
BBX 16 16 1 -1
BITMAP
0080
0080
0080
0080
7FFE
1080
1080
1080
1080
1080
FFFF
0080
0080
0080
0080
0080
ENDCHAR
STARTCHAR uni30F1
ENCODING 12529
SWIDTH 1000 0
SWIDTH1 1000 0
BBX 17 11 1 1
BITMAP
3FFC00
000800
001000
002000
00C000
008000
008000
008000
008000
008000
FFFF80
ENDCHAR
STARTCHAR uni30F2
ENCODING 12530
SWIDTH 1000 0
SWIDTH1 1000 0
BBX 12 13 3 0
BITMAP
FFF0
0010
0010
0010
FFE0
0020
0020
0040
0040
0080
0100
0600
3800
ENDCHAR
STARTCHAR uni30F3
ENCODING 12531
SWIDTH 1000 0
SWIDTH1 1000 0
BBX 14 13 3 0
BITMAP
C000
2000
1000
0004
0004
0008
0008
0010
0020
0040
0180
0600
7800
ENDCHAR
STARTCHAR uni30F4
ENCODING 12532
SWIDTH 1000 0
SWIDTH1 1000 0
BBX 14 16 3 -1
BITMAP
0208
0224
0210
FFF8
8008
8008
8008
8008
8008
0008
0010
0010
0020
0040
0180
0E00
ENDCHAR
STARTCHAR uni30F5
ENCODING 12533
SWIDTH 1000 0
SWIDTH1 1000 0
BBX 9 10 5 -1
BITMAP
0800
0800
FF80
0880
0880
1080
1080
2080
4080
8300
ENDCHAR
STARTCHAR uni30F6
ENCODING 12534
SWIDTH 1000 0
SWIDTH1 1000 0
BBX 11 10 4 -1
BITMAP
2000
2000
2000
7FE0
4200
8200
0200
0200
0400
1800
ENDCHAR
STARTCHAR uni30FC
ENCODING 12540
SWIDTH 1000 0
SWIDTH1 1000 0
BBX 15 2 2 6
BITMAP
8000
7FFE
ENDCHAR
STARTCHAR uni30FD
ENCODING 12541
SWIDTH 1000 0
SWIDTH1 1000 0
BBX 5 7 7 3
BITMAP
80
40
20
10
10
08
08
ENDCHAR
STARTCHAR uni30FE
ENCODING 12542
SWIDTH 1000 0
SWIDTH1 1000 0
BBX 7 11 7 3
BITMAP
04
02
10
08
80
40
20
10
10
08
08
ENDCHAR
STARTCHAR uni3105
ENCODING 12549
SWIDTH 1000 0
SWIDTH1 1000 0
BBX 11 14 2 -1
BITMAP
1000
1000
1000
21E0
7E20
C020
0020
0020
0040
0040
0040
0080
0480
0300
ENDCHAR
STARTCHAR uni3106
ENCODING 12550
SWIDTH 1000 0
SWIDTH1 1000 0
BBX 10 15 3 -1
BITMAP
1000
1000
1000
2000
47C0
F840
0040
0080
1880
0500
0200
0500
0880
3000
C000
ENDCHAR
STARTCHAR uni3107
ENCODING 12551
SWIDTH 1000 0
SWIDTH1 1000 0
BBX 11 9 2 1
BITMAP
03E0
FC20
4020
4020
4020
4040
4040
4040
4040
ENDCHAR
STARTCHAR uni3108
ENCODING 12552
SWIDTH 1000 0
SWIDTH1 1000 0
BBX 13 12 2 0
BITMAP
03E0
FC00
4000
4000
4000
4000
4000
4000
4000
4000
4000
3FF8
ENDCHAR
STARTCHAR uni3109
ENCODING 12553
SWIDTH 1000 0
SWIDTH1 1000 0
BBX 13 15 1 -1
BITMAP
0800
0800
0800
0800
11F8
3F08
0108
0208
0210
0410
0810
1010
2020
C0A0
0040
ENDCHAR
STARTCHAR uni310A
ENCODING 12554
SWIDTH 1000 0
SWIDTH1 1000 0
BBX 14 14 1 -1
BITMAP
0200
0200
0200
0200
03FC
FE00
0200
0400
0400
0880
0840
13E0
3C30
0010
ENDCHAR
STARTCHAR uni310B
ENCODING 12555
SWIDTH 1000 0
SWIDTH1 1000 0
BBX 11 14 2 -1
BITMAP
0780
F880
0100
0200
0400
0FE0
0020
0020
0020
0040
0040
0480
0280
0100
ENDCHAR
STARTCHAR uni310C
ENCODING 12556
SWIDTH 1000 0
SWIDTH1 1000 0
BBX 12 15 2 -1
BITMAP
0100
0100
2100
2100
2200
4270
FF90
0410
0410
0810
0820
1020
2020
4140
8080
ENDCHAR
STARTCHAR uni310D
ENCODING 12557
SWIDTH 1000 0
SWIDTH1 1000 0
BBX 9 14 3 -1
BITMAP
1080
1080
2080
2100
4100
4200
8400
8400
4200
4100
2100
2080
1080
1080
ENDCHAR
STARTCHAR uni310E
ENCODING 12558
SWIDTH 1000 0
SWIDTH1 1000 0
BBX 14 13 1 -1
BITMAP
01FC
FE00
0200
0200
04E0
0F20
0020
0020
0020
0020
0040
0240
0180
ENDCHAR
STARTCHAR uni310F
ENCODING 12559
SWIDTH 1000 0
SWIDTH1 1000 0
BBX 14 14 1 -1
BITMAP
001C
7FE0
1000
1000
1000
1000
1000
1000
1000
2000
2000
2000
4000
8000
ENDCHAR
STARTCHAR uni3110
ENCODING 12560
SWIDTH 1000 0
SWIDTH1 1000 0
BBX 7 14 4 -1
BITMAP
02
02
42
42
42
42
42
86
9A
E2
02
02
02
02
ENDCHAR
STARTCHAR uni3111
ENCODING 12561
SWIDTH 1000 0
SWIDTH1 1000 0
BBX 6 13 4 -1
BITMAP
10
10
10
20
20
40
80
40
20
10
08
04
04
ENDCHAR
STARTCHAR uni3112
ENCODING 12562
SWIDTH 1000 0
SWIDTH1 1000 0
BBX 13 13 2 -1
BITMAP
03F8
FE00
0200
0200
0200
0200
0200
0200
0200
0200
0200
0200
0200
ENDCHAR
STARTCHAR uni3113
ENCODING 12563
SWIDTH 1000 0
SWIDTH1 1000 0
BBX 14 14 1 -1
BITMAP
0100
0100
0110
2110
2110
2110
2110
21F0
3F10
0100
0100
0100
01FC
FE00
ENDCHAR
STARTCHAR uni3114
ENCODING 12564
SWIDTH 1000 0
SWIDTH1 1000 0
BBX 8 15 3 -1
BITMAP
02
02
04
08
11
22
C4
0C
14
24
C4
04
04
04
04
ENDCHAR
STARTCHAR uni3115
ENCODING 12565
SWIDTH 1000 0
SWIDTH1 1000 0
BBX 11 14 1 -1
BITMAP
00E0
1F20
0020
0020
11E0
1E00
1000
1000
1000
1000
2000
2000
4000
8000
ENDCHAR
STARTCHAR uni3116
ENCODING 12566
SWIDTH 1000 0
SWIDTH1 1000 0
BBX 8 13 4 -1
BITMAP
1F
E1
81
81
91
89
89
81
81
81
8D
F3
01
ENDCHAR
STARTCHAR uni3117
ENCODING 12567
SWIDTH 1000 0
SWIDTH1 1000 0
BBX 10 15 3 -2
BITMAP
01C0
FE40
1040
1040
1040
1080
1080
1480
1300
1000
1000
1000
1000
1000
1000
ENDCHAR
STARTCHAR uni3118
ENCODING 12568
SWIDTH 1000 0
SWIDTH1 1000 0
BBX 14 15 1 -2
BITMAP
0200
0200
0200
03FC
FC00
0400
08E0
1F20
0020
0020
0040
0040
0080
0100
0200
ENDCHAR
STARTCHAR uni3119
ENCODING 12569
SWIDTH 1000 0
SWIDTH1 1000 0
BBX 13 14 2 -1
BITMAP
0200
0200
0200
0400
0400
0800
0800
1000
1000
2040
4020
83F0
FC08
0008
ENDCHAR
STARTCHAR uni311A
ENCODING 12570
SWIDTH 1000 0
SWIDTH1 1000 0
BBX 9 14 3 -1
BITMAP
0080
8080
4100
2200
1400
0800
0800
0800
0800
0800
0800
0800
0800
0800
ENDCHAR
STARTCHAR uni311B
ENCODING 12571
SWIDTH 1000 0
SWIDTH1 1000 0
BBX 13 13 1 -1
BITMAP
01F8
FF00
0100
0100
0100
1F00
2000
4000
4000
4000
2000
1030
0FC0
ENDCHAR
STARTCHAR uni311C
ENCODING 12572
SWIDTH 1000 0
SWIDTH1 1000 0
BBX 14 15 1 -1
BITMAP
0200
0100
0100
0100
01FC
FF00
0100
0100
1F00
2000
2000
2000
2000
1018
0FE0
ENDCHAR
STARTCHAR uni311D
ENCODING 12573
SWIDTH 1000 0
SWIDTH1 1000 0
BBX 15 14 0 -1
BITMAP
0820
0820
0820
0820
083E
0FE0
F820
0820
0840
0840
0880
0400
020C
01F0
ENDCHAR
STARTCHAR uni311E
ENCODING 12574
SWIDTH 1000 0
SWIDTH1 1000 0
BBX 14 14 1 -1
BITMAP
01FC
FF00
2100
2100
2100
41F8
7F08
0208
0210
0210
0410
0820
1020
6040
ENDCHAR
STARTCHAR uni311F
ENCODING 12575
SWIDTH 1000 0
SWIDTH1 1000 0
BBX 13 13 2 -1
BITMAP
1C00
E400
0400
0400
0400
0400
0400
0200
0200
0100
0080
0040
0038
ENDCHAR
STARTCHAR uni3120
ENCODING 12576
SWIDTH 1000 0
SWIDTH1 1000 0
BBX 11 15 3 -1
BITMAP
0800
0800
0800
1000
1000
2080
4080
8100
FE00
0400
0800
1080
2040
FFE0
0020
ENDCHAR
STARTCHAR uni3121
ENCODING 12577
SWIDTH 1000 0
SWIDTH1 1000 0
BBX 10 13 2 -1
BITMAP
07C0
F840
0040
0080
3080
0900
0500
0200
0500
0880
1040
2000
C000
ENDCHAR
STARTCHAR uni3122
ENCODING 12578
SWIDTH 1000 0
SWIDTH1 1000 0
BBX 12 14 2 -1
BITMAP
07C0
F840
0040
2080
2080
2100
40F0
7F10
0010
0020
0020
0040
0080
0100
ENDCHAR
STARTCHAR uni3123
ENCODING 12579
SWIDTH 1000 0
SWIDTH1 1000 0
BBX 12 14 2 -1
BITMAP
4000
4000
4000
4000
4000
8000
8000
8FF0
F010
0010
0010
0020
0020
0040
ENDCHAR
STARTCHAR uni3124
ENCODING 12580
SWIDTH 1000 0
SWIDTH1 1000 0
BBX 14 14 1 -1
BITMAP
0200
0200
0200
0278
FF80
0280
0280
0480
0480
0880
0880
1080
2080
C07C
ENDCHAR
STARTCHAR uni3125
ENCODING 12581
SWIDTH 1000 0
SWIDTH1 1000 0
BBX 13 13 1 0
BITMAP
0200
0200
0200
0400
0400
0800
0800
1000
1000
2000
2000
4000
FFF8
ENDCHAR
STARTCHAR uni3126
ENCODING 12582
SWIDTH 1000 0
SWIDTH1 1000 0
BBX 14 14 1 -1
BITMAP
0080
0880
0880
0880
0880
0880
0880
0880
0880
1080
1080
2084
4044
803C
ENDCHAR
STARTCHAR uni3127
ENCODING 12583
SWIDTH 1000 0
SWIDTH1 1000 0
BBX 15 1 2 6
BITMAP
FFFE
ENDCHAR
STARTCHAR uni3128
ENCODING 12584
SWIDTH 1000 0
SWIDTH1 1000 0
BBX 11 13 2 0
BITMAP
0020
0020
0020
3040
0840
0480
0280
0100
0280
0440
0820
3020
C000
ENDCHAR
STARTCHAR uni3129
ENCODING 12585
SWIDTH 1000 0
SWIDTH1 1000 0
BBX 11 10 2 1
BITMAP
0020
4020
4020
4020
4020
4020
8020
8020
83E0
FC20
ENDCHAR
STARTCHAR uni3220
ENCODING 12832
SWIDTH 1000 0
SWIDTH1 1000 0
BBX 16 14 0 -1
BITMAP
1008
2004
4002
4002
8001
8011
9FF9
8001
8001
8001
4002
4002
2004
1008
ENDCHAR
STARTCHAR uni3221
ENCODING 12833
SWIDTH 1000 0
SWIDTH1 1000 0
BBX 16 14 0 -1
BITMAP
1008
2004
4022
4FF2
8001
8001
8001
8001
8001
8011
5FFA
4002
2004
1008
ENDCHAR
STARTCHAR uni3222
ENCODING 12834
SWIDTH 1000 0
SWIDTH1 1000 0
BBX 16 14 0 -1
BITMAP
1008
2004
4022
4FF2
8001
8001
8041
87E1
8001
8001
4012
5FFA
2004
1008
ENDCHAR
STARTCHAR uni3223
ENCODING 12835
SWIDTH 1000 0
SWIDTH1 1000 0
BBX 16 14 0 -1
BITMAP
1008
2004
4FFA
4A4A
8A49
8A49
8A49
8A49
8C39
8809
4FFA
480A
2004
1008
ENDCHAR
STARTCHAR uni3224
ENCODING 12836
SWIDTH 1000 0
SWIDTH1 1000 0
BBX 16 14 0 -1
BITMAP
1008
2004
4FF2
4102
8101
8101
87E1
8121
8121
8221
4222
5FFA
2004
1008
ENDCHAR
STARTCHAR uni3225
ENCODING 12837
SWIDTH 1000 0
SWIDTH1 1000 0
BBX 16 14 0 -1
BITMAP
1008
2104
4082
4082
9FF9
8001
8001
8241
8221
8411
480A
500A
2004
1008
ENDCHAR
STARTCHAR uni3226
ENCODING 12838
SWIDTH 1000 0
SWIDTH1 1000 0
BBX 16 14 0 -1
BITMAP
1008
2104
4102
4102
8119
81E1
9F01
8101
8101
8109
410A
40FA
2004
1008
ENDCHAR
STARTCHAR uni3227
ENCODING 12839
SWIDTH 1000 0
SWIDTH1 1000 0
BBX 16 14 0 -1
BITMAP
1008
2004
41C2
4242
8241
8241
8241
8241
8421
8421
4812
500A
2004
1008
ENDCHAR
STARTCHAR uni3228
ENCODING 12840
SWIDTH 1000 0
SWIDTH1 1000 0
BBX 16 14 0 -1
BITMAP
1008
2104
4102
4122
8FF1
8121
8121
8121
8221
8229
442A
483A
2004
1008
ENDCHAR
STARTCHAR uni3229
ENCODING 12841
SWIDTH 1000 0
SWIDTH1 1000 0
BBX 16 14 0 -1
BITMAP
1008
2084
4082
4082
8081
8089
9FFD
8081
8081
8081
4082
4082
2004
1008
ENDCHAR
STARTCHAR uni3231
ENCODING 12849
SWIDTH 1000 0
SWIDTH1 1000 0
BBX 16 14 0 -1
BITMAP
2824
4922
8921
BDF9
8A21
9821
9DFD
AA21
C871
88A9
8927
8A21
4822
2004
ENDCHAR
STARTCHAR uni32A3
ENCODING 12963
SWIDTH 1000 0
SWIDTH1 1000 0
BBX 14 14 1 -1
BITMAP
1FE0
2010
5FE8
8104
8104
8104
89E4
8904
8904
8904
BFF4
4008
2010
1FE0
ENDCHAR
STARTCHAR uni338E
ENCODING 13198
SWIDTH 1000 0
SWIDTH1 1000 0
BBX 15 12 1 -2
BITMAP
003A
B644
4944
4944
4944
4938
4920
493C
4942
0042
0042
003C
ENDCHAR
STARTCHAR uni338F
ENCODING 13199
SWIDTH 1000 0
SWIDTH1 1000 0
BBX 13 15 3 -2
BITMAP
8000
8000
8000
84E8
8910
9110
A110
C110
A0E0
9080
88F0
8508
0108
0108
00F0
ENDCHAR
STARTCHAR uni339C
ENCODING 13212
SWIDTH 1000 0
SWIDTH1 1000 0
BBX 15 8 1 1
BITMAP
6C6C
9292
9292
9292
9292
9292
9292
9292
ENDCHAR
STARTCHAR uni339D
ENCODING 13213
SWIDTH 1000 0
SWIDTH1 1000 0
BBX 15 8 1 1
BITMAP
356C
4C92
8492
8092
8092
8292
4492
3892
ENDCHAR
STARTCHAR uni339E
ENCODING 13214
SWIDTH 1000 0
SWIDTH1 1000 0
BBX 14 12 2 1
BITMAP
8000
8000
8000
8000
8AD8
9124
A124
C124
A124
9124
8924
8524
ENDCHAR
STARTCHAR uni33A1
ENCODING 13217
SWIDTH 1000 0
SWIDTH1 1000 0
BBX 13 11 2 1
BITMAP
0030
0048
0008
B610
4920
4978
4900
4900
4900
4900
4900
ENDCHAR
STARTCHAR uni33C4
ENCODING 13252
SWIDTH 1000 0
SWIDTH1 1000 0
BBX 14 8 2 1
BITMAP
3468
4C98
8508
8100
8100
8504
4488
3870
ENDCHAR
STARTCHAR uni33CE
ENCODING 13262
SWIDTH 1000 0
SWIDTH1 1000 0
BBX 13 12 1 1
BITMAP
8A08
9318
9318
A318
A2A8
C2A8
A2A8
A248
A248
9248
9208
8A08
ENDCHAR
STARTCHAR uni33D1
ENCODING 13265
SWIDTH 1000 0
SWIDTH1 1000 0
BBX 9 12 4 1
BITMAP
8000
8000
8000
8000
9700
8880
8880
8880
8880
8880
8880
8880
ENDCHAR
STARTCHAR uni33D2
ENCODING 13266
SWIDTH 1000 0
SWIDTH1 1000 0
BBX 14 15 2 -2
BITMAP
8000
8000
8000
8074
9C88
A288
A288
A288
A270
A240
A278
9C84
0084
0084
0078
ENDCHAR
STARTCHAR uni33D5
ENCODING 13269
SWIDTH 1000 0
SWIDTH1 1000 0
BBX 14 12 1 1
BITMAP
0004
0024
0004
0004
B624
4924
4924
4924
4924
4924
4924
4924
ENDCHAR
STARTCHAR uni4E00
ENCODING 19968
SWIDTH 1000 0
SWIDTH1 1000 0
BBX 16 2 0 6
BITMAP
0002
FFFF
ENDCHAR
STARTCHAR uni4E01
ENCODING 19969
SWIDTH 1000 0
SWIDTH1 1000 0
BBX 16 16 0 -2
BITMAP
0002
FFFF
0080
0080
0080
0080
0080
0080
0080
0080
0080
0080
0080
0080
0280
0100
ENDCHAR
STARTCHAR uni4E02
ENCODING 19970
SWIDTH 1000 0
SWIDTH1 1000 0
BBX 16 16 0 -2
BITMAP
0002
FFFF
0400
0400
0400
0800
0808
0FFC
0008
0008
0008
0008
0008
0008
0090
0060
ENDCHAR
STARTCHAR uni4E03
ENCODING 19971
SWIDTH 1000 0
SWIDTH1 1000 0
BBX 16 16 0 -2
BITMAP
0100
0100
0100
0100
0102
011F
01E0
0F00
F100
0100
0100
0100
0101
0101
0101
00FF
ENDCHAR
STARTCHAR uni4E04
ENCODING 19972
SWIDTH 1000 0
SWIDTH1 1000 0
BBX 16 15 0 -1
BITMAP
0080
0080
0080
0080
0080
0080
0080
0080
0080
0080
0080
0080
0080
0082
FFFF
ENDCHAR
STARTCHAR uni4E05
ENCODING 19973
SWIDTH 1000 0
SWIDTH1 1000 0
BBX 16 16 0 -2
BITMAP
0002
FFFF
0100
0100
0100
0100
0100
0100
0100
0100
0100
0100
0100
0100
0100
0100
ENDCHAR
STARTCHAR uni4E06
ENCODING 19974
SWIDTH 1000 0
SWIDTH1 1000 0
BBX 16 11 0 2
BITMAP
0002
FFFF
0100
0100
0200
0200
0400
0800
1000
2000
C000
ENDCHAR
STARTCHAR uni4E07
ENCODING 19975
SWIDTH 1000 0
SWIDTH1 1000 0
BBX 16 16 0 -2
BITMAP
0002
FFFF
0200
0200
0208
03FC
0208
0208
0208
0208
0408
0408
0808
1008
2050
C020
ENDCHAR
STARTCHAR uni4E08
ENCODING 19976
SWIDTH 1000 0
SWIDTH1 1000 0
BBX 15 16 0 -2
BITMAP
0080
0080
0080
0084
7FFE
0080
0080
1080
1080
0900
0500
0200
0300
04C0
183E
E004
ENDCHAR
STARTCHAR uni4E09
ENCODING 19977
SWIDTH 1000 0
SWIDTH1 1000 0
BBX 16 14 0 -1
BITMAP
0004
7FFE
0000
0000
0000
0000
0008
3FFC
0000
0000
0000
0000
0002
FFFF
ENDCHAR
STARTCHAR uni4E0A
ENCODING 19978
SWIDTH 1000 0
SWIDTH1 1000 0
BBX 16 15 0 -1
BITMAP
0100
0100
0100
0100
0100
0104
01FE
0100
0100
0100
0100
0100
0100
0102
FFFF
ENDCHAR
STARTCHAR uni4E0B
ENCODING 19979
SWIDTH 1000 0
SWIDTH1 1000 0
BBX 16 16 0 -2
BITMAP
0002
FFFF
0100
0100
0100
0180
0160
0118
0108
0100
0100
0100
0100
0100
0100
0100
ENDCHAR
STARTCHAR uni4E0C
ENCODING 19980
SWIDTH 1000 0
SWIDTH1 1000 0
BBX 16 16 0 -2
BITMAP
0002
FFFF
0420
0420
0420
0420
0420
0420
0420
0420
0820
0820
1020
2020
4020
8020
ENDCHAR
STARTCHAR uni4E0D
ENCODING 19981
SWIDTH 1000 0
SWIDTH1 1000 0
BBX 15 16 1 -2
BITMAP
0004
FFFE
0100
0100
0200
0240
0620
0A10
1208
2204
C204
0200
0200
0200
0200
0200
ENDCHAR
STARTCHAR uni4E0E
ENCODING 19982
SWIDTH 1000 0
SWIDTH1 1000 0
BBX 16 16 0 -2
BITMAP
0800
0800
0802
0FFF
0800
0800
0804
0FFE
0004
0004
0024
FFF4
0004
0004
0048
0030
ENDCHAR
STARTCHAR uni4E0F
ENCODING 19983
SWIDTH 1000 0
SWIDTH1 1000 0
BBX 16 16 0 -2
BITMAP
0002
FFFF
0100
0100
2104
21FE
2104
2104
2104
3FFC
0004
0004
0004
0004
0048
0030
ENDCHAR
STARTCHAR uni4E10
ENCODING 19984
SWIDTH 1000 0
SWIDTH1 1000 0
BBX 16 16 0 -2
BITMAP
0002
FFFF
0100
2104
21FE
2100
2100
2104
7FFE
0004
0004
0004
0004
0004
00C8
0030
ENDCHAR
STARTCHAR uni4E11
ENCODING 19985
SWIDTH 1000 0
SWIDTH1 1000 0
BBX 16 15 0 -1
BITMAP
0008
7FFC
0208
0208
0208
0208
0208
3FF8
0408
0408
0408
0408
0408
0408
FFFF
ENDCHAR
STARTCHAR uni4E12
ENCODING 19986
SWIDTH 1000 0
SWIDTH1 1000 0
BBX 16 15 0 -1
BITMAP
0004
7FFE
0104
0104
1904
0704
0104
02C4
0244
0404
0804
1028
6010
0002
FFFF
ENDCHAR
STARTCHAR uni4E13
ENCODING 19987
SWIDTH 1000 0
SWIDTH1 1000 0
BBX 16 16 0 -2
BITMAP
0100
0100
0108
3FFC
0200
0202
FFFF
0400
0408
0FFC
0008
0010
0620
01C0
0060
0020
ENDCHAR
STARTCHAR uni4E14
ENCODING 19988
SWIDTH 1000 0
SWIDTH1 1000 0
BBX 16 16 0 -2
BITMAP
0010
0FF8
0810
0810
0810
0FF0
0810
0810
0810
0810
0FF0
0810
0810
0810
0812
FFFF
ENDCHAR
STARTCHAR uni4E15
ENCODING 19989
SWIDTH 1000 0
SWIDTH1 1000 0
BBX 16 15 0 -1
BITMAP
0002
7FFF
0080
0080
0100
0100
0320
0510
090C
1106
2102
4100
0100
0102
FFFF
ENDCHAR
STARTCHAR uni4E16
ENCODING 19990
SWIDTH 1000 0
SWIDTH1 1000 0
BBX 16 16 0 -2
BITMAP
0108
1108
1108
1108
1108
FFFF
1108
1108
1108
1108
1108
11F8
1108
1000
1002
1FFF
ENDCHAR
STARTCHAR uni4E17
ENCODING 19991
SWIDTH 1000 0
SWIDTH1 1000 0
BBX 16 16 0 -2
BITMAP
0100
2108
2108
2108
2108
210A
FFFF
2108
2108
2108
2108
2108
2108
2108
3FF8
0008
ENDCHAR
STARTCHAR uni4E18
ENCODING 19992
SWIDTH 1000 0
SWIDTH1 1000 0
BBX 16 15 0 -1
BITMAP
0008
007C
1F80
1000
1000
1000
1004
1FFE
1020
1020
1020
1020
1020
1022
FFFF
ENDCHAR
STARTCHAR uni4E19
ENCODING 19993
SWIDTH 1000 0
SWIDTH1 1000 0
BBX 16 16 0 -2
BITMAP
0002
FFFF
0100
0100
3FFC
2104
2104
2104
2284
2244
2434
2814
3004
2004
2014
2008
ENDCHAR
STARTCHAR uni4E1A
ENCODING 19994
SWIDTH 1000 0
SWIDTH1 1000 0
BBX 16 15 0 -1
BITMAP
0440
0440
0440
0440
8442
4442
2444
2444
1448
1448
1450
0440
0440
0440
FFFF
ENDCHAR
STARTCHAR uni4E1B
ENCODING 19995
SWIDTH 1000 0
SWIDTH1 1000 0
BBX 16 15 0 -1
BITMAP
0820
0820
0820
0820
0820
0820
0C20
0A50
0950
1148
1088
2084
2103
4202
FFFF
ENDCHAR
STARTCHAR uni4E1C
ENCODING 19996
SWIDTH 1000 0
SWIDTH1 1000 0
BBX 15 16 0 -2
BITMAP
0100
0104
7FFE
0200
0400
0480
0880
1FFC
0080
04A0
0490
0888
1084
2082
C282
0100
ENDCHAR
STARTCHAR uni4E1D
ENCODING 19997
SWIDTH 1000 0
SWIDTH1 1000 0
BBX 16 15 0 -1
BITMAP
0810
0810
1020
1020
2244
4284
7DF8
0810
1020
2040
7EFE
2040
0000
0002
FFFF
ENDCHAR
STARTCHAR uni4E1E
ENCODING 19998
SWIDTH 1000 0
SWIDTH1 1000 0
BBX 15 15 1 -1
BITMAP
0020
7FF0
0040
0180
0100
7908
0990
09A0
1140
1120
2110
410E
8504
0200
FFFC
ENDCHAR
STARTCHAR uni4E1F
ENCODING 19999
SWIDTH 1000 0
SWIDTH1 1000 0
BBX 16 16 0 -2
BITMAP
0004
7FFE
0080
0080
3FFC
0080
0080
0082
FFFF
0100
0100
0200
0408
0804
1FFE
0802
ENDCHAR
STARTCHAR uni4E20
ENCODING 20000
SWIDTH 1000 0
SWIDTH1 1000 0
BBX 16 15 0 -1
BITMAP
0440
0440
0440
0442
044C
FC70
0440
0440
0440
1C42
E442
0443
043E
0000
FFFF
ENDCHAR
STARTCHAR uni4E21
ENCODING 20001
SWIDTH 1000 0
SWIDTH1 1000 0
BBX 16 16 0 -2
BITMAP
0002
FFFF
0080
0080
3FFE
2082
2082
2492
2492
2492
2492
27F2
2012
2002
200A
2004
ENDCHAR
STARTCHAR uni4E22
ENCODING 20002
SWIDTH 1000 0
SWIDTH1 1000 0
BBX 16 16 0 -2
BITMAP
0018
3FE0
0080
0080
3FFC
0080
0080
0082
FFFF
0100
0100
0200
0410
0808
3FFE
1002
ENDCHAR
STARTCHAR uni4E23
ENCODING 20003
SWIDTH 1000 0
SWIDTH1 1000 0
BBX 16 16 0 -2
BITMAP
0002
FFFF
0240
0240
0240
7E7E
4242
4242
4242
7C7E
0442
0440
0840
1040
2040
C040
ENDCHAR
STARTCHAR uni4E24
ENCODING 20004
SWIDTH 1000 0
SWIDTH1 1000 0
BBX 16 16 0 -2
BITMAP
0002
FFFF
0440
0440
0444
7FFE
4444
4444
4664
4554
488C
5104
6204
4004
4014
4008
ENDCHAR
STARTCHAR uni4E25
ENCODING 20005
SWIDTH 1000 0
SWIDTH1 1000 0
BBX 16 16 0 -2
BITMAP
0002
7FFF
0220
2224
1228
0A30
0220
3FFF
2000
2000
2000
2000
4000
4000
4000
8000
ENDCHAR
STARTCHAR uni4E26
ENCODING 20006
SWIDTH 1000 0
SWIDTH1 1000 0
BBX 16 16 0 -2
BITMAP
0808
0408
0210
0220
7FFE
0220
4222
2222
2224
1224
1228
1230
1220
0220
0222
FFFF
ENDCHAR
STARTCHAR uni4E27
ENCODING 20007
SWIDTH 1000 0
SWIDTH1 1000 0
BBX 16 16 0 -2
BITMAP
0100
0100
0104
7FFE
1108
0910
0522
FFFF
1100
1108
1090
10A0
1040
1320
1418
1806
ENDCHAR
STARTCHAR uni4E28
ENCODING 20008
SWIDTH 1000 0
SWIDTH1 1000 0
BBX 1 16 7 -2
BITMAP
80
80
80
80
80
80
80
80
80
80
80
80
80
80
80
80
ENDCHAR
STARTCHAR uni4E29
ENCODING 20009
SWIDTH 1000 0
SWIDTH1 1000 0
BBX 6 16 5 -2
BITMAP
04
04
84
84
84
84
84
84
84
9C
E4
84
04
04
04
04
ENDCHAR
STARTCHAR uni4E2A
ENCODING 20010
SWIDTH 1000 0
SWIDTH1 1000 0
BBX 16 16 0 -2
BITMAP
0100
0100
0280
0240
0420
0910
110C
2103
C100
0100
0100
0100
0100
0100
0100
0100
ENDCHAR
STARTCHAR uni4E2B
ENCODING 20011
SWIDTH 1000 0
SWIDTH1 1000 0
BBX 12 16 2 -2
BITMAP
8020
4030
3040
1080
0100
0600
0400
0400
0400
0400
0400
0400
0400
0400
0400
0400
ENDCHAR
STARTCHAR uni4E2C
ENCODING 20012
SWIDTH 1000 0
SWIDTH1 1000 0
BBX 7 16 0 -2
BITMAP
02
02
02
42
22
12
12
02
06
1A
E2
42
02
02
02
02
ENDCHAR
STARTCHAR uni4E2D
ENCODING 20013
SWIDTH 1000 0
SWIDTH1 1000 0
BBX 14 16 1 -2
BITMAP
0200
0200
0208
FFFC
8208
8208
8208
8208
FFF8
8208
0200
0200
0200
0200
0200
0200
ENDCHAR
STARTCHAR uni4E2E
ENCODING 20014
SWIDTH 1000 0
SWIDTH1 1000 0
BBX 16 16 0 -2
BITMAP
0008
FFFC
0408
0408
0408
0408
7FC8
0408
0408
0408
FFE8
0409
0405
0405
0403
0401
ENDCHAR
STARTCHAR uni4E2F
ENCODING 20015
SWIDTH 1000 0
SWIDTH1 1000 0
BBX 14 16 1 -2
BITMAP
0200
0210
0260
0380
0E08
7210
0260
0380
0E04
F218
0260
0380
FE00
0200
0200
0200
ENDCHAR
STARTCHAR uni4E30
ENCODING 20016
SWIDTH 1000 0
SWIDTH1 1000 0
BBX 16 16 0 -2
BITMAP
0100
0100
0104
7FFE
0100
0100
0108
3FFC
0100
0100
0102
FFFF
0100
0100
0100
0100
ENDCHAR
STARTCHAR uni4E31
ENCODING 20017
SWIDTH 1000 0
SWIDTH1 1000 0
BBX 15 16 0 -2
BITMAP
0240
0240
4242
4242
4242
4242
4242
4242
4E7E
7242
0240
0240
0440
0840
3040
C040
ENDCHAR
STARTCHAR uni4E32
ENCODING 20018
SWIDTH 1000 0
SWIDTH1 1000 0
BBX 14 16 2 -2
BITMAP
0200
0210
7FF8
4210
4210
7FF0
4200
0208
FFFC
8208
8208
FFF8
8208
0200
0200
0200
ENDCHAR
STARTCHAR uni4E33
ENCODING 20019
SWIDTH 1000 0
SWIDTH1 1000 0
BBX 14 16 1 -2
BITMAP
0480
0488
7FFC
4488
4488
7FF8
0480
0480
FFFC
8484
8484
FFFC
8884
1080
2080
C080
ENDCHAR
STARTCHAR uni4E34
ENCODING 20020
SWIDTH 1000 0
SWIDTH1 1000 0
BBX 15 16 1 -2
BITMAP
1080
1080
1104
91FE
9200
9440
9830
9010
93FC
9224
9224
9224
9224
1224
13FC
1204
ENDCHAR
STARTCHAR uni4E35
ENCODING 20021
SWIDTH 1000 0
SWIDTH1 1000 0
BBX 15 16 1 -2
BITMAP
0440
4444
2448
1450
0440
FFFE
0820
0440
7FF8
0100
0100
FFFC
0100
0100
0100
0100
ENDCHAR
STARTCHAR uni4E36
ENCODING 20022
SWIDTH 1000 0
SWIDTH1 1000 0
BBX 5 5 6 4
BITMAP
80
40
30
18
08
ENDCHAR
STARTCHAR uni4E37
ENCODING 20023
SWIDTH 1000 0
SWIDTH1 1000 0
BBX 13 8 1 3
BITMAP
8008
4008
2010
1010
1820
0840
0880
0100
ENDCHAR
STARTCHAR uni4E38
ENCODING 20024
SWIDTH 1000 0
SWIDTH1 1000 0
BBX 16 16 0 -2
BITMAP
0200
0200
0200
0210
7FF8
0210
0210
0A10
0610
0310
0290
0410
0811
1011
2011
C00F
ENDCHAR
STARTCHAR uni4E39
ENCODING 20025
SWIDTH 1000 0
SWIDTH1 1000 0
BBX 16 16 0 -2
BITMAP
0008
0FFC
0808
0908
0888
0888
0808
FFFF
0808
0808
0808
1008
1008
2008
4028
8010
ENDCHAR
STARTCHAR uni4E3A
ENCODING 20026
SWIDTH 1000 0
SWIDTH1 1000 0
BBX 15 16 0 -2
BITMAP
0080
1080
0880
0880
0084
7FFE
0084
0104
0104
0244
0224
0424
0804
1004
2028
C010
ENDCHAR
STARTCHAR uni4E3B
ENCODING 20027
SWIDTH 1000 0
SWIDTH1 1000 0
BBX 16 15 0 -1
BITMAP
0200
0100
0100
0004
7FFE
0100
0100
0100
0108
3FFC
0100
0100
0100
0102
FFFF
ENDCHAR
STARTCHAR uni4E3C
ENCODING 20028
SWIDTH 1000 0
SWIDTH1 1000 0
BBX 16 16 0 -2
BITMAP
0420
0420
0420
0424
7FFE
0420
0520
04A0
0422
FFFF
0820
0820
1020
1020
2020
C020
ENDCHAR
STARTCHAR uni4E3D
ENCODING 20029
SWIDTH 1000 0
SWIDTH1 1000 0
BBX 16 16 0 -2
BITMAP
0002
FFFF
0000
0004
7E7E
4244
4244
5264
4A54
4A54
4A54
4244
4244
4244
4A54
4448
ENDCHAR
STARTCHAR uni4E3E
ENCODING 20030
SWIDTH 1000 0
SWIDTH1 1000 0
BBX 16 16 0 -2
BITMAP
2108
1088
0890
0020
FFFF
0820
0910
1108
2FF4
4103
8100
7FFE
0100
0100
0100
0100
ENDCHAR
STARTCHAR uni4E3F
ENCODING 20031
SWIDTH 1000 0
SWIDTH1 1000 0
BBX 4 16 5 -2
BITMAP
10
10
10
10
10
10
10
10
10
10
20
20
20
40
40
80
ENDCHAR
STARTCHAR uni4E40
ENCODING 20032
SWIDTH 1000 0
SWIDTH1 1000 0
BBX 16 13 0 -1
BITMAP
0800
1800
2400
C400
0200
0200
0100
0100
0080
0040
0030
000F
0002
ENDCHAR
STARTCHAR uni4E41
ENCODING 20033
SWIDTH 1000 0
SWIDTH1 1000 0
BBX 16 15 0 -2
BITMAP
0040
FFE0
0040
0040
0040
0040
0020
0020
0020
0010
0010
0008
0008
0007
0002
ENDCHAR
STARTCHAR uni4E42
ENCODING 20034
SWIDTH 1000 0
SWIDTH1 1000 0
BBX 16 15 0 -2
BITMAP
1010
1010
1010
0810
0820
0420
0440
0240
0280
0100
0280
0440
0830
300F
C002
ENDCHAR
STARTCHAR uni4E43
ENCODING 20035
SWIDTH 1000 0
SWIDTH1 1000 0
BBX 16 16 0 -2
BITMAP
0008
7FFC
0208
0208
0210
0212
021F
0402
0402
0402
0802
0802
1002
2024
4014
8008
ENDCHAR
STARTCHAR uni4E44
ENCODING 20036
SWIDTH 1000 0
SWIDTH1 1000 0
BBX 13 14 1 -1
BITMAP
0020
0030
0020
0020
0020
0C40
0340
00C0
00A0
8118
8208
8400
9800
E000
ENDCHAR
STARTCHAR uni4E45
ENCODING 20037
SWIDTH 1000 0
SWIDTH1 1000 0
BBX 16 16 0 -2
BITMAP
0200
0200
0400
0440
07E0
0840
0840
1040
20A0
40A0
0110
0210
0408
0804
3003
C002
ENDCHAR
STARTCHAR uni4E46
ENCODING 20038
SWIDTH 1000 0
SWIDTH1 1000 0
BBX 16 16 0 -2
BITMAP
0800
0840
0840
0840
0840
1040
3F80
1080
0140
0140
0220
0220
0410
0808
3007
C002
ENDCHAR
STARTCHAR uni4E47
ENCODING 20039
SWIDTH 1000 0
SWIDTH1 1000 0
BBX 16 16 0 -2
BITMAP
0010
00F8
3F00
0100
0100
0100
0102
01FF
FF00
0100
0100
0100
0102
0102
0102
00FE
ENDCHAR
STARTCHAR uni4E48
ENCODING 20040
SWIDTH 1000 0
SWIDTH1 1000 0
BBX 14 15 1 -1
BITMAP
0100
0300
0200
0400
0800
1040
20C0
4080
8100
0200
0420
0810
1008
7FFC
2004
ENDCHAR
STARTCHAR uni4E49
ENCODING 20041
SWIDTH 1000 0
SWIDTH1 1000 0
BBX 16 16 0 -2
BITMAP
0200
0108
1088
1088
0810
0810
0420
0420
0240
0140
0080
0140
0220
0C18
3007
C002
ENDCHAR
STARTCHAR uni4E4A
ENCODING 20042
SWIDTH 1000 0
SWIDTH1 1000 0
BBX 14 9 1 3
BITMAP
0008
003C
FFC0
0000
2010
1010
1020
0840
0880
ENDCHAR
STARTCHAR uni4E4B
ENCODING 20043
SWIDTH 1000 0
SWIDTH1 1000 0
BBX 16 16 0 -2
BITMAP
0200
0100
0100
0010
7FF8
0020
0040
0080
0100
0200
0400
0800
3000
C800
8600
01FF
ENDCHAR
STARTCHAR uni4E4C
ENCODING 20044
SWIDTH 1000 0
SWIDTH1 1000 0
BBX 16 16 0 -2
BITMAP
0100
0210
1FF8
1010
1010
1010
10D0
1020
1002
1FFF
0002
0022
FFF2
0002
0014
0008
ENDCHAR
STARTCHAR uni4E4D
ENCODING 20045
SWIDTH 1000 0
SWIDTH1 1000 0
BBX 16 16 0 -2
BITMAP
0400
0400
0802
0FFF
1100
2100
4104
81FE
0100
0100
0102
01FF
0100
0100
0100
0100
ENDCHAR
STARTCHAR uni4E4E
ENCODING 20046
SWIDTH 1000 0
SWIDTH1 1000 0
BBX 16 16 0 -2
BITMAP
001C
00E0
7F80
0088
1088
0890
0490
04A2
FFFF
0080
0080
0080
0080
0080
0280
0100
ENDCHAR
STARTCHAR uni4E4F
ENCODING 20047
SWIDTH 1000 0
SWIDTH1 1000 0
BBX 16 15 0 -1
BITMAP
0008
007C
7F80
0200
0100
0110
7FF8
0020
0040
0180
0200
0C00
3000
CC00
83FF
ENDCHAR
STARTCHAR uni4E50
ENCODING 20048
SWIDTH 1000 0
SWIDTH1 1000 0
BBX 15 16 1 -2
BITMAP
0020
01F0
3E00
2100
2100
4100
4104
FFFE
0100
1120
1110
2108
4104
8104
0500
0200
ENDCHAR
STARTCHAR uni4E51
ENCODING 20049
SWIDTH 1000 0
SWIDTH1 1000 0
BBX 16 16 0 -2
BITMAP
0004
00FE
7F00
0100
050C
0530
0940
1180
2540
4520
0910
1108
2104
4103
8100
0100
ENDCHAR
STARTCHAR uni4E52
ENCODING 20050
SWIDTH 1000 0
SWIDTH1 1000 0
BBX 16 16 0 -2
BITMAP
0038
0FC0
0800
0800
0804
0FFE
0820
0820
0820
0822
FFFF
0000
0400
0C00
3000
C000
ENDCHAR
STARTCHAR uni4E53
ENCODING 20051
SWIDTH 1000 0
SWIDTH1 1000 0
BBX 16 16 0 -2
BITMAP
0038
0FC0
0800
0800
0804
0FFE
0820
0820
0820
0822
FFFF
0000
0020
0010
000C
0004
ENDCHAR
STARTCHAR uni4E54
ENCODING 20052
SWIDTH 1000 0
SWIDTH1 1000 0
BBX 16 16 0 -2
BITMAP
0038
3FC0
0200
0202
FFFF
0440
0420
0810
1428
2427
C422
0420
0420
0820
1020
6020
ENDCHAR
STARTCHAR uni4E55
ENCODING 20053
SWIDTH 1000 0
SWIDTH1 1000 0
BBX 16 16 0 -2
BITMAP
001E
3FE0
2040
2044
2FFE
2040
3FFF
2040
2044
2FFE
2844
2844
2844
4854
4848
8040
ENDCHAR
STARTCHAR uni4E56
ENCODING 20054
SWIDTH 1000 0
SWIDTH1 1000 0
BBX 16 16 0 -2
BITMAP
0038
7FC0
0080
0082
FFFF
0080
0490
7C92
049C
0490
0491
1C91
E49F
0080
0080
0080
ENDCHAR
STARTCHAR uni4E57
ENCODING 20055
SWIDTH 1000 0
SWIDTH1 1000 0
BBX 16 16 0 -2
BITMAP
001C
7FE0
0100
0100
7FFE
0910
0912
FFFF
0910
0910
7FFE
0540
0920
1110
210C
C103
ENDCHAR
STARTCHAR uni4E58
ENCODING 20056
SWIDTH 1000 0
SWIDTH1 1000 0
BBX 16 16 0 -2
BITMAP
001C
3FE0
0080
0082
FFFF
0890
7896
0899
0891
798F
0AC0
04A0
0890
308C
C083
0080
ENDCHAR
STARTCHAR uni4E59
ENCODING 20057
SWIDTH 1000 0
SWIDTH1 1000 0
BBX 13 14 2 -1
BITMAP
FFC0
0080
0100
0200
0400
0800
1000
2000
4000
4008
8008
8008
8008
7FF8
ENDCHAR
STARTCHAR uni4E5A
ENCODING 20058
SWIDTH 1000 0
SWIDTH1 1000 0
BBX 11 16 4 -2
BITMAP
8000
8000
8000
8000
8000
8000
8000
8000
8000
8000
8000
8040
8040
8040
8060
7FC0
ENDCHAR
STARTCHAR uni4E5B
ENCODING 20059
SWIDTH 1000 0
SWIDTH1 1000 0
BBX 14 4 1 8
BITMAP
0008
FFFC
0008
0010
ENDCHAR
STARTCHAR uni4E5C
ENCODING 20060
SWIDTH 1000 0
SWIDTH1 1000 0
BBX 15 15 0 -1
BITMAP
0800
0800
0800
0810
0878
0990
0E10
3810
C810
0810
0890
0862
0802
0802
07FE
ENDCHAR
STARTCHAR uni4E5D
ENCODING 20061
SWIDTH 1000 0
SWIDTH1 1000 0
BBX 16 16 0 -2
BITMAP
0400
0400
0400
0420
7FF0
0420
0420
0420
0420
0420
0420
0821
0821
1021
2021
C01F
ENDCHAR
STARTCHAR uni4E5E
ENCODING 20062
SWIDTH 1000 0
SWIDTH1 1000 0
BBX 15 16 0 -2
BITMAP
0400
0400
0804
0FFE
1000
2040
5FE0
8040
0080
0100
0200
0400
0802
0802
0802
07FE
ENDCHAR
STARTCHAR uni4E5F
ENCODING 20063
SWIDTH 1000 0
SWIDTH1 1000 0
BBX 14 16 1 -2
BITMAP
0200
0200
2200
2208
227C
2388
3E08
E208
2208
2250
2220
2204
2204
2004
2004
1FFC
ENDCHAR
STARTCHAR uni4E60
ENCODING 20064
SWIDTH 1000 0
SWIDTH1 1000 0
BBX 14 16 1 -2
BITMAP
0008
FFFC
0008
0008
0808
0408
0208
0208
0048
0188
0608
1808
E008
4088
0050
0020
ENDCHAR
STARTCHAR uni4E61
ENCODING 20065
SWIDTH 1000 0
SWIDTH1 1000 0
BBX 12 16 2 -2
BITMAP
0400
0400
0800
1040
2080
7F00
2200
0410
0810
7FE0
2040
0080
0100
0600
1800
E000
ENDCHAR
STARTCHAR uni4E62
ENCODING 20066
SWIDTH 1000 0
SWIDTH1 1000 0
BBX 15 16 1 -2
BITMAP
1080
1080
1080
1080
9480
9480
9480
9480
9480
9480
9480
9484
9484
9C84
E486
007C
ENDCHAR
STARTCHAR uni4E63
ENCODING 20067
SWIDTH 1000 0
SWIDTH1 1000 0
BBX 16 16 0 -2
BITMAP
0840
0840
0840
1040
1040
2240
4240
FC40
4440
0840
0840
1242
2242
7F42
4143
003E
ENDCHAR
STARTCHAR uni4E64
ENCODING 20068
SWIDTH 1000 0
SWIDTH1 1000 0
BBX 16 16 0 -2
BITMAP
0002
FFFF
0100
0140
0130
010C
0104
0100
7FF8
0030
01C0
0600
1802
2002
2002
1FFE
ENDCHAR
STARTCHAR uni4E65
ENCODING 20069
SWIDTH 1000 0
SWIDTH1 1000 0
BBX 14 16 1 -2
BITMAP
0018
FFE0
0000
2020
1820
0840
0080
FFF0
0060
0180
0600
1800
2004
4004
4004
3FFC
ENDCHAR
STARTCHAR uni4E66
ENCODING 20070
SWIDTH 1000 0
SWIDTH1 1000 0
BBX 15 16 0 -2
BITMAP
0208
0206
0202
3FF8
0208
0208
0210
0210
FFFE
0202
0202
0202
0214
0208
0200
0200
ENDCHAR
STARTCHAR uni4E67
ENCODING 20071
SWIDTH 1000 0
SWIDTH1 1000 0
BBX 16 16 0 -2
BITMAP
0840
0640
2240
1840
0842
03FF
FC40
0040
7FF8
0030
01C0
0600
1802
2002
2002
1FFE
ENDCHAR
STARTCHAR uni4E68
ENCODING 20072
SWIDTH 1000 0
SWIDTH1 1000 0
BBX 16 16 0 -2
BITMAP
0820
0820
1020
1020
2220
4120
FFA0
00A0
0220
7F20
4220
4222
4222
4222
7E23
421E
ENDCHAR
STARTCHAR uni4E69
ENCODING 20073
SWIDTH 1000 0
SWIDTH1 1000 0
BBX 15 16 1 -2
BITMAP
1040
1040
1040
1240
1F40
1040
1040
1040
FE40
8240
8240
8242
8242
FE42
8242
823E
ENDCHAR
STARTCHAR uni4E6A
ENCODING 20074
SWIDTH 1000 0
SWIDTH1 1000 0
BBX 16 15 0 -2
BITMAP
FC04
05FE
0524
0924
0924
1124
11FC
2124
2124
4124
41FC
4105
4001
4001
3FFF
ENDCHAR
STARTCHAR uni4E6B
ENCODING 20075
SWIDTH 1000 0
SWIDTH1 1000 0
BBX 15 16 0 -2
BITMAP
0800
0800
7F7E
1142
1142
1142
257E
4242
8000
7FF8
00C0
0700
1802
2002
2002
1FFE
ENDCHAR
STARTCHAR uni4E6C
ENCODING 20076
SWIDTH 1000 0
SWIDTH1 1000 0
BBX 14 16 1 -2
BITMAP
0010
7FF8
4000
7FF0
4010
7FF0
4000
7FFC
0000
FFF0
0180
0E00
3004
4004
4004
3FFC
ENDCHAR
STARTCHAR uni4E6D
ENCODING 20077
SWIDTH 1000 0
SWIDTH1 1000 0
BBX 15 16 0 -2
BITMAP
0004
7FFE
0400
0800
1FF8
2808
C808
0FF8
0000
7FF8
00C0
0300
0C02
1002
1002
0FFE
ENDCHAR
STARTCHAR uni4E6E
ENCODING 20078
SWIDTH 1000 0
SWIDTH1 1000 0
BBX 15 16 0 -2
BITMAP
0304
3C7E
2244
2244
2E44
3254
0448
1840
E000
7FF8
00C0
0700
1802
2002
2002
1FFE
ENDCHAR
STARTCHAR uni4E6F
ENCODING 20079
SWIDTH 1000 0
SWIDTH1 1000 0
BBX 16 16 0 -2
BITMAP
003C
7FC0
1108
0910
0922
FFFF
0100
0500
0200
7FF8
0030
03C0
1C02
2002
2002
1FFE
ENDCHAR
STARTCHAR uni4E70
ENCODING 20080
SWIDTH 1000 0
SWIDTH1 1000 0
BBX 16 16 0 -2
BITMAP
0002
3FFF
0002
0884
0480
2280
1080
0880
0082
FFFF
0080
00A0
0110
020C
0C06
F002
ENDCHAR
STARTCHAR uni4E71
ENCODING 20081
SWIDTH 1000 0
SWIDTH1 1000 0
BBX 16 16 0 -2
BITMAP
0220
0720
7820
0820
0820
FFA0
0820
0820
0820
3F20
2120
2120
2121
2121
3F21
211F
ENDCHAR
STARTCHAR uni4E72
ENCODING 20082
SWIDTH 1000 0
SWIDTH1 1000 0
BBX 16 16 0 -2
BITMAP
8100
4500
29FE
1244
2448
60A0
2110
2208
2C07
7FF8
0060
0380
1C02
2002
2002
1FFE
ENDCHAR
STARTCHAR uni4E73
ENCODING 20083
SWIDTH 1000 0
SWIDTH1 1000 0
BBX 16 16 0 -2
BITMAP
0120
0F20
7020
48A0
2520
2020
7FA0
0120
0220
0420
1FA0
E420
0421
0421
1421
081F
ENDCHAR
STARTCHAR uni4E74
ENCODING 20084
SWIDTH 1000 0
SWIDTH1 1000 0
BBX 16 16 0 -2
BITMAP
0806
08F8
FE80
08FF
0E88
F888
0888
2908
1208
7FF8
0060
0380
1C02
2002
2002
1FFE
ENDCHAR
STARTCHAR uni4E75
ENCODING 20085
SWIDTH 1000 0
SWIDTH1 1000 0
BBX 16 16 0 -2
BITMAP
1020
0820
0820
7F20
2220
1220
1420
FFA0
0820
0820
7F20
0821
0821
0821
0821
081F
ENDCHAR
STARTCHAR uni4E76
ENCODING 20086
SWIDTH 1000 0
SWIDTH1 1000 0
BBX 16 16 0 -2
BITMAP
0110
FFFF
0100
3FF8
2108
3FF8
2108
3FF8
2108
0000
7FF8
0180
0602
1802
2002
1FFE
ENDCHAR
STARTCHAR uni4E77
ENCODING 20087
SWIDTH 1000 0
SWIDTH1 1000 0
BBX 15 16 1 -2
BITMAP
4040
2050
8948
4A46
1442
2848
C030
41C0
5E00
0000
FFF0
0180
0E04
3004
4004
3FFC
ENDCHAR
STARTCHAR uni4E78
ENCODING 20088
SWIDTH 1000 0
SWIDTH1 1000 0
BBX 16 16 0 -2
BITMAP
0804
087E
0844
4864
4E54
7A44
CBFE
4A64
4A54
4A44
4AFE
4C04
4815
4009
4001
3FFF
ENDCHAR
STARTCHAR uni4E79
ENCODING 20089
SWIDTH 1000 0
SWIDTH1 1000 0
BBX 16 16 0 -2
BITMAP
0840
0840
FF40
0840
7E40
4240
4240
7E40
4240
7E40
4A40
0840
FF41
0841
0841
083F
ENDCHAR
STARTCHAR uni4E7A
ENCODING 20090
SWIDTH 1000 0
SWIDTH1 1000 0
BBX 16 16 0 -2
BITMAP
0306
3C78
2040
3E40
227F
2244
3E44
4084
4104
BFF8
0060
0380
0C02
1002
2002
1FFE
ENDCHAR
STARTCHAR uni4E7B
ENCODING 20091
SWIDTH 1000 0
SWIDTH1 1000 0
BBX 16 16 0 -2
BITMAP
1010
0810
FF28
2044
3EB3
2308
2260
4A18
4404
BFF8
0060
0380
0C02
1002
2002
1FFE
ENDCHAR
STARTCHAR uni4E7C
ENCODING 20092
SWIDTH 1000 0
SWIDTH1 1000 0
BBX 16 16 0 -2
BITMAP
2040
1022
83FF
4820
1020
61FE
2020
27FF
2000
7FF8
0060
0180
0602
1802
2002
1FFE
ENDCHAR
STARTCHAR uni4E7D
ENCODING 20093
SWIDTH 1000 0
SWIDTH1 1000 0
BBX 16 16 0 -2
BITMAP
0100
1FEC
0110
FFFF
0080
0FF8
F808
0FF8
0808
0FF8
0000
7FF0
0302
1C02
2002
3FFE
ENDCHAR
STARTCHAR uni4E7E
ENCODING 20094
SWIDTH 1000 0
SWIDTH1 1000 0
BBX 16 16 0 -2
BITMAP
0820
0820
FF22
083F
7E40
4240
4288
7E7C
4210
7E10
0820
0820
FF41
0841
0841
083F
ENDCHAR
STARTCHAR uni4E7F
ENCODING 20095
SWIDTH 1000 0
SWIDTH1 1000 0
BBX 16 16 0 -2
BITMAP
0320
FC20
1120
4920
2220
1020
2120
7E20
0820
1120
7FA0
08A0
2A21
2921
4921
981F
ENDCHAR
STARTCHAR uni4E80
ENCODING 20096
SWIDTH 1000 0
SWIDTH1 1000 0
BBX 16 16 0 -2
BITMAP
0400
0FE0
1020
FFF8
2108
3FF8
2108
3FF8
0100
7FFC
4104
7FFC
4104
7FFD
0101
01FF
ENDCHAR
STARTCHAR uni4E81
ENCODING 20097
SWIDTH 1000 0
SWIDTH1 1000 0
BBX 16 16 0 -2
BITMAP
0820
0820
FF22
087F
7E40
4240
7EBC
4204
7E08
0010
7E20
0820
FF41
0841
0841
083F
ENDCHAR
STARTCHAR uni4E82
ENCODING 20098
SWIDTH 1000 0
SWIDTH1 1000 0
BBX 16 16 0 -2
BITMAP
0320
FC20
5120
2A20
FF20
1420
0820
7FA0
4AA0
5EA0
40A0
5EA0
54A1
48A1
54A1
431F
ENDCHAR
STARTCHAR uni4E83
ENCODING 20099
SWIDTH 1000 0
SWIDTH1 1000 0
BBX 16 16 0 -2
BITMAP
0820
4920
2A20
FFA0
1C20
2B20
4920
8820
4120
77E0
5120
B520
17E1
2121
4121
811F
ENDCHAR
STARTCHAR uni4E84
ENCODING 20100
SWIDTH 1000 0
SWIDTH1 1000 0
BBX 16 16 0 -2
BITMAP
0820
0820
FFA0
0820
7F20
0020
FFA0
80A0
3F20
0020
3F20
2120
3F21
1221
17A1
781F
ENDCHAR
STARTCHAR uni4E85
ENCODING 20101
SWIDTH 1000 0
SWIDTH1 1000 0
BBX 3 16 6 -2
BITMAP
20
20
20
20
20
20
20
20
20
20
20
20
20
20
A0
40
ENDCHAR
STARTCHAR uni4E86
ENCODING 20102
SWIDTH 1000 0
SWIDTH1 1000 0
BBX 14 16 1 -2
BITMAP
0008
FFFC
0020
0040
0180
0100
0100
0100
0100
0100
0100
0100
0100
0100
0500
0200
ENDCHAR
STARTCHAR uni4E87
ENCODING 20103
SWIDTH 1000 0
SWIDTH1 1000 0
BBX 16 16 0 -2
BITMAP
0400
0400
0802
0FFF
1002
2084
4080
8080
0080
0080
0080
0080
0080
0080
0280
0100
ENDCHAR
STARTCHAR uni4E88
ENCODING 20104
SWIDTH 1000 0
SWIDTH1 1000 0
BBX 15 16 0 -2
BITMAP
0008
3FFC
0010
0620
0140
0080
FFFE
0082
0084
0088
0080
0080
0080
0080
0280
0100
ENDCHAR
STARTCHAR uni4E89
ENCODING 20105
SWIDTH 1000 0
SWIDTH1 1000 0
BBX 16 16 0 -2
BITMAP
0400
07E0
0840
1088
3FFC
4088
0088
FFFF
0088
0088
1FF8
0080
0080
0080
0280
0100
ENDCHAR
STARTCHAR uni4E8A
ENCODING 20106
SWIDTH 1000 0
SWIDTH1 1000 0
BBX 16 16 0 -2
BITMAP
0100
0102
FFFF
1110
0910
0920
3FF8
0108
010A
FFFF
0108
3FF8
0100
0100
0500
0200
ENDCHAR
STARTCHAR uni4E8B
ENCODING 20107
SWIDTH 1000 0
SWIDTH1 1000 0
BBX 16 16 0 -2
BITMAP
0080
0082
FFFF
0080
1FFC
1084
1FFC
0080
3FFC
0084
FFFF
0084
3FFC
0080
0280
0100
ENDCHAR
STARTCHAR uni4E8C
ENCODING 20108
SWIDTH 1000 0
SWIDTH1 1000 0
BBX 16 12 0 0
BITMAP
0008
3FFC
0000
0000
0000
0000
0000
0000
0000
0000
0002
FFFF
ENDCHAR
STARTCHAR uni4E8D
ENCODING 20109
SWIDTH 1000 0
SWIDTH1 1000 0
BBX 16 16 0 -2
BITMAP
0004
3FFE
0000
0000
0000
0002
FFFF
0080
0080
0080
0080
0080
0080
0080
0280
0100
ENDCHAR
STARTCHAR uni4E8E
ENCODING 20110
SWIDTH 1000 0
SWIDTH1 1000 0
BBX 16 16 0 -2
BITMAP
0008
3FFC
0100
0100
0100
0102
FFFF
0100
0100
0100
0100
0100
0100
0100
0500
0200
ENDCHAR
STARTCHAR uni4E8F
ENCODING 20111
SWIDTH 1000 0
SWIDTH1 1000 0
BBX 16 16 0 -2
BITMAP
0008
3FFC
0000
0000
0002
FFFF
0400
0400
0FF8
0808
0008
0008
0010
0210
0120
00C0
ENDCHAR
STARTCHAR uni4E90
ENCODING 20112
SWIDTH 1000 0
SWIDTH1 1000 0
BBX 16 16 0 -2
BITMAP
0004
3FFE
0200
0200
0202
FFFF
0400
0400
0FF8
0008
0008
0008
0008
0008
0090
0060
ENDCHAR
STARTCHAR uni4E91
ENCODING 20113
SWIDTH 1000 0
SWIDTH1 1000 0
BBX 16 14 0 -1
BITMAP
0008
3FFC
0000
0000
0002
FFFF
0100
0100
0220
0210
0410
0808
3FFC
1004
ENDCHAR
STARTCHAR uni4E92
ENCODING 20114
SWIDTH 1000 0
SWIDTH1 1000 0
BBX 16 15 0 -1
BITMAP
0004
7FFE
0400
0400
0410
07F8
0410
0810
0810
0820
1FE0
0020
0020
0022
FFFF
ENDCHAR
STARTCHAR uni4E93
ENCODING 20115
SWIDTH 1000 0
SWIDTH1 1000 0
BBX 16 16 0 -2
BITMAP
0008
3FFC
0000
0000
0000
0002
FFFF
0420
0420
0420
0420
0820
0820
1020
2020
C020
ENDCHAR
STARTCHAR uni4E94
ENCODING 20116
SWIDTH 1000 0
SWIDTH1 1000 0
BBX 16 15 0 -1
BITMAP
0004
7FFE
0100
0100
0100
0100
0110
3FF8
0210
0210
0210
0410
0410
0410
FFFF
ENDCHAR
STARTCHAR uni4E95
ENCODING 20117
SWIDTH 1000 0
SWIDTH1 1000 0
BBX 16 16 0 -2
BITMAP
0420
0420
0420
0424
7FFE
0420
0420
0420
0422
FFFF
0420
0420
0820
1020
2020
C020
ENDCHAR
STARTCHAR uni4E96
ENCODING 20118
SWIDTH 1000 0
SWIDTH1 1000 0
BBX 16 15 0 -2
BITMAP
0008
3FFC
0000
0000
0002
FFFF
0000
0000
0000
3FFC
0000
0000
0000
0002
FFFF
ENDCHAR
STARTCHAR uni4E97
ENCODING 20119
SWIDTH 1000 0
SWIDTH1 1000 0
BBX 16 16 0 -2
BITMAP
0100
0100
2104
2104
2104
2104
2104
3FFC
0000
0008
3FFC
0000
0000
0000
0002
FFFF
ENDCHAR
STARTCHAR uni4E98
ENCODING 20120
SWIDTH 1000 0
SWIDTH1 1000 0
BBX 16 15 0 -1
BITMAP
0004
7FFE
0000
0000
0FF8
0808
0808
0FF8
0808
0808
0808
0FF8
0808
0002
FFFF
ENDCHAR
STARTCHAR uni4E99
ENCODING 20121
SWIDTH 1000 0
SWIDTH1 1000 0
BBX 16 16 0 -2
BITMAP
0004
7FFE
0400
0400
0410
07F8
0810
0910
0890
0810
1220
1120
1020
0020
0022
FFFF
ENDCHAR
STARTCHAR uni4E9A
ENCODING 20122
SWIDTH 1000 0
SWIDTH1 1000 0
BBX 16 15 0 -1
BITMAP
0004
7FFE
0240
0240
0240
2244
1244
1248
1248
0A50
0A50
0260
0240
0240
FFFF
ENDCHAR
STARTCHAR uni4E9B
ENCODING 20123
SWIDTH 1000 0
SWIDTH1 1000 0
BBX 16 16 0 -2
BITMAP
0440
0440
0442
2746
2458
2460
2441
2441
3F3F
E000
0008
3FFC
0000
0000
0002
FFFF
ENDCHAR
STARTCHAR uni4E9C
ENCODING 20124
SWIDTH 1000 0
SWIDTH1 1000 0
BBX 16 16 0 -2
BITMAP
0004
7FFE
0220
0220
0224
3FFE
2224
2224
2224
2224
3FFC
2224
0220
0220
0222
FFFF
ENDCHAR
STARTCHAR uni4E9D
ENCODING 20125
SWIDTH 1000 0
SWIDTH1 1000 0
BBX 16 16 0 -2
BITMAP
0100
0220
0410
1FF8
0008
1010
1010
2224
7F7E
4142
0000
3FFC
0000
0000
0002
FFFF
ENDCHAR
STARTCHAR uni4E9E
ENCODING 20126
SWIDTH 1000 0
SWIDTH1 1000 0
BBX 16 16 0 -2
BITMAP
0004
7FFE
0240
0240
0244
3E7E
2004
2004
2004
2004
3E7C
0240
0240
0240
0242
FFFF
ENDCHAR
STARTCHAR uni4E9F
ENCODING 20127
SWIDTH 1000 0
SWIDTH1 1000 0
BBX 16 15 0 -1
BITMAP
0008
3FFC
0010
0020
00C0
3CBE
2484
2494
2488
3C94
24A2
0082
0180
0002
FFFF
ENDCHAR
STARTCHAR uni4EA0
ENCODING 20128
SWIDTH 1000 0
SWIDTH1 1000 0
BBX 16 5 0 6
BITMAP
0200
0180
0080
0002
FFFF
ENDCHAR
STARTCHAR uni4EA1
ENCODING 20129
SWIDTH 1000 0
SWIDTH1 1000 0
BBX 16 15 0 -1
BITMAP
0200
0100
0080
0082
FFFF
1000
1000
1000
1000
1000
1000
1000
1000
1002
0FFF
ENDCHAR
STARTCHAR uni4EA2
ENCODING 20130
SWIDTH 1000 0
SWIDTH1 1000 0
BBX 16 16 0 -2
BITMAP
0100
0080
0082
FFFF
0000
0020
0FF0
0820
0820
0820
0820
0820
0821
1021
2021
401F
ENDCHAR
STARTCHAR uni4EA3
ENCODING 20131
SWIDTH 1000 0
SWIDTH1 1000 0
BBX 16 16 0 -2
BITMAP
0200
0100
0080
0082
FFFF
0420
0420
0420
0420
0420
0420
0820
0820
1020
2020
C020
ENDCHAR
STARTCHAR uni4EA4
ENCODING 20132
SWIDTH 1000 0
SWIDTH1 1000 0
BBX 16 16 0 -2
BITMAP
0100
0080
0082
FFFF
0420
0810
100C
2424
C420
0420
0240
0280
0180
0240
0C30
F00F
ENDCHAR
STARTCHAR uni4EA5
ENCODING 20133
SWIDTH 1000 0
SWIDTH1 1000 0
BBX 16 16 0 -2
BITMAP
0100
0082
FFFF
0200
0220
0420
0840
1FC8
0088
0110
0220
0C60
7090
0308
0C06
7002
ENDCHAR
STARTCHAR uni4EA6
ENCODING 20134
SWIDTH 1000 0
SWIDTH1 1000 0
BBX 16 16 0 -2
BITMAP
0100
0080
0082
FFFF
0220
0220
1228
1224
2222
2223
4421
0420
0820
1020
20A0
C040
ENDCHAR
STARTCHAR uni4EA7
ENCODING 20135
SWIDTH 1000 0
SWIDTH1 1000 0
BBX 16 16 0 -2
BITMAP
0100
0080
7FFF
0000
0410
0210
0222
3FFF
2000
2000
2000
2000
2000
4000
4000
8000
ENDCHAR
STARTCHAR uni4EA8
ENCODING 20136
SWIDTH 1000 0
SWIDTH1 1000 0
BBX 16 16 0 -2
BITMAP
0100
0082
FFFF
0000
1FF0
1010
1010
1FF0
0000
7FF8
0020
00C0
0080
0080
0280
0100
ENDCHAR
STARTCHAR uni4EA9
ENCODING 20137
SWIDTH 1000 0
SWIDTH1 1000 0
BBX 16 16 0 -2
BITMAP
0200
0180
0082
FFFF
0000
0004
1FFE
1084
1084
1084
1FFC
1084
1084
1084
1FFC
1004
ENDCHAR
STARTCHAR uni4EAA
ENCODING 20138
SWIDTH 1000 0
SWIDTH1 1000 0
BBX 16 16 0 -2
BITMAP
0200
0102
FFFF
0420
2428
2424
4422
88A2
1040
6010
3FF8
0010
0010
0008
0004
0003
ENDCHAR
STARTCHAR uni4EAB
ENCODING 20139
SWIDTH 1000 0
SWIDTH1 1000 0
BBX 16 16 0 -2
BITMAP
0100
0082
FFFF
0000
1FF8
1008
1FF8
0000
3FF8
0020
00C2
FFFF
0080
0080
0280
0100
ENDCHAR
STARTCHAR uni4EAC
ENCODING 20140
SWIDTH 1000 0
SWIDTH1 1000 0
BBX 16 16 0 -2
BITMAP
0100
0080
0082
FFFF
0000
0FF8
0808
0808
0808
0FF8
0080
0890
1088
2086
4282
0100
ENDCHAR
STARTCHAR uni4EAD
ENCODING 20141
SWIDTH 1000 0
SWIDTH1 1000 0
BBX 16 16 0 -2
BITMAP
0100
0084
7FFE
0000
0FF0
0810
0FF0
0000
7FFF
4001
9FFA
0080
0080
0080
0280
0100
ENDCHAR
STARTCHAR uni4EAE
ENCODING 20142
SWIDTH 1000 0
SWIDTH1 1000 0
BBX 16 16 0 -2
BITMAP
0100
0082
FFFF
0000
0FF0
0810
0FF0
0000
7FFE
4002
87E4
0420
0421
0821
1021
601F
ENDCHAR
STARTCHAR uni4EAF
ENCODING 20143
SWIDTH 1000 0
SWIDTH1 1000 0
BBX 16 16 0 -2
BITMAP
0100
0082
FFFF
0000
0FF0
0810
0810
0FF0
0000
3FFC
2004
2004
3FFC
2004
2004
3FFC
ENDCHAR
STARTCHAR uni4EB0
ENCODING 20144
SWIDTH 1000 0
SWIDTH1 1000 0
BBX 16 16 0 -2
BITMAP
0100
0082
FFFF
0000
1FF8
1008
1008
1FF8
1008
1FF8
0100
0920
0910
110C
2504
4200
ENDCHAR
STARTCHAR uni4EB1
ENCODING 20145
SWIDTH 1000 0
SWIDTH1 1000 0
BBX 16 16 0 -2
BITMAP
0100
0082
FFFF
0000
0800
09FC
1104
1104
31FC
5104
9104
1104
11FC
1104
1002
17FF
ENDCHAR
STARTCHAR uni4EB2
ENCODING 20146
SWIDTH 1000 0
SWIDTH1 1000 0
BBX 16 16 0 -2
BITMAP
0100
0084
7FFE
0810
0420
0242
FFFF
0100
0104
7FFE
0100
0920
1110
210C
4504
0200
ENDCHAR
STARTCHAR uni4EB3
ENCODING 20147
SWIDTH 1000 0
SWIDTH1 1000 0
BBX 16 16 0 -2
BITMAP
0100
7FFE
0000
0FF0
0810
0FF0
0000
7FFE
4002
80F4
3F00
0108
01FC
7F01
0101
00FF
ENDCHAR
STARTCHAR uni4EB4
ENCODING 20148
SWIDTH 1000 0
SWIDTH1 1000 0
BBX 16 16 0 -2
BITMAP
0100
0082
FFFF
0810
0FF0
0000
7FFE
4102
9FF8
0100
3FFC
0200
3FE0
0421
0821
701F
ENDCHAR
STARTCHAR uni4EB5
ENCODING 20149
SWIDTH 1000 0
SWIDTH1 1000 0
BBX 16 16 0 -2
BITMAP
0100
0082
FFFF
1040
7DF8
1048
1DC8
F0A9
1125
5603
2300
0488
0C50
3420
C598
0607
ENDCHAR
STARTCHAR uni4EB6
ENCODING 20150
SWIDTH 1000 0
SWIDTH1 1000 0
BBX 16 16 0 -2
BITMAP
0100
FFFF
0000
3FF8
2008
27C8
2448
3FF8
0000
1FF0
1010
1FF0
1010
1FF0
0002
FFFF
ENDCHAR
STARTCHAR uni4EB7
ENCODING 20151
SWIDTH 1000 0
SWIDTH1 1000 0
BBX 16 16 0 -2
BITMAP
0100
0084
7FFE
0410
0220
3FFE
2240
2FF8
2248
3FFE
2248
2FF8
2650
4A48
5244
A243
ENDCHAR
STARTCHAR uni4EB8
ENCODING 20152
SWIDTH 1000 0
SWIDTH1 1000 0
BBX 16 16 0 -2
BITMAP
2044
1024
FE28
00FE
7C92
4492
7CFE
0092
FC92
08FE
1E10
F1FF
1010
1010
5010
2010
ENDCHAR
STARTCHAR uni4EB9
ENCODING 20153
SWIDTH 1000 0
SWIDTH1 1000 0
BBX 16 16 0 -2
BITMAP
0100
FFFF
0000
37EC
2424
35EC
2564
35EC
2424
FFFE
8002
1FF0
1010
1FF0
1010
FFFF
ENDCHAR
STARTCHAR uni4EBA
ENCODING 20154
SWIDTH 1000 0
SWIDTH1 1000 0
BBX 16 16 0 -2
BITMAP
0100
0100
0100
0100
0100
0100
0280
0280
0240
0240
0420
0420
0810
1008
2007
C002
ENDCHAR
STARTCHAR uni4EBB
ENCODING 20155
SWIDTH 1000 0
SWIDTH1 1000 0
BBX 7 16 0 -2
BITMAP
02
02
04
04
08
08
18
28
48
88
08
08
08
08
08
08
ENDCHAR
STARTCHAR uni4EBC
ENCODING 20156
SWIDTH 1000 0
SWIDTH1 1000 0
BBX 16 15 0 -1
BITMAP
0100
0100
0100
0100
0280
0280
0240
0440
0420
0810
1008
2007
C002
0000
FFFF
ENDCHAR
STARTCHAR uni4EBD
ENCODING 20157
SWIDTH 1000 0
SWIDTH1 1000 0
BBX 16 14 0 0
BITMAP
0100
0100
0280
0280
0440
0820
1010
2008
4007
8002
0600
0100
00C0
0040
ENDCHAR
STARTCHAR uni4EBE
ENCODING 20158
SWIDTH 1000 0
SWIDTH1 1000 0
BBX 15 16 1 -2
BITMAP
0100
0100
8100
8100
8100
8100
8280
8280
8240
8420
8410
8808
9006
A000
8004
FFFE
ENDCHAR
STARTCHAR uni4EBF
ENCODING 20159
SWIDTH 1000 0
SWIDTH1 1000 0
BBX 16 16 0 -2
BITMAP
0800
0800
0BFC
1008
1010
1020
3040
5080
9100
1100
1201
1201
1201
1201
11FF
1000
ENDCHAR
STARTCHAR uni4EC0
ENCODING 20160
SWIDTH 1000 0
SWIDTH1 1000 0
BBX 16 16 0 -2
BITMAP
0820
0820
0820
1020
1020
3022
57FF
9020
1020
1020
1020
1020
1020
1020
1020
1020
ENDCHAR
STARTCHAR uni4EC1
ENCODING 20161
SWIDTH 1000 0
SWIDTH1 1000 0
BBX 16 16 0 -2
BITMAP
0800
0800
0804
13FE
1000
3000
5000
9000
1000
1000
1000
1000
1002
17FF
1000
1000
ENDCHAR
STARTCHAR uni4EC2
ENCODING 20162
SWIDTH 1000 0
SWIDTH1 1000 0
BBX 16 16 0 -2
BITMAP
0840
0840
0840
1042
17FF
1042
3042
5042
9042
1042
1082
1082
1102
1122
1214
1408
ENDCHAR
STARTCHAR uni4EC3
ENCODING 20163
SWIDTH 1000 0
SWIDTH1 1000 0
BBX 16 16 0 -2
BITMAP
0800
0802
0BFF
1010
1010
3010
5010
9010
1010
1010
1010
1010
1010
1010
1050
1020
ENDCHAR
STARTCHAR uni4EC4
ENCODING 20164
SWIDTH 1000 0
SWIDTH1 1000 0
BBX 16 16 0 -2
BITMAP
0002
3FFF
2000
2080
2080
2080
2080
2080
2140
2140
2120
2220
2210
4408
4807
B002
ENDCHAR
STARTCHAR uni4EC5
ENCODING 20165
SWIDTH 1000 0
SWIDTH1 1000 0
BBX 16 16 0 -2
BITMAP
0800
0804
0BFE
1104
1104
3104
5108
9088
1088
1050
1050
1020
1050
1088
1107
1602
ENDCHAR
STARTCHAR uni4EC6
ENCODING 20166
SWIDTH 1000 0
SWIDTH1 1000 0
BBX 15 16 0 -2
BITMAP
0420
0420
0420
0820
0820
1820
2830
482C
8826
0822
0820
0820
0820
0820
0820
0820
ENDCHAR
STARTCHAR uni4EC7
ENCODING 20167
SWIDTH 1000 0
SWIDTH1 1000 0
BBX 16 16 0 -2
BITMAP
0880
0880
0880
1080
1088
37FC
5088
9088
1088
1088
1088
1108
1109
1209
1409
1807
ENDCHAR
STARTCHAR uni4EC8
ENCODING 20168
SWIDTH 1000 0
SWIDTH1 1000 0
BBX 16 16 0 -2
BITMAP
0810
0810
0890
1090
1090
1090
3090
5090
9090
1088
1088
1108
1104
1204
1202
1403
ENDCHAR
STARTCHAR uni4EC9
ENCODING 20169
SWIDTH 1000 0
SWIDTH1 1000 0
BBX 16 16 0 -2
BITMAP
0808
09FC
1108
1108
2108
2108
6108
A108
2108
2108
2108
2109
2209
2209
2407
2800
ENDCHAR
STARTCHAR uni4ECA
ENCODING 20170
SWIDTH 1000 0
SWIDTH1 1000 0
BBX 16 16 0 -2
BITMAP
0100
0100
0280
0240
0420
0A10
110C
2083
C000
1FF0
0010
0020
0040
0040
0080
0080
ENDCHAR
STARTCHAR uni4ECB
ENCODING 20171
SWIDTH 1000 0
SWIDTH1 1000 0
BBX 16 16 0 -2
BITMAP
0100
0100
0280
0240
0420
0810
142C
2423
C420
0420
0420
0420
0820
0820
1020
6020
ENDCHAR
STARTCHAR uni4ECC
ENCODING 20172
SWIDTH 1000 0
SWIDTH1 1000 0
BBX 16 16 0 -2
BITMAP
0100
0100
0100
0180
0260
0418
0806
3102
C100
0100
0280
0240
0420
0810
3008
C007
ENDCHAR
STARTCHAR uni4ECD
ENCODING 20173
SWIDTH 1000 0
SWIDTH1 1000 0
BBX 16 16 0 -2
BITMAP
0804
0BFE
0884
1084
1088
3088
5092
909F
1082
1082
1082
1102
1102
1102
1214
1408
ENDCHAR
STARTCHAR uni4ECE
ENCODING 20174
SWIDTH 1000 0
SWIDTH1 1000 0
BBX 16 16 0 -2
BITMAP
0820
0820
0820
0820
0820
0820
0820
0850
1450
1250
1288
2088
2104
4204
8403
0802
ENDCHAR
STARTCHAR uni4ECF
ENCODING 20175
SWIDTH 1000 0
SWIDTH1 1000 0
BBX 16 16 0 -2
BITMAP
0800
0820
0820
1020
1020
1040
3040
5040
9080
1088
1084
1102
1102
13FF
1201
1000
ENDCHAR
STARTCHAR uni4ED0
ENCODING 20176
SWIDTH 1000 0
SWIDTH1 1000 0
BBX 16 16 0 -2
BITMAP
0100
0100
0280
0440
0820
1018
2107
C102
0100
0102
FFFF
0100
0100
0100
0100
0100
ENDCHAR
STARTCHAR uni4ED1
ENCODING 20177
SWIDTH 1000 0
SWIDTH1 1000 0
BBX 16 16 0 -2
BITMAP
0100
0100
0280
0240
0420
0810
1008
2807
C832
08C0
0F00
0800
0800
0804
0804
07FC
ENDCHAR
STARTCHAR uni4ED2
ENCODING 20178
SWIDTH 1000 0
SWIDTH1 1000 0
BBX 16 16 0 -2
BITMAP
0100
0100
0280
0240
0420
0810
100C
2303
C0C0
0040
0000
0000
0600
0180
0060
0020
ENDCHAR
STARTCHAR uni4ED3
ENCODING 20179
SWIDTH 1000 0
SWIDTH1 1000 0
BBX 16 16 0 -2
BITMAP
0100
0180
0240
0420
0810
1008
2FE7
C822
0820
0820
0820
08A4
0844
0804
0804
07FC
ENDCHAR
STARTCHAR uni4ED4
ENCODING 20180
SWIDTH 1000 0
SWIDTH1 1000 0
BBX 16 16 0 -2
BITMAP
0800
0BFE
0804
1008
1010
3020
5020
9022
17FF
1020
1020
1020
1020
1020
10A0
1040
ENDCHAR
STARTCHAR uni4ED5
ENCODING 20181
SWIDTH 1000 0
SWIDTH1 1000 0
BBX 16 16 0 -2
BITMAP
0820
0820
0820
1020
1020
3022
57FF
9020
1020
1020
1020
1020
1020
1024
17FE
1000
ENDCHAR
STARTCHAR uni4ED6
ENCODING 20182
SWIDTH 1000 0
SWIDTH1 1000 0
BBX 16 16 0 -2
BITMAP
0820
0820
0820
1224
123E
32E4
3724
5224
9224
1234
1228
1220
1201
1201
1201
11FF
ENDCHAR
STARTCHAR uni4ED7
ENCODING 20183
SWIDTH 1000 0
SWIDTH1 1000 0
BBX 16 16 0 -2
BITMAP
0810
0810
0810
1012
17FF
3010
3110
5110
9110
10A0
10A0
1040
1040
10A0
1118
1607
ENDCHAR
STARTCHAR uni4ED8
ENCODING 20184
SWIDTH 1000 0
SWIDTH1 1000 0
BBX 16 16 0 -2
BITMAP
0808
0808
0808
1008
13FF
1008
3008
5008
9108
1088
1088
1008
1008
1008
1028
1010
ENDCHAR
STARTCHAR uni4ED9
ENCODING 20185
SWIDTH 1000 0
SWIDTH1 1000 0
BBX 15 16 0 -2
BITMAP
0820
0820
0820
1020
1222
3222
5222
9222
1222
1222
1222
1222
1222
1222
13FE
1002
ENDCHAR
STARTCHAR uni4EDA
ENCODING 20186
SWIDTH 1000 0
SWIDTH1 1000 0
BBX 16 16 0 -2
BITMAP
0100
0100
0280
0440
0820
1018
2107
C102
0100
2104
2104
2104
2104
2104
2104
3FFC
ENDCHAR
STARTCHAR uni4EDB
ENCODING 20187
SWIDTH 1000 0
SWIDTH1 1000 0
BBX 16 16 0 -2
BITMAP
0804
081E
0BE0
1040
1040
1040
3040
507F
97C0
1040
1040
1041
1041
1041
1041
103F
ENDCHAR
STARTCHAR uni4EDC
ENCODING 20188
SWIDTH 1000 0
SWIDTH1 1000 0
BBX 16 16 0 -2
BITMAP
0800
0804
0BFE
1020
1020
1020
3020
5020
9020
1020
1020
1020
1020
1022
17FF
1000
ENDCHAR
STARTCHAR uni4EDD
ENCODING 20189
SWIDTH 1000 0
SWIDTH1 1000 0
BBX 16 16 0 -2
BITMAP
0080
0080
0140
0220
0410
0808
3007
C012
1FF8
0080
0080
0080
0080
0080
0082
7FFF
ENDCHAR
STARTCHAR uni4EDE
ENCODING 20190
SWIDTH 1000 0
SWIDTH1 1000 0
BBX 16 16 0 -2
BITMAP
0800
0802
0BFF
1042
1042
3042
5242
9242
1242
1442
1042
1082
1082
1102
1214
1408
ENDCHAR
STARTCHAR uni4EDF
ENCODING 20191
SWIDTH 1000 0
SWIDTH1 1000 0
BBX 16 16 0 -2
BITMAP
0804
081E
0BE0
1020
1020
3020
5022
97FF
1020
1020
1020
1020
1020
1020
1020
1020
ENDCHAR
STARTCHAR uni4EE0
ENCODING 20192
SWIDTH 1000 0
SWIDTH1 1000 0
BBX 16 16 0 -2
BITMAP
0804
0BFE
0820
1020
1020
1020
3022
57FF
9020
1020
1020
1020
1020
1020
1020
1020
ENDCHAR
STARTCHAR uni4EE1
ENCODING 20193
SWIDTH 1000 0
SWIDTH1 1000 0
BBX 16 16 0 -2
BITMAP
0880
0880
0884
11FE
1100
1200
3400
51F0
9010
1020
1040
1081
1101
1101
1101
10FF
ENDCHAR
STARTCHAR uni4EE2
ENCODING 20194
SWIDTH 1000 0
SWIDTH1 1000 0
BBX 16 16 0 -2
BITMAP
0880
0880
0880
1082
11FF
1102
3202
5502
9082
1042
1042
1002
1002
1002
1024
1018
ENDCHAR
STARTCHAR uni4EE3
ENCODING 20195
SWIDTH 1000 0
SWIDTH1 1000 0
BBX 16 16 0 -2
BITMAP
0840
0848
0844
1044
1040
107F
37C0
5040
9040
1020
1020
1010
1011
1009
1005
1003
ENDCHAR
STARTCHAR uni4EE4
ENCODING 20196
SWIDTH 1000 0
SWIDTH1 1000 0
BBX 16 16 0 -2
BITMAP
0100
0100
0280
0240
0420
0910
1088
2087
DFFA
0010
0020
0020
0640
0180
00C0
0040
ENDCHAR
STARTCHAR uni4EE5
ENCODING 20197
SWIDTH 1000 0
SWIDTH1 1000 0
BBX 13 16 2 -2
BITMAP
0020
8020
8820
8420
8220
8220
8020
8020
8420
8840
9040
A0A0
C110
8208
0C08
3000
ENDCHAR
STARTCHAR uni4EE6
ENCODING 20198
SWIDTH 1000 0
SWIDTH1 1000 0
BBX 16 16 0 -2
BITMAP
0820
0820
0820
1020
1128
1124
3124
5122
9222
1221
1421
1421
1020
1020
10A0
1040
ENDCHAR
STARTCHAR uni4EE7
ENCODING 20199
SWIDTH 1000 0
SWIDTH1 1000 0
BBX 16 16 0 -2
BITMAP
0100
0100
0110
01F8
0100
0100
0102
FFFF
0100
0100
0180
0240
0220
0410
180C
6003
ENDCHAR
STARTCHAR uni4EE8
ENCODING 20200
SWIDTH 1000 0
SWIDTH1 1000 0
BBX 16 16 0 -2
BITMAP
0800
0802
0BFF
1000
1000
3000
5000
9004
11FE
1000
1000
1000
1000
1002
17FF
1000
ENDCHAR
STARTCHAR uni4EE9
ENCODING 20201
SWIDTH 1000 0
SWIDTH1 1000 0
BBX 16 16 0 -2
BITMAP
0840
0840
0840
1040
1040
1040
3044
507E
9040
1040
1040
1040
1040
1040
1042
17FF
ENDCHAR
STARTCHAR uni4EEA
ENCODING 20202
SWIDTH 1000 0
SWIDTH1 1000 0
BBX 16 16 0 -2
BITMAP
0880
0840
0820
1224
1204
1104
3108
5088
9090
1050
1020
1020
1050
1088
1107
1602
ENDCHAR
STARTCHAR uni4EEB
ENCODING 20203
SWIDTH 1000 0
SWIDTH1 1000 0
BBX 16 16 0 -2
BITMAP
0820
0820
0840
1040
1080
1088
3108
5210
9410
1020
1020
1044
1082
1101
13FF
1101
ENDCHAR
STARTCHAR uni4EEC
ENCODING 20204
SWIDTH 1000 0
SWIDTH1 1000 0
BBX 16 16 0 -2
BITMAP
1200
1182
109F
2202
2202
6202
6202
A202
2202
2202
2202
2202
2202
2202
220A
2204
ENDCHAR
STARTCHAR uni4EED
ENCODING 20205
SWIDTH 1000 0
SWIDTH1 1000 0
BBX 16 16 0 -2
BITMAP
0800
0804
0BFE
1084
1084
1284
3284
5184
9084
10C4
10A4
1114
110C
120B
1448
1830
ENDCHAR
STARTCHAR uni4EEE
ENCODING 20206
SWIDTH 1000 0
SWIDTH1 1000 0
BBX 16 16 0 -2
BITMAP
0804
081E
13E0
1200
1204
33FE
5284
9284
1284
1248
1248
1250
1220
1450
148C
1B03
ENDCHAR
STARTCHAR uni4EEF
ENCODING 20207
SWIDTH 1000 0
SWIDTH1 1000 0
BBX 16 16 0 -2
BITMAP
0820
0820
0820
1124
1122
1121
3121
5220
9222
1422
1024
1008
1010
1020
10C0
1700
ENDCHAR
STARTCHAR uni4EF0
ENCODING 20208
SWIDTH 1000 0
SWIDTH1 1000 0
BBX 16 16 0 -2
BITMAP
0800
0820
0AC2
133F
1222
3222
5222
9222
1222
1262
12A2
132A
1024
1020
1020
1020
ENDCHAR
STARTCHAR uni4EF1
ENCODING 20209
SWIDTH 1000 0
SWIDTH1 1000 0
BBX 16 16 0 -2
BITMAP
0840
0840
08A0
10A0
1110
1108
3244
5423
9020
13FC
1008
1008
1010
1010
1020
1020
ENDCHAR
STARTCHAR uni4EF2
ENCODING 20210
SWIDTH 1000 0
SWIDTH1 1000 0
BBX 16 16 0 -2
BITMAP
0820
0820
0820
1022
13FF
3222
5222
9222
1222
13FE
1222
1020
1020
1020
1020
1020
ENDCHAR
STARTCHAR uni4EF3
ENCODING 20211
SWIDTH 1000 0
SWIDTH1 1000 0
BBX 16 16 0 -2
BITMAP
0810
0A10
0A10
1210
1212
3214
53D8
9210
1210
1210
1210
1210
1251
1291
1311
120F
ENDCHAR
STARTCHAR uni4EF4
ENCODING 20212
SWIDTH 1000 0
SWIDTH1 1000 0
BBX 16 16 0 -2
BITMAP
0802
08FF
0882
1082
1082
10FE
3082
5082
9082
10FE
1082
1082
1102
1102
120A
1404
ENDCHAR
STARTCHAR uni4EF5
ENCODING 20213
SWIDTH 1000 0
SWIDTH1 1000 0
BBX 16 16 0 -2
BITMAP
0880
0880
0904
11FE
1220
3220
5420
9022
17FF
1020
1020
1020
1020
1020
1020
1020
ENDCHAR
STARTCHAR uni4EF6
ENCODING 20214
SWIDTH 1000 0
SWIDTH1 1000 0
BBX 16 16 0 -2
BITMAP
0820
0820
0920
1124
11FE
3220
5220
9420
1022
17FF
1020
1020
1020
1020
1020
1020
ENDCHAR
STARTCHAR uni4EF7
ENCODING 20215
SWIDTH 1000 0
SWIDTH1 1000 0
BBX 16 16 0 -2
BITMAP
0840
0840
08A0
1090
1108
3204
5513
9110
1110
1110
1110
1110
1110
1210
1410
1010
ENDCHAR
STARTCHAR uni4EF8
ENCODING 20216
SWIDTH 1000 0
SWIDTH1 1000 0
BBX 16 16 0 -2
BITMAP
0804
081E
0BE0
1040
1040
1040
3042
57FF
90A0
10A0
1090
1110
1108
1208
1404
1803
ENDCHAR
STARTCHAR uni4EF9
ENCODING 20217
SWIDTH 1000 0
SWIDTH1 1000 0
BBX 16 16 0 -2
BITMAP
0820
0820
0822
17FF
1020
1020
3020
53FE
9020
1020
1022
17FF
1020
1020
1020
1020
ENDCHAR
STARTCHAR uni4EFA
ENCODING 20218
SWIDTH 1000 0
SWIDTH1 1000 0
BBX 16 16 0 -2
BITMAP
0100
0100
0280
0240
0420
0818
3007
CFF8
0800
0800
0800
0FF0
0800
0800
0808
0FFC
ENDCHAR
STARTCHAR uni4EFB
ENCODING 20219
SWIDTH 1000 0
SWIDTH1 1000 0
BBX 16 16 0 -2
BITMAP
0800
0804
081E
13E0
1020
3020
5020
9022
17FF
1020
1020
1020
1020
1024
13FE
1000
ENDCHAR
STARTCHAR uni4EFC
ENCODING 20220
SWIDTH 1000 0
SWIDTH1 1000 0
BBX 16 16 0 -2
BITMAP
0800
0802
0BFF
1020
1020
1020
3020
5024
93FE
1020
1020
1020
1020
1020
1022
17FF
ENDCHAR
STARTCHAR uni4EFD
ENCODING 20221
SWIDTH 1000 0
SWIDTH1 1000 0
BBX 16 16 0 -2
BITMAP
0810
0890
0890
1090
1108
3108
5204
9403
13F8
1088
1088
1088
1108
1108
1250
1420
ENDCHAR
STARTCHAR uni4EFE
ENCODING 20222
SWIDTH 1000 0
SWIDTH1 1000 0
BBX 16 16 0 -2
BITMAP
1002
13FF
1080
1080
2080
2084
61FE
A104
2104
2104
23FC
2008
2008
2008
200A
2FFF
ENDCHAR
STARTCHAR uni4EFF
ENCODING 20223
SWIDTH 1000 0
SWIDTH1 1000 0
BBX 16 16 0 -2
BITMAP
0840
0820
0820
17FF
1040
3040
5044
907E
1044
1084
1084
1084
1104
1104
1228
1410
ENDCHAR
STARTCHAR uni4F00
ENCODING 20224
SWIDTH 1000 0
SWIDTH1 1000 0
BBX 16 16 0 -2
BITMAP
0820
08A0
0890
1110
1108
3208
5204
9443
1042
1040
1080
1088
1104
1104
13FE
1202
ENDCHAR
STARTCHAR uni4F01
ENCODING 20225
SWIDTH 1000 0
SWIDTH1 1000 0
BBX 16 16 0 -2
BITMAP
0080
0080
0140
0220
0410
0888
1084
2083
C880
08F8
0880
0880
0880
0880
0882
FFFF
ENDCHAR
STARTCHAR uni4F02
ENCODING 20226
SWIDTH 1000 0
SWIDTH1 1000 0
BBX 16 16 0 -2
BITMAP
0820
0820
0822
17FF
1020
3020
53FE
9222
1222
1222
1222
1222
122A
1224
1020
1020
ENDCHAR
STARTCHAR uni4F03
ENCODING 20227
SWIDTH 1000 0
SWIDTH1 1000 0
BBX 16 16 0 -2
BITMAP
0808
0BFC
0808
1090
1060
1020
37FF
5021
9022
1024
1020
1020
1020
1020
10A0
1040
ENDCHAR
STARTCHAR uni4F04
ENCODING 20228
SWIDTH 1000 0
SWIDTH1 1000 0
BBX 16 16 0 -2
BITMAP
0802
0BFF
0822
1022
1022
13FE
3220
5220
9220
17FF
1021
1021
1021
102A
1024
1020
ENDCHAR
STARTCHAR uni4F05
ENCODING 20229
SWIDTH 1000 0
SWIDTH1 1000 0
BBX 16 16 0 -2
BITMAP
0820
0820
0822
17FF
1020
1020
3224
5224
9224
1224
13FC
1020
1021
1021
1021
101F
ENDCHAR
STARTCHAR uni4F06
ENCODING 20230
SWIDTH 1000 0
SWIDTH1 1000 0
BBX 16 16 0 -2
BITMAP
0880
0880
0902
11FF
124A
124A
3492
5092
9112
1122
1222
1442
1082
1104
1214
1008
ENDCHAR
STARTCHAR uni4F07
ENCODING 20231
SWIDTH 1000 0
SWIDTH1 1000 0
BBX 16 16 0 -2
BITMAP
0810
09F8
0910
1110
1110
320F
5400
9BF8
1108
1108
1090
1050
1020
1050
118C
1603
ENDCHAR
STARTCHAR uni4F08
ENCODING 20232
SWIDTH 1000 0
SWIDTH1 1000 0
BBX 16 16 0 -2
BITMAP
0840
0820
0810
1010
1080
3080
5080
9284
1282
1281
1481
1480
1084
1084
1086
107C
ENDCHAR
STARTCHAR uni4F09
ENCODING 20233
SWIDTH 1000 0
SWIDTH1 1000 0
BBX 16 16 0 -2
BITMAP
0840
0820
0822
17FF
1000
3000
51F0
9110
1110
1110
1110
1110
1111
1111
120F
1400
ENDCHAR
STARTCHAR uni4F0A
ENCODING 20234
SWIDTH 1000 0
SWIDTH1 1000 0
BBX 16 16 0 -2
BITMAP
0800
0804
0BFE
1084
1084
3084
57FF
9084
1084
1084
13FC
1084
1080
1100
1200
1400
ENDCHAR
STARTCHAR uni4F0B
ENCODING 20235
SWIDTH 1000 0
SWIDTH1 1000 0
BBX 16 16 0 -2
BITMAP
0808
0BFC
0908
1108
1110
3190
519E
9142
1144
1124
1128
1210
1228
1444
1483
1B02
ENDCHAR
STARTCHAR uni4F0C
ENCODING 20236
SWIDTH 1000 0
SWIDTH1 1000 0
BBX 16 16 0 -2
BITMAP
0802
0BFF
1200
1200
227C
2244
6244
A244
2244
2254
2248
2241
2241
2441
243F
2800
ENDCHAR
STARTCHAR uni4F0D
ENCODING 20237
SWIDTH 1000 0
SWIDTH1 1000 0
BBX 16 16 0 -2
BITMAP
0800
0804
0BFE
1040
1040
3040
5048
97FC
1088
1088
1088
1108
1108
1108
17FF
1000
ENDCHAR
STARTCHAR uni4F0E
ENCODING 20238
SWIDTH 1000 0
SWIDTH1 1000 0
BBX 16 16 0 -2
BITMAP
0820
0820
0822
17FF
1020
3020
5020
93FC
1104
1108
1088
1050
1020
1050
118F
1602
ENDCHAR
STARTCHAR uni4F0F
ENCODING 20239
SWIDTH 1000 0
SWIDTH1 1000 0
BBX 16 16 0 -2
BITMAP
0820
0828
0824
1024
1020
17FF
3020
5020
9050
1050
1050
1088
1088
1104
1203
1402
ENDCHAR
STARTCHAR uni4F10
ENCODING 20240
SWIDTH 1000 0
SWIDTH1 1000 0
BBX 16 16 0 -2
BITMAP
0880
0898
0884
1080
1080
30FF
5780
9044
1044
1048
1030
1020
1051
1189
1605
1003
ENDCHAR
STARTCHAR uni4F11
ENCODING 20241
SWIDTH 1000 0
SWIDTH1 1000 0
BBX 16 16 0 -2
BITMAP
0840
0840
0840
1042
1FFF
3040
50E0
90D0
1150
1148
1244
1443
1842
1040
1040
1040
ENDCHAR
STARTCHAR uni4F12
ENCODING 20242
SWIDTH 1000 0
SWIDTH1 1000 0
BBX 16 16 0 -2
BITMAP
0800
080E
09F0
1100
1100
3102
51FF
9108
1108
1108
1108
1108
1108
1208
1208
1408
ENDCHAR
STARTCHAR uni4F13
ENCODING 20243
SWIDTH 1000 0
SWIDTH1 1000 0
BBX 16 16 0 -2
BITMAP
0802
0BFF
0820
1020
1020
3040
5048
90C4
10C4
1142
1242
1440
1040
1040
1040
1040
ENDCHAR
STARTCHAR uni4F14
ENCODING 20244
SWIDTH 1000 0
SWIDTH1 1000 0
BBX 16 16 0 -2
BITMAP
0800
0BFF
0A01
1402
1000
3000
51F0
9110
1110
1110
1110
1111
1211
1211
140F
1800
ENDCHAR
STARTCHAR uni4F15
ENCODING 20245
SWIDTH 1000 0
SWIDTH1 1000 0
BBX 16 16 0 -2
BITMAP
0840
0840
0840
1044
17FE
3040
5040
9042
17FF
1090
1090
1088
1108
1104
1207
1402
ENDCHAR
STARTCHAR uni4F16
ENCODING 20246
SWIDTH 1000 0
SWIDTH1 1000 0
BBX 16 16 0 -2
BITMAP
0880
0880
0880
1082
17FF
3080
5080
90FC
1144
1144
1128
1228
1210
1428
14C4
1B03
ENDCHAR
STARTCHAR uni4F17
ENCODING 20247
SWIDTH 1000 0
SWIDTH1 1000 0
BBX 16 16 0 -2
BITMAP
0100
0100
0280
0240
0420
0810
300F
C822
0820
0820
0820
1450
1248
2084
4103
8202
ENDCHAR
STARTCHAR uni4F18
ENCODING 20248
SWIDTH 1000 0
SWIDTH1 1000 0
BBX 16 16 0 -2
BITMAP
0880
0890
088C
1084
1080
37FF
50A0
90A0
10A0
10A0
10A0
1120
1121
1221
1421
181F
ENDCHAR
STARTCHAR uni4F19
ENCODING 20249
SWIDTH 1000 0
SWIDTH1 1000 0
BBX 16 16 0 -2
BITMAP
0840
0840
0840
1040
1044
1144
3148
5250
9660
1050
1090
1088
1108
1104
1207
1402
ENDCHAR
STARTCHAR uni4F1A
ENCODING 20250
SWIDTH 1000 0
SWIDTH1 1000 0
BBX 16 16 0 -2
BITMAP
0100
0100
0280
0440
0820
1018
2007
DFF2
0000
0004
7FFE
0200
0420
0810
3FFC
1004
ENDCHAR
STARTCHAR uni4F1B
ENCODING 20251
SWIDTH 1000 0
SWIDTH1 1000 0
BBX 16 16 0 -2
BITMAP
0800
0802
0BFF
1200
1284
3244
5228
9210
1210
1228
1244
1282
1200
1200
1202
13FF
ENDCHAR
STARTCHAR uni4F1C
ENCODING 20252
SWIDTH 1000 0
SWIDTH1 1000 0
BBX 16 16 0 -2
BITMAP
0880
0880
0888
17FC
1088
3089
5109
9229
1427
1020
17FF
1020
1020
1020
1020
1020
ENDCHAR
STARTCHAR uni4F1D
ENCODING 20253
SWIDTH 1000 0
SWIDTH1 1000 0
BBX 16 16 0 -2
BITMAP
0800
0804
09FE
1000
1000
3002
57FF
9040
1040
1040
1080
1088
1084
1104
13FE
1102
ENDCHAR
STARTCHAR uni4F1E
ENCODING 20254
SWIDTH 1000 0
SWIDTH1 1000 0
BBX 16 16 0 -2
BITMAP
0100
0100
0280
0440
0820
1118
2107
D112
0910
0920
0100
FFFE
0100
0100
0100
0100
ENDCHAR
STARTCHAR uni4F1F
ENCODING 20255
SWIDTH 1000 0
SWIDTH1 1000 0
BBX 16 16 0 -2
BITMAP
0840
0844
17FE
1040
2040
33FC
5040
9042
17FF
1042
1042
1042
104A
1044
1040
1040
ENDCHAR
STARTCHAR uni4F20
ENCODING 20256
SWIDTH 1000 0
SWIDTH1 1000 0
BBX 16 16 0 -2
BITMAP
0820
0820
0820
1024
13FE
3040
5042
97FF
1080
1084
10FE
1008
1090
1060
1010
1008
ENDCHAR
STARTCHAR uni4F21
ENCODING 20257
SWIDTH 1000 0
SWIDTH1 1000 0
BBX 16 16 0 -2
BITMAP
0840
0840
0884
17FE
1100
3120
5220
9224
13FE
1020
1022
17FF
1020
1020
1020
1020
ENDCHAR
STARTCHAR uni4F22
ENCODING 20258
SWIDTH 1000 0
SWIDTH1 1000 0
BBX 16 16 0 -2
BITMAP
0800
0802
13FF
1008
2108
2108
6108
A3FF
2028
2028
2048
2088
2108
2208
2C28
2010
ENDCHAR
STARTCHAR uni4F23
ENCODING 20259
SWIDTH 1000 0
SWIDTH1 1000 0
BBX 16 16 0 -2
BITMAP
0804
0BFE
0A04
1244
1244
3244
5244
9244
1244
1264
10A0
10A2
1122
1122
1223
141E
ENDCHAR
STARTCHAR uni4F24
ENCODING 20260
SWIDTH 1000 0
SWIDTH1 1000 0
BBX 16 16 0 -2
BITMAP
0880
0880
0902
11FF
1240
3440
5842
93FF
1042
1042
1042
1082
1082
1102
1234
1408
ENDCHAR
STARTCHAR uni4F25
ENCODING 20261
SWIDTH 1000 0
SWIDTH1 1000 0
BBX 16 16 0 -2
BITMAP
0900
0904
090C
1110
1120
3140
5102
97FF
1120
1120
1120
1110
1108
1124
11C3
1102
ENDCHAR
STARTCHAR uni4F26
ENCODING 20262
SWIDTH 1000 0
SWIDTH1 1000 0
BBX 16 16 0 -2
BITMAP
0840
0840
10A0
1090
2108
3204
5403
9902
1108
1138
11C0
1100
1102
1102
1102
10FE
ENDCHAR
STARTCHAR uni4F27
ENCODING 20263
SWIDTH 1000 0
SWIDTH1 1000 0
BBX 16 16 0 -2
BITMAP
0840
0840
08A0
1090
1108
1204
3403
51F8
9108
1108
1108
1128
1112
1102
1102
10FE
ENDCHAR
STARTCHAR uni4F28
ENCODING 20264
SWIDTH 1000 0
SWIDTH1 1000 0
BBX 16 16 0 -2
BITMAP
0880
0880
0882
11FF
1102
3202
5482
9062
1022
1002
1032
10C2
1302
1002
1024
1018
ENDCHAR
STARTCHAR uni4F29
ENCODING 20265
SWIDTH 1000 0
SWIDTH1 1000 0
BBX 16 16 0 -2
BITMAP
0840
0820
0820
1002
17FF
3108
5108
9108
1088
1090
1050
1050
1020
1050
118C
1603
ENDCHAR
STARTCHAR uni4F2A
ENCODING 20266
SWIDTH 1000 0
SWIDTH1 1000 0
BBX 16 16 0 -2
BITMAP
0820
0820
0A20
1120
1120
3022
57FF
9042
1062
1052
1092
1082
1102
1202
1414
1808
ENDCHAR
STARTCHAR uni4F2B
ENCODING 20267
SWIDTH 1000 0
SWIDTH1 1000 0
BBX 16 16 0 -2
BITMAP
0840
0820
0820
1000
13FE
3202
5404
9000
1000
1000
1000
1000
1000
1002
17FF
1000
ENDCHAR
STARTCHAR uni4F2C
ENCODING 20268
SWIDTH 1000 0
SWIDTH1 1000 0
BBX 16 16 0 -2
BITMAP
0804
0BFE
1204
1204
2204
2204
63FC
A220
2220
2220
2210
2210
2208
2404
2403
2802
ENDCHAR
STARTCHAR uni4F2D
ENCODING 20269
SWIDTH 1000 0
SWIDTH1 1000 0
BBX 16 16 0 -2
BITMAP
0840
0820
0822
17FF
1040
3040
5084
9104
13F8
1210
1020
1048
1084
1104
13FE
1202
ENDCHAR
STARTCHAR uni4F2E
ENCODING 20270
SWIDTH 1000 0
SWIDTH1 1000 0
BBX 16 16 0 -2
BITMAP
1200
1200
1202
127F
2FA2
24A2
24A2
64A4
A494
2494
2488
2288
2114
22A4
2442
2881
ENDCHAR
STARTCHAR uni4F2F
ENCODING 20271
SWIDTH 1000 0
SWIDTH1 1000 0
BBX 15 16 0 -2
BITMAP
0840
0840
0844
13FE
1204
3204
5204
9204
13FC
1204
1204
1204
1204
1204
13FC
1204
ENDCHAR
STARTCHAR uni4F30
ENCODING 20272
SWIDTH 1000 0
SWIDTH1 1000 0
BBX 16 16 0 -2
BITMAP
0820
0820
0820
1022
17FF
3020
5020
9024
13FE
1204
1204
1204
1204
1204
13FC
1204
ENDCHAR
STARTCHAR uni4F31
ENCODING 20273
SWIDTH 1000 0
SWIDTH1 1000 0
BBX 16 16 0 -2
BITMAP
0840
0840
08A0
1090
1108
3204
5423
9020
1128
1124
1224
1222
1422
1022
10A0
1040
ENDCHAR
STARTCHAR uni4F32
ENCODING 20274
SWIDTH 1000 0
SWIDTH1 1000 0
BBX 16 16 0 -2
BITMAP
0800
0BFE
1202
1202
2202
23FE
6200
A240
2242
224C
2270
2240
2241
2441
2441
283F
ENDCHAR
STARTCHAR uni4F33
ENCODING 20275
SWIDTH 1000 0
SWIDTH1 1000 0
BBX 16 16 0 -2
BITMAP
0848
0848
0A48
1248
1248
324A
5FFF
9248
1248
1248
1248
1248
1278
1248
1200
13FF
ENDCHAR
STARTCHAR uni4F34
ENCODING 20276
SWIDTH 1000 0
SWIDTH1 1000 0
BBX 16 16 0 -2
BITMAP
0840
0840
0A44
1144
1148
3040
57FE
9040
1040
1042
1FFF
1040
1040
1040
1040
1040
ENDCHAR
STARTCHAR uni4F35
ENCODING 20277
SWIDTH 1000 0
SWIDTH1 1000 0
BBX 16 16 0 -2
BITMAP
1000
1002
17FF
2492
2492
2492
6492
A492
2492
2492
250E
2602
2402
2402
27FE
2402
ENDCHAR
STARTCHAR uni4F36
ENCODING 20278
SWIDTH 1000 0
SWIDTH1 1000 0
BBX 16 16 0 -2
BITMAP
1040
1040
10A0
20A0
2110
6248
A427
2822
2000
23FC
2008
2010
20A0
2040
2030
2010
ENDCHAR
STARTCHAR uni4F37
ENCODING 20279
SWIDTH 1000 0
SWIDTH1 1000 0
BBX 16 16 0 -2
BITMAP
0820
0820
0820
1022
13FF
3222
5222
9222
1222
13FE
1222
1222
1222
1222
13FE
1202
ENDCHAR
STARTCHAR uni4F38
ENCODING 20280
SWIDTH 1000 0
SWIDTH1 1000 0
BBX 16 16 0 -2
BITMAP
0820
0820
1022
13FF
3222
5222
93FE
1222
1222
1222
13FE
1222
1020
1020
1020
1020
ENDCHAR
STARTCHAR uni4F39
ENCODING 20281
SWIDTH 1000 0
SWIDTH1 1000 0
BBX 16 16 0 -2
BITMAP
0800
0804
09FE
1104
1104
3104
51FC
9104
1104
1104
11FC
1104
1104
1104
1104
17FF
ENDCHAR
STARTCHAR uni4F3A
ENCODING 20282
SWIDTH 1000 0
SWIDTH1 1000 0
BBX 16 16 0 -2
BITMAP
0802
0BFF
1002
1002
27FA
3002
5002
93E2
1222
1222
1222
13E2
1222
1002
100A
1004
ENDCHAR
STARTCHAR uni4F3B
ENCODING 20283
SWIDTH 1000 0
SWIDTH1 1000 0
BBX 16 16 0 -2
BITMAP
0804
0BFE
0820
1020
1224
3224
5128
9128
1022
17FF
1020
1020
1020
1020
1020
1020
ENDCHAR
STARTCHAR uni4F3C
ENCODING 20284
SWIDTH 1000 0
SWIDTH1 1000 0
BBX 16 16 0 -2
BITMAP
0800
0804
1204
1244
2224
5224
9224
1204
1204
1204
1248
128C
1312
1221
10C1
1300
ENDCHAR
STARTCHAR uni4F3D
ENCODING 20285
SWIDTH 1000 0
SWIDTH1 1000 0
BBX 16 16 0 -2
BITMAP
1200
1200
1202
2FDF
2252
2252
6252
A252
2252
2252
2252
2252
2252
245E
2552
2892
ENDCHAR
STARTCHAR uni4F3E
ENCODING 20286
SWIDTH 1000 0
SWIDTH1 1000 0
BBX 16 16 0 -2
BITMAP
0800
0802
0BFF
1010
1020
3020
5068
90A4
1122
1221
1421
1020
1020
1020
17FF
1000
ENDCHAR
STARTCHAR uni4F3F
ENCODING 20287
SWIDTH 1000 0
SWIDTH1 1000 0
BBX 15 16 0 -2
BITMAP
0804
09FE
0904
1104
1104
3104
5104
9104
11FC
1104
1090
1088
1104
1104
1202
1402
ENDCHAR
STARTCHAR uni4F40
ENCODING 20288
SWIDTH 1000 0
SWIDTH1 1000 0
BBX 16 16 0 -2
BITMAP
0804
09FE
0904
1104
1104
31FC
5104
9100
1102
11FF
1102
1102
1102
1102
11FE
1102
ENDCHAR
STARTCHAR uni4F41
ENCODING 20289
SWIDTH 1000 0
SWIDTH1 1000 0
BBX 16 16 0 -2
BITMAP
0820
0820
0840
1048
1084
3102
53FF
9001
1004
11FE
1104
1104
1104
1104
11FC
1104
ENDCHAR
STARTCHAR uni4F42
ENCODING 20290
SWIDTH 1000 0
SWIDTH1 1000 0
BBX 16 16 0 -2
BITMAP
0800
0802
0BFF
1020
1020
3020
5020
9224
123E
1220
1220
1220
1220
1220
1222
17FF
ENDCHAR
STARTCHAR uni4F43
ENCODING 20291
SWIDTH 1000 0
SWIDTH1 1000 0
BBX 16 16 0 -2
BITMAP
0800
0802
0BFF
1222
1222
3222
5222
9222
13FE
1222
1222
1222
1222
13FE
1202
1000
ENDCHAR
STARTCHAR uni4F44
ENCODING 20292
SWIDTH 1000 0
SWIDTH1 1000 0
BBX 16 16 0 -2
BITMAP
0908
0908
0908
1108
110A
37FF
5108
9108
1108
11F8
1108
1108
1108
1108
11F8
1108
ENDCHAR
STARTCHAR uni4F45
ENCODING 20293
SWIDTH 1000 0
SWIDTH1 1000 0
BBX 16 16 0 -2
BITMAP
0840
0840
0844
13FE
1040
3040
5042
97FF
10D0
10D0
1148
1148
1244
1443
1842
1040
ENDCHAR
STARTCHAR uni4F46
ENCODING 20294
SWIDTH 1000 0
SWIDTH1 1000 0
BBX 16 16 0 -2
BITMAP
0800
0804
13FE
1204
2204
2204
63FC
A204
2204
2204
2204
23FC
2204
2000
2FFF
2000
ENDCHAR
STARTCHAR uni4F47
ENCODING 20295
SWIDTH 1000 0
SWIDTH1 1000 0
BBX 16 16 0 -2
BITMAP
0840
0820
0820
13FF
1201
3402
5000
97FF
1020
1020
1020
1020
1020
1020
10A0
1040
ENDCHAR
STARTCHAR uni4F48
ENCODING 20296
SWIDTH 1000 0
SWIDTH1 1000 0
BBX 16 16 0 -2
BITMAP
0840
0840
0842
17FF
1080
30A0
5122
93FF
1522
1922
1122
1122
1122
112A
1124
1020
ENDCHAR
STARTCHAR uni4F49
ENCODING 20297
SWIDTH 1000 0
SWIDTH1 1000 0
BBX 16 16 0 -2
BITMAP
0820
0820
0824
13FE
1020
3020
5022
97FF
1040
1040
1040
1088
1084
1102
13FF
1101
ENDCHAR
STARTCHAR uni4F4A
ENCODING 20298
SWIDTH 1000 0
SWIDTH1 1000 0
BBX 16 16 0 -2
BITMAP
0820
0820
0820
13FE
1222
3224
5220
93FC
1284
1288
1248
1250
1420
1450
1888
1307
ENDCHAR
STARTCHAR uni4F4B
ENCODING 20299
SWIDTH 1000 0
SWIDTH1 1000 0
BBX 16 16 0 -2
BITMAP
0802
0BFF
0842
1042
1042
3082
5094
9108
1200
11FE
1102
1102
1102
1102
11FE
1102
ENDCHAR
STARTCHAR uni4F4C
ENCODING 20300
SWIDTH 1000 0
SWIDTH1 1000 0
BBX 16 16 0 -2
BITMAP
1010
1090
1090
2090
2090
2493
649C
A4F0
2490
2490
2490
2491
2491
24F1
2791
240F
ENDCHAR
STARTCHAR uni4F4D
ENCODING 20301
SWIDTH 1000 0
SWIDTH1 1000 0
BBX 16 16 0 -2
BITMAP
0880
0840
1040
1002
17FF
3000
5208
5208
9108
1110
1110
1110
1020
1020
17FF
1000
ENDCHAR
STARTCHAR uni4F4E
ENCODING 20302
SWIDTH 1000 0
SWIDTH1 1000 0
BBX 16 16 0 -2
BITMAP
1004
101E
13E0
2220
2220
6220
A222
23FF
2220
2220
2220
2210
2250
2389
2245
2023
ENDCHAR
STARTCHAR uni4F4F
ENCODING 20303
SWIDTH 1000 0
SWIDTH1 1000 0
BBX 16 16 0 -2
BITMAP
0880
0840
0820
1022
17FF
3020
5020
9020
1024
13FE
1020
1020
1020
1020
1022
17FF
ENDCHAR
STARTCHAR uni4F50
ENCODING 20304
SWIDTH 1000 0
SWIDTH1 1000 0
BBX 16 16 0 -2
BITMAP
0840
0840
0840
1042
17FF
3080
5080
9100
11FE
1220
1220
1420
1020
1022
17FF
1000
ENDCHAR
STARTCHAR uni4F51
ENCODING 20305
SWIDTH 1000 0
SWIDTH1 1000 0
BBX 16 16 0 -2
BITMAP
0840
0840
0840
1042
17FF
3080
5080
9104
11FE
1304
1504
1904
1104
1104
11FC
1104
ENDCHAR
STARTCHAR uni4F52
ENCODING 20306
SWIDTH 1000 0
SWIDTH1 1000 0
BBX 16 16 0 -2
BITMAP
0840
0840
0844
13FE
1244
3244
5244
9244
1244
1FFF
10A0
10A0
1110
1108
1204
1C03
ENDCHAR
STARTCHAR uni4F53
ENCODING 20307
SWIDTH 1000 0
SWIDTH1 1000 0
BBX 16 16 0 -2
BITMAP
0820
0820
0820
1022
17FF
3020
5070
90A8
10A8
1124
1222
1421
11FC
1020
1020
1020
ENDCHAR
STARTCHAR uni4F54
ENCODING 20308
SWIDTH 1000 0
SWIDTH1 1000 0
BBX 16 16 0 -2
BITMAP
0840
0840
0840
1042
107F
3040
5040
9040
1044
13FE
1204
1204
1204
1204
13FC
1204
ENDCHAR
STARTCHAR uni4F55
ENCODING 20309
SWIDTH 1000 0
SWIDTH1 1000 0
BBX 16 16 0 -2
BITMAP
0800
0802
0FFF
1004
1004
33E4
5224
9224
1224
1224
13E4
1224
1004
1004
1014
1008
ENDCHAR
STARTCHAR uni4F56
ENCODING 20310
SWIDTH 1000 0
SWIDTH1 1000 0
BBX 16 16 0 -2
BITMAP
0840
0820
0814
1094
1084
3088
5088
9290
1294
12A2
14A1
10C5
1084
1184
1684
107C
ENDCHAR
STARTCHAR uni4F57
ENCODING 20311
SWIDTH 1000 0
SWIDTH1 1000 0
BBX 16 16 0 -2
BITMAP
0840
0820
1020
13FE
2202
2404
6100
A104
210C
2130
21C0
2100
2101
2101
2101
20FF
ENDCHAR
STARTCHAR uni4F58
ENCODING 20312
SWIDTH 1000 0
SWIDTH1 1000 0
BBX 16 16 0 -2
BITMAP
0100
0100
0280
0440
0820
1018
2FE7
C002
0008
3FFC
0100
0920
1110
210C
4504
0200
ENDCHAR
STARTCHAR uni4F59
ENCODING 20313
SWIDTH 1000 0
SWIDTH1 1000 0
BBX 16 16 0 -2
BITMAP
0100
0180
0240
0420
0810
1008
2FF7
4102
8100
3FFC
0100
0920
1110
210C
4504
0200
ENDCHAR
STARTCHAR uni4F5A
ENCODING 20314
SWIDTH 1000 0
SWIDTH1 1000 0
BBX 16 16 0 -2
BITMAP
0820
0820
0920
1124
13FE
3220
5420
9022
17FF
1050
1050
1088
1088
1104
1203
1402
ENDCHAR
ENDFONT
